<?xml version="1.0" encoding="UTF-8" standalone="no"?>
<!-- Created with Inkscape (http://www.inkscape.org/) -->

<svg
   xmlns:dc="http://purl.org/dc/elements/1.1/"
   xmlns:cc="http://creativecommons.org/ns#"
   xmlns:rdf="http://www.w3.org/1999/02/22-rdf-syntax-ns#"
   xmlns:svg="http://www.w3.org/2000/svg"
   xmlns="http://www.w3.org/2000/svg"
   xmlns:sodipodi="http://sodipodi.sourceforge.net/DTD/sodipodi-0.dtd"
   xmlns:inkscape="http://www.inkscape.org/namespaces/inkscape"
   width="1038.431"
   height="342.25162"
   viewBox="0 0 1038.4311 342.25163"
   id="svg7262"
   version="1.1"
   inkscape:version="0.91 r13725"
   sodipodi:docname="logo_blue_big_with_margins.svg"
   inkscape:export-filename="logo_blue_big_with_margins.png"
   inkscape:export-xdpi="74.869217"
   inkscape:export-ydpi="74.869217"
   style="enable-background:new">
  <defs
     id="defs7264" />
  <sodipodi:namedview
     id="base"
     pagecolor="#ffffff"
     bordercolor="#666666"
     borderopacity="1.0"
     inkscape:pageopacity="0"
     inkscape:pageshadow="2"
     inkscape:zoom="0.70273928"
     inkscape:cx="357.8423"
     inkscape:cy="32.687262"
     inkscape:document-units="px"
     inkscape:current-layer="layer3"
     showgrid="false"
     units="px"
     fit-margin-top="0"
     fit-margin-left="0"
     fit-margin-right="0"
     fit-margin-bottom="0"
     showguides="true"
     inkscape:guide-bbox="true"
     inkscape:snap-global="true" />
  <metadata
     id="metadata7267">
    <rdf:RDF>
      <cc:Work
         rdf:about="">
        <dc:format>image/svg+xml</dc:format>
        <dc:type
           rdf:resource="http://purl.org/dc/dcmitype/StillImage" />
        <dc:title></dc:title>
      </cc:Work>
    </rdf:RDF>
  </metadata>
  <g
     inkscape:groupmode="layer"
     id="layer2"
     inkscape:label="Blue bg"
     style="display:none"
     transform="translate(7.2155197,15.05018)">
    <rect
       style="color:#000000;display:inline;overflow:visible;visibility:visible;opacity:0.98999999;fill:#88aadd;fill-opacity:1;fill-rule:nonzero;stroke:none;stroke-width:0.01;stroke-linecap:round;stroke-linejoin:miter;stroke-miterlimit:4;stroke-dasharray:none;stroke-dashoffset:0;stroke-opacity:1;marker:none;enable-background:accumulate"
       id="rect4161"
       width="662.59265"
       height="318.37543"
       x="0"
       y="-1.5258791e-05"
       rx="0"
       ry="0" />
  </g>
  <g
     inkscape:label="Blue Logo"
     inkscape:groupmode="layer"
     id="layer1"
     transform="translate(-73.426202,-478.37766)"
     style="display:inline;opacity:1">
    <g
       inkscape:groupmode="layer"
       id="layer3"
       inkscape:label="White bg">
      <rect
         style="color:#000000;display:inline;overflow:visible;visibility:visible;opacity:0.98999999;fill:#ffffff;fill-opacity:1;fill-rule:nonzero;stroke:#ffffff;stroke-width:4.70850849;stroke-linecap:round;stroke-linejoin:miter;stroke-miterlimit:4;stroke-dasharray:none;stroke-dashoffset:0;stroke-opacity:1;marker:none;enable-background:accumulate"
         id="rect4762"
         width="1033.7227"
         height="337.54315"
         x="75.780457"
         y="480.7319" />
    </g>
    <g
       transform="matrix(2.7103017,0,0,2.7103017,-713.92865,-1129.525)"
       id="g7227">
      <g
         id="g4155"
         transform="matrix(3.1146572,0,0,3.1146572,-619.94723,-1266.2756)">
        <g
           id="g4265"
           transform="matrix(1,0,0,1.0048685,-36.605404,86.071029)">
          <g
             id="g4267">
            <g
               style="fill:#87aade;fill-opacity:1"
               transform="translate(0,-34.30761)"
               id="g4269" />
          </g>
        </g>
      </g>
      <g
         id="g4185"
         transform="translate(66.883425,0)">
        <text
           sodipodi:linespacing="125%"
           id="text7216"
           y="630.38129"
           x="290.77808"
           style="font-style:normal;font-variant:normal;font-weight:normal;font-stretch:normal;font-size:42.53955841px;line-height:125%;font-family:'DejaVu Sans';-inkscape-font-specification:'DejaVu Sans';text-align:start;letter-spacing:0px;word-spacing:0px;writing-mode:lr-tb;text-anchor:start;display:inline;opacity:1;fill:#87aade;fill-opacity:1;stroke:none;stroke-width:1px;stroke-linecap:butt;stroke-linejoin:miter;stroke-opacity:1;enable-background:new"
           xml:space="preserve"
           transform="matrix(3.1146572,0,0,3.1146572,-619.94723,-1266.2756)"><tspan
             y="630.38129"
             x="290.77808"
             id="tspan7218"
             sodipodi:role="line">C</tspan></text>
        <g
           id="text7220"
           style="font-style:normal;font-variant:normal;font-weight:normal;font-stretch:normal;font-size:42.36507797px;line-height:125%;font-family:'DejaVu Sans';-inkscape-font-specification:'DejaVu Sans';text-align:start;letter-spacing:0px;word-spacing:0px;writing-mode:lr-tb;text-anchor:start;display:inline;opacity:0.98999999;fill:#87aade;fill-opacity:1;stroke:none;stroke-width:1px;stroke-linecap:butt;stroke-linejoin:miter;stroke-opacity:1;enable-background:new"
           transform="matrix(3.331732,0,0,3.2447683,-707.25209,-1345.9996)">
          <path
             inkscape:connector-curvature="0"
             id="path7225"
             d="m 350.12751,599.36746 5.62661,0 13.69418,25.83691 0,-25.83691 4.05447,0 0,30.88431 -5.62661,0 -13.69418,-25.83691 0,25.83691 -4.05447,0 0,-30.88431 z"
             style="fill:#87aade;fill-opacity:1" />
        </g>
        <g
           transform="matrix(3.1146572,0,0,3.1298209,-619.15447,-1182.4306)"
           id="g6117"
           style="display:inline;opacity:1;enable-background:new">
          <g
             id="g6119">
            <g
               transform="translate(-34.20935,0)"
               id="g6140">
              <g
                 style="fill:#87aade;fill-opacity:1"
                 transform="translate(24.43525,-31.520067)"
                 id="g6129">
                <g
                   transform="translate(128.9836,82.367963)"
                   style="font-style:normal;font-variant:normal;font-weight:normal;font-stretch:normal;font-size:42.30693817px;line-height:125%;font-family:'DejaVu Sans';-inkscape-font-specification:'DejaVu Sans';text-align:start;letter-spacing:0px;word-spacing:0px;writing-mode:lr-tb;text-anchor:start;fill:#87aade;fill-opacity:1;stroke:none;stroke-width:1px;stroke-linecap:butt;stroke-linejoin:miter;stroke-opacity:1"
                   id="g6131">
                  <path
                     inkscape:connector-curvature="0"
                     id="path6137"
                     transform="matrix(0.11846012,0,0,0.11788619,173.70275,518.27078)"
                     d="m 326.88867,0 c -36.62085,0 -65.92394,12.315137 -87.89648,36.964844 -21.85622,24.532729 -32.77735,57.488439 -32.77735,98.843746 0,41.35523 10.92113,74.29345 32.77735,98.82618 11.04718,12.15952 24.39583,21.69856 38.36914,27.66992 14.40442,5.9873 29.21735,8.42602 43.4082,9.125 l 5.58594,0.13672 c 2e-5,-0.0114 -2e-5,-0.0218 0,-0.0332 l -5.7793,-0.16406 0.18945,-9.89648 -0.46093,-8.01368 -1.18164,-14.46875 c 0,0 -0.71675,-8.17579 -0.92188,-10.48828 -0.0252,-0.28404 -0.10761,-0.73776 -0.16211,-1.11133 0.31055,2.61753 0.50391,5.5254 0.50391,5.5254 l -0.8418,-0.35743 c 0,0 -1.23112,-0.14418 -1.7832,-0.29687 -0.55082,-0.15312 -1.57011,-0.85118 -2.32227,-1.28125 -0.75282,-0.43008 -1.91583,-0.57259 -2.59961,-0.7168 -0.68478,-0.14251 -1.36813,-0.28303 -1.98437,-0.35937 -0.61565,-0.0721 -1.3006,-0.21345 -1.98438,-0.57227 -0.68377,-0.3589 -1.57504,-0.93319 -2.27148,-1.51172 -0.69694,-0.57827 -1.15039,-1.28515 -1.15039,-1.28515 0,0 -1.16396,-0.42561 -1.57422,-0.50196 -0.41094,-0.0729 -1.23047,-0.35937 -1.23047,-0.35937 0,0 -0.89044,0.28571 -1.57422,0.64453 -0.68386,0.3589 -1.64171,0.93219 -2.66797,1.29102 -1.02616,0.35915 -2.5992,-0.21329 -3.48828,-0.5 -0.88907,-0.28749 -1.80469,-1.17969 -1.80469,-1.17969 0,0 -0.79674,0.74642 -1.27539,0.89062 -0.47855,0.14336 -1.54792,-0.3797 -2.05273,-0.57226 -0.50405,-0.19299 -1.64062,-0.86133 -1.64062,-0.86133 0,0 -1.84701,5.2e-4 -2.32227,-0.14453 -0.47864,-0.1437 -2.25681,-0.71742 -2.87305,-1.21875 -0.61582,-0.50193 -1.71094,-1.29102 -1.71094,-1.29102 0,0 -1.71075,-0.57477 -2.39453,-0.93359 -0.68453,-0.35891 -1.57421,-1.21875 -1.57421,-1.21875 0,0 -1.64159,-0.14297 -2.18946,-0.42969 -0.54752,-0.28655 -2.25682,-2.08024 -2.80469,-2.86914 -0.54702,-0.78856 -0.82031,-1.57617 -0.82031,-1.57617 0,0 -1.70993,-0.57399 -2.32617,-1.07617 -0.61616,-0.50261 -0.95898,-1.43555 -0.95898,-1.43555 l -1.16211,-1.00391 c 0,0 -1.70995,-1.6486 -2.25782,-2.4375 -0.54617,-0.78915 -0.68359,-2.15234 -0.68359,-2.15234 0,0 -1.16371,-1.43395 -1.60352,-2.16602 -0.44149,-0.72968 -0.65429,-2.42382 -0.65429,-2.42382 0,0 -0.82216,-1.57712 -1.23242,-2.22266 -0.41027,-0.64537 -0.61133,-2.98047 -0.61133,-2.98047 0,0 -0.34562,-0.53281 -0.6875,-0.96289 -0.3424,-0.43033 -1.02729,-2.5094 -1.23242,-3.51367 -0.20514,-1.00428 0.002,-2.51172 0.20703,-3.22852 0.2053,-0.71696 1.25586,-1.2539 1.25586,-1.2539 0,0 -0.0947,-0.60993 0.11132,-0.96875 0.20522,-0.35823 0.75378,-0.85977 1.23243,-1.14649 0.47813,-0.28672 1.09375,-0.57422 1.09375,-0.57422 0,0 0.46027,0.44064 0.89062,0.84571 -0.48893,-0.51553 -0.96935,-1.17817 -1.07617,-1.58985 -0.15355,-0.59125 0.35908,-1.72179 0.92383,-2.41992 0.56483,-0.69881 1.69306,-1.50538 2.25781,-1.77344 0.56483,-0.26848 2.00192,-0.701 2.66797,-0.86132 0.66664,-0.16118 1.89648,-0.53711 1.89648,-0.53711 0,0 -2.30909,-0.37603 -3.07812,-0.69922 -0.76946,-0.32404 -1.53906,-0.5918 -1.53906,-0.5918 0,0 0.35884,1.45158 0.25586,1.99023 -0.10266,0.53883 -1.18024,1.34563 -1.74415,1.66797 -0.56398,0.32184 -2.51402,0.75289 -3.38671,0.91407 -0.8727,0.16168 -3.43854,-0.6461 -4.66993,-1.07618 -1.23138,-0.43024 -4.10525,-2.69 -4.92578,-3.28125 -0.82095,-0.59133 -2.51356,-3.87289 -2.92383,-5.00195 -0.41026,-1.12914 0.0506,-3.22661 0.41016,-4.14062 0.3597,-0.91394 1.69372,-2.79712 2.41211,-3.4961 0.71839,-0.69974 1.949,-1.02327 2.76953,-1.18359 0.82095,-0.15863 2.31033,-0.15851 3.13086,-0.0508 0.82053,0.10688 1.28125,0.26953 1.28125,0.26953 0,0 -0.92306,-1.23883 -1.17969,-1.83008 -0.25747,-0.59116 -0.10351,-1.61328 -0.10351,-1.61328 0,0 -0.61716,1.12914 -1.28321,1.82812 -0.66672,0.6989 -1.58936,1.1307 -2.30859,1.29102 -0.71931,0.16117 -4.10512,-0.21383 -4.875,-0.375 -0.77013,-0.16083 -2.92348,-1.39938 -3.69336,-2.04492 -0.76996,-0.64537 -2.56682,-3.28025 -3.08008,-3.92578 -0.51308,-0.64546 -2.20568,-3.87298 -2.56445,-4.67969 -0.35869,-0.80637 -0.77085,-2.47454 -1.07812,-3.28125 -0.30804,-0.80714 -1.17958,-2.79556 -1.58985,-3.54883 -0.41035,-0.7531 -1.28169,-3.44144 -1.42773,-4.58008 -0.1452,-1.13847 -0.72643,-5.15426 -0.67578,-6.55273 0.0509,-1.39838 1.1792,-4.30312 1.89843,-5.37891 0.71923,-1.0757 3.1808,-2.205 4.05274,-2.52734 0.87185,-0.32319 4.31054,-0.64649 4.31054,-0.64649 l 7.08008,-1.39648 c 0,0 8.41571,-1.39689 10.00586,-1.93555 1.59033,-0.53865 2.35993,-0.26853 2.92383,0.26758 0.56407,0.53696 1.18135,1.93576 1.74609,2.84961 0.56492,0.91393 2.30817,2.90423 2.82227,3.71094 0.5141,0.80722 0.76953,2.09789 0.76953,2.79687 0,0.69966 -1.48828,2.68946 -1.48828,2.68946 0,0 1.23226,-1.2379 1.84766,-1.66797 0.61565,-0.43008 0.97426,-0.48376 1.74414,-0.69922 0.77021,-0.21546 1.79687,0.16211 1.79687,0.16211 l -1.17969,-1.23828 c 0,0 -1.59079,-1.34337 -2.20703,-1.77344 -0.61573,-0.43025 -2.41155,-1.93767 -3.07422,-2.72656 -0.66241,-0.78907 -0.77481,-2.97585 -0.87695,-3.89063 -0.1013,-0.91478 0.41082,-4.35634 0.56445,-5.48633 0.15373,-1.1299 0.56422,-3.92611 0.92383,-5.10937 0.35962,-1.18326 1.64258,-2.68946 1.64258,-2.68946 0,0 -0.76995,0.53704 -1.2832,0.85938 -0.51309,0.32319 -2.61684,0.58711 -3.38672,0.64648 -0.76988,0.0542 -0.97467,0.59297 -0.76953,0.96875 0.20521,0.37579 0.51403,0.64455 1.23242,1.12891 0.71838,0.48454 1.33256,1.18239 1.43555,2.04297 0.10265,0.86058 -0.4602,2.95881 -1.43555,4.46484 -0.97527,1.50654 -2.875,2.31446 -2.875,2.31446 0,0 -7.74715,1.66735 -8.82422,1.88281 -1.07707,0.21504 -6.15734,1.18297 -7.18359,1.39844 -1.02609,0.21546 -6.20935,0.80726 -6.92774,0.59179 -0.7183,-0.21529 -1.74313,-1.02305 -2.35937,-1.45312 -0.61582,-0.43033 -0.92586,-1.77453 -1.18164,-2.47266 -0.25579,-0.69872 -0.10143,-4.03381 -0.0508,-5.00195 0.0498,-0.96729 0.51237,-4.67994 0.66601,-5.86328 0.15355,-1.18326 1.07802,-3.81807 1.48828,-5.05469 0.41044,-1.2367 1.69162,-4.89553 2.76953,-6.93945 1.078,-2.043924 2.05404,-3.711719 3.0293,-4.517581 0.97526,-0.80688 2.46286,-1.452109 3.64258,-1.613281 1.17972,-0.161173 3.07849,0.429069 3.79687,0.644531 0.71839,0.215462 1.54033,0.645547 2.05274,0.484375 0.51156,-0.161766 0.46099,-0.915937 0.25586,-1.238282 -0.2053,-0.322344 -0.82192,-0.321956 -1.5918,-0.429687 -0.77013,-0.106883 -2.92504,0.216797 -3.64258,0.216797 -0.71754,0 -2.46122,-1.13056 -2.92383,-1.722656 -0.46184,-0.592097 -0.87317,-2.527538 -0.92382,-3.81836 -0.0509,-1.290991 1.18076,-3.711948 1.84765,-4.734375 0.66748,-1.022427 2.1045,-1.505859 3.02735,-1.505859 0.92275,0 2.46128,-0.05421 3.33398,-0.322266 0.87219,-0.268564 0.97656,-1.61406 0.97656,-2.419922 0,-0.806371 -0.66797,-2.688446 -0.66797,-3.333984 0,-0.645538 0.87355,-2.420429 1.64258,-3.765625 0.76929,-1.345026 3.38745,-3.603625 4.82422,-4.894531 1.43677,-1.290652 2.77071,-1.876168 3.79688,-1.935547 1.02625,-0.05429 2.61715,0.752899 3.2832,1.398437 0.66664,0.645369 2.154,2.796985 2.71875,4.087891 0.56475,1.290821 0.82031,3.711013 0.82031,4.732422 0,1.021578 -0.46101,2.690002 -0.7168,3.28125 -0.25578,0.591248 -0.66601,1.558594 -0.66601,1.558594 0,0 1.48812,-0.861868 2.10351,-0.96875 0.61591,-0.101793 1.17969,-0.05078 1.17969,-0.05078 0,0 -1.17821,-1.291255 -1.48633,-1.990234 -0.30896,-0.699658 -0.30872,-2.636849 -0.35937,-3.550781 -0.0518,-0.914017 -0.87418,-3.924666 -1.33594,-4.785156 -0.46134,-0.860661 -1.58908,-3.174581 -1.8457,-4.035157 -0.25747,-0.860576 -0.10363,-2.796726 0.30664,-3.925781 0.41052,-1.12914 2.56715,-3.226608 3.84961,-4.140625 1.28229,-0.913932 4.7197,-3.656918 5.95117,-4.517578 1.23138,-0.860576 1.95096,-2.312265 2.77148,-3.28125 0.82096,-0.968816 2.77063,-1.560238 3.79688,-1.667969 1.02617,-0.107646 2.61689,0.7529 3.18164,1.398438 0.56483,0.645368 1.48614,2.581313 1.64062,3.496093 0.15449,0.914866 0.20508,3.87219 0.20508,4.894532 0,1.022426 0.20508,3.227658 0.20508,4.25 0,1.022426 0.10478,1.881717 0.61719,2.365234 0.51258,0.483772 1.02462,3.88e-4 1.28125,-0.429687 0.25747,-0.430416 0.258,-2.528975 0.10351,-3.496094 -0.15431,-0.967374 -0.87085,-3.27977 -1.23046,-4.355469 -0.35962,-1.075783 -0.46081,-3.657745 -0.41016,-4.894531 0.0513,-1.236617 0.30719,-2.90477 0.87109,-3.980469 0.56407,-1.075699 2.30838,-2.905243 3.12891,-3.550781 0.82095,-0.645453 3.79766,-1.882424 5.0293,-2.3125 1.23138,-0.430415 5.74689,-1.721022 7.33789,-2.097656 1.591,-0.376889 6.46507,-1.614307 7.38867,-1.9375 0.9236,-0.323533 3.38586,-1.290848 4.41211,-1.451172 1.02625,-0.161003 2.97767,0.59079 3.84961,1.236328 0.87194,0.645453 2.46273,2.043497 3.07812,3.011718 0.61574,0.968138 1.64194,3.012108 1.94922,4.087891 0.30829,1.075699 0.82079,3.980663 1.12891,5.271485 0.30896,1.290906 0.0521,5.701709 0.15429,7.154296 0.1013,1.452673 0.15288,6.238755 0.25586,7.314454 0.10257,1.075868 1.23243,1.558593 1.23243,1.558593 l 0.0488,24.222657 c 0.017,-8.162985 0.0342,-15.913463 0.0508,-24.222657 0,0 1.12782,-0.484678 1.23047,-1.560547 0.10299,-1.075698 0.15456,-5.86178 0.25586,-7.314453 0.10299,-1.452587 -0.15466,-5.861522 0.1543,-7.152343 0.30812,-1.290907 0.82062,-4.195786 1.12891,-5.271485 0.30727,-1.075783 1.33348,-3.119753 1.94922,-4.087891 0.61624,-0.968221 2.20822,-2.36618 3.08007,-3.011718 0.87186,-0.645538 2.82132,-1.399284 3.84766,-1.238282 1.02617,0.160325 3.49046,1.129593 4.41406,1.453126 0.9236,0.324041 5.79767,1.558657 7.38867,1.935546 1.591,0.376635 6.10643,1.669195 7.33789,2.09961 1.23147,0.430076 4.20631,1.667047 5.02735,2.3125 0.82053,0.645538 2.56687,2.475082 3.13086,3.550781 0.5639,1.075699 0.81977,2.741899 0.87109,3.978516 0.0507,1.236786 -0.0505,3.820785 -0.41015,4.896484 -0.35962,1.075699 -1.07803,3.388095 -1.23243,4.355469 -0.15448,0.967119 -0.15395,3.065763 0.10352,3.496094 0.25663,0.430075 0.77071,0.913459 1.2832,0.429687 0.51325,-0.483517 0.61524,-1.344761 0.61524,-2.367187 0,-1.022342 0.20507,-3.225621 0.20507,-4.248047 0,-1.022342 0.0517,-3.981534 0.20704,-4.896485 0.15448,-0.91478 1.0757,-2.848772 1.64062,-3.49414 0.56475,-0.645538 2.15539,-1.506084 3.18164,-1.398438 1.02617,0.107731 2.97601,0.6972 3.79688,1.666016 0.82053,0.968985 1.54001,2.420674 2.77148,3.28125 1.23139,0.86066 4.6688,3.603646 5.95117,4.517578 1.28238,0.914017 3.43909,3.013438 3.84961,4.142578 0.41027,1.129055 0.56411,3.065205 0.30664,3.925781 -0.25662,0.860576 -1.38632,3.172543 -1.84765,4.033203 -0.46176,0.860491 -1.28216,3.873093 -1.33399,4.78711 -0.0507,0.913932 -0.0504,2.851123 -0.35937,3.550781 -0.30728,0.698979 -1.48633,1.988281 -1.48633,1.988281 0,0 0.56387,-0.05101 1.17969,0.05078 0.61624,0.106882 2.10351,0.96875 2.10351,0.96875 0,0 -0.41023,-0.967261 -0.66601,-1.558594 -0.25579,-0.591248 -0.71875,-2.259841 -0.71875,-3.28125 0,-1.021579 0.25556,-3.441516 0.82031,-4.732422 0.56475,-1.290821 2.05211,-3.442523 2.71875,-4.087891 0.66605,-0.645538 2.25899,-1.452642 3.28516,-1.398437 1.02625,0.05938 2.3601,0.644725 3.79687,1.935547 1.4366,1.290821 4.05306,3.54942 4.82227,4.894531 0.76903,1.345111 1.64257,3.120172 1.64257,3.765625 0,0.645538 -0.66601,2.527613 -0.66601,3.333984 0,0.805862 0.10233,2.151358 0.97461,2.419922 0.87261,0.268055 2.41318,0.322266 3.33593,0.322266 0.922,0 2.35987,0.485301 3.02735,1.507812 0.66689,1.022342 1.89856,3.441516 1.84765,4.732422 -0.0506,1.290906 -0.46198,3.226263 -0.92382,3.818359 -0.46261,0.592097 -2.20816,1.722657 -2.92578,1.722657 -0.7167,0 -2.87245,-0.32368 -3.64258,-0.216797 -0.76988,0.107731 -1.3865,0.107343 -1.5918,0.429687 -0.20598,0.322345 -0.2557,1.0766 0.25586,1.238282 0.51241,0.161172 1.33435,-0.26696 2.05273,-0.482422 0.71839,-0.215462 2.61716,-0.807657 3.79688,-0.646485 1.17972,0.161173 2.66927,0.806402 3.64453,1.613282 0.97535,0.80671 1.94934,2.473657 3.02734,4.517574 1.07792,2.04384 2.36106,5.70284 2.77149,6.93946 0.41026,1.23661 1.33277,3.87134 1.48633,5.05468 0.15364,1.18326 0.61621,4.896 0.66601,5.86329 0.0507,0.96644 0.20585,4.30314 -0.0508,5.00195 -0.25578,0.69898 -0.56387,2.04232 -1.17969,2.47266 -0.61539,0.43007 -1.64302,1.23783 -2.36132,1.45312 -0.71839,0.21546 -5.89953,-0.37633 -6.92579,-0.5918 -1.02616,-0.21546 -6.10652,-1.1834 -7.18359,-1.39843 -1.07716,-0.21547 -8.82617,-1.88282 -8.82617,-1.88282 0,0 -1.89778,-0.80596 -2.87305,-2.3125 -0.97535,-1.50603 -1.54006,-3.60426 -1.4375,-4.46484 0.10299,-0.86058 0.71903,-1.56039 1.4375,-2.04492 0.71839,-0.48437 1.02517,-0.75312 1.23047,-1.12891 0.20513,-0.37578 3.5e-4,-0.91454 -0.76953,-0.96875 -0.76988,-0.0594 -2.87364,-0.32134 -3.38672,-0.64453 -0.51325,-0.32234 -1.28125,-0.86133 -1.28125,-0.86133 0,0 1.2811,1.5062 1.64063,2.68945 0.35961,1.18326 0.7701,3.98143 0.92382,5.11133 0.15449,1.12999 0.66576,4.57155 0.56446,5.48633 -0.10215,0.91478 -0.21174,3.10148 -0.875,3.89063 -0.66183,0.78889 -2.46044,2.29436 -3.07618,2.72461 -0.61539,0.43007 -2.20703,1.77539 -2.20703,1.77539 l -1.17968,1.23632 c 0,0 1.02682,-0.37561 1.79687,-0.16015 0.76988,0.21546 1.12849,0.26829 1.74414,0.69922 0.61624,0.43007 1.84766,1.66601 1.84766,1.66601 0,0 -1.48828,-1.98775 -1.48828,-2.6875 0,-0.69813 0.25543,-1.98974 0.76953,-2.79687 0.5141,-0.80671 2.25743,-2.79692 2.82226,-3.71094 0.56475,-0.91385 1.18211,-2.3146 1.7461,-2.85156 0.5639,-0.53781 1.33359,-0.80624 2.92383,-0.26758 1.59015,0.53865 10.00586,1.93555 10.00586,1.93555 l 7.08007,1.39843 c 0,0 3.43861,0.32134 4.31055,0.64454 0.87185,0.32234 3.33554,1.45359 4.05469,2.52929 0.71923,1.07579 1.84558,3.98053 1.89648,5.37891 0.0507,1.39847 -0.52863,5.41426 -0.67383,6.55273 -0.14519,1.13864 -1.01933,3.82698 -1.42968,4.58008 -0.41027,0.75327 -1.28122,2.74441 -1.58985,3.55078 -0.30727,0.80671 -0.71935,2.47293 -1.07812,3.2793 -0.35877,0.80586 -2.05137,4.03423 -2.56446,4.67969 -0.51325,0.64553 -2.30994,3.28041 -3.08007,3.92578 -0.76988,0.64554 -2.92323,1.88392 -3.69336,2.04492 -0.76988,0.16032 -4.15577,0.53812 -4.875,0.37695 -0.71839,-0.16202 -1.64196,-0.5922 -2.3086,-1.29101 -0.66604,-0.69898 -1.2832,-1.82813 -1.2832,-1.82813 0,0 0.15591,1.02212 -0.10156,1.61328 -0.25663,0.59125 -1.18164,1.82813 -1.18164,1.82813 0,0 0.46259,-0.16155 1.2832,-0.26758 0.82053,-0.10773 2.30795,-0.10785 3.12891,0.0508 0.82053,0.16117 2.05318,0.48377 2.77148,1.1836 0.71839,0.69897 2.0525,2.5802 2.41211,3.49414 0.35961,0.91401 0.82042,3.01352 0.41016,4.14257 -0.41027,1.12906 -2.1028,4.41071 -2.92383,5.00196 -0.82053,0.59125 -3.6944,2.84896 -4.92578,3.27929 -1.23147,0.43008 -3.79714,1.23794 -4.66993,1.07618 -0.87185,-0.16118 -2.82264,-0.59215 -3.38671,-0.91407 -0.56391,-0.32234 -1.64158,-1.12923 -1.74414,-1.66797 -0.10299,-0.53865 0.2539,-1.99023 0.2539,-1.99023 0,0 -0.7696,0.26971 -1.53906,0.59375 -0.76904,0.32404 -3.07813,0.69727 -3.07813,0.69727 0,0 1.23172,0.37593 1.89844,0.53711 0.66605,0.16032 2.10314,0.59284 2.66797,0.86132 0.56475,0.26806 1.69307,1.0765 2.25781,1.77539 0.56475,0.69813 1.0773,1.82868 0.92383,2.41993 -0.10523,0.40332 -0.57053,1.04557 -1.04883,1.55664 0.40564,-0.38264 0.85742,-0.81446 0.85742,-0.81446 0,0 0.61681,0.2875 1.09571,0.57422 0.47864,0.28672 1.02517,0.78826 1.23047,1.14649 0.20597,0.35882 0.11328,0.96875 0.11328,0.96875 0,0 1.05056,0.53694 1.25586,1.2539 0.20597,0.7168 0.41132,2.22424 0.20703,3.22852 -0.20598,1.00427 -0.89003,3.08334 -1.23242,3.51367 -0.34189,0.43008 -0.6875,0.96289 -0.6875,0.96289 0,0 -0.20302,2.3351 -0.61328,2.98047 -0.41027,0.64554 -1.23047,2.22266 -1.23047,2.22266 0,0 -0.21533,1.69414 -0.6543,2.42382 -0.44065,0.73207 -1.60352,2.16602 -1.60352,2.16602 0,0 -0.13741,1.36319 -0.68359,2.15234 -0.54786,0.7889 -2.25781,2.4375 -2.25781,2.4375 l -1.16406,1.00391 c 0,0 -0.34088,0.93294 -0.95704,1.43555 -0.61539,0.50218 -2.32617,1.07617 -2.32617,1.07617 0,0 -0.27245,0.78761 -0.82031,1.57617 -0.54786,0.7889 -2.25716,2.58259 -2.80469,2.86914 -0.54786,0.28672 -2.18945,0.42969 -2.18945,0.42969 0,0 -0.8896,0.85984 -1.57422,1.21875 -0.68377,0.35797 -2.39453,0.93359 -2.39453,0.93359 0,0 -1.0952,0.78909 -1.71094,1.29102 -0.6154,0.50133 -2.3944,1.07505 -2.87305,1.21875 -0.47526,0.14505 -2.32226,0.14453 -2.32226,0.14453 0,0 -1.13777,0.66834 -1.64258,0.86133 -0.50312,0.19256 -1.57409,0.71562 -2.05273,0.57226 -0.47865,-0.1442 -1.27344,-0.89062 -1.27344,-0.89062 0,0 -0.91553,0.8922 -1.80469,1.17969 -0.88916,0.28671 -2.46194,0.85915 -3.48828,0.5 -1.02617,-0.35967 -1.98606,-0.93212 -2.66992,-1.29102 -0.68378,-0.35797 -1.57227,-0.64453 -1.57227,-0.64453 0,0 -0.82148,0.28642 -1.23242,0.35937 -0.41026,0.0764 -1.57422,0.50196 -1.57422,0.50196 0,0 -0.45234,0.70688 -1.14843,1.28515 -0.69729,0.57853 -1.58679,1.15282 -2.27149,1.51172 -0.68377,0.35882 -1.36864,0.50016 -1.98437,0.57227 -0.61625,0.0763 -1.29968,0.21601 -1.98438,0.35937 -0.68377,0.14421 -1.8467,0.28672 -2.59961,0.7168 -0.75299,0.43007 -1.77077,1.12813 -2.32226,1.28125 -0.55209,0.15269 -1.78321,0.29687 -1.78321,0.29687 l -0.84179,0.35938 c 0,0 0.19102,-2.85524 0.49609,-5.45313 -0.0492,0.34378 -0.12687,0.77204 -0.15039,1.03711 -0.20513,2.3124 -0.92383,10.48828 -0.92383,10.48828 l -1.18164,14.46875 -0.46094,8.01368 0.29688,9.88672 -5.88477,0.18945 0,0.004 -0.0605,-0.002 -0.54101,0.0176 0.24023,0.006 c 36.50461,0 65.85082,-12.40672 87.70704,-36.93945 21.8563,-24.64971 32.79296,-57.58776 32.79296,-98.82618 0,-41.355307 -10.93666,-74.311017 -32.79296,-98.843746 C 392.56566,12.315137 363.39328,0 326.88867,0 Z m 0.12695,271.55078 0.0605,-0.002 -0.36133,-181.900392 c -0.12767,61.295452 -0.26551,119.493372 -0.35937,181.884762 l 0.66015,0.0176 z M 303.4375,154.17383 c -0.44972,-0.0304 -0.60458,0.42405 -0.52734,0.9082 0.005,0.0344 0.0218,0.0675 0.0293,0.10156 -0.0335,-0.34463 0.01,-0.63807 0.18946,-0.79492 0.37422,-0.32694 0.78789,-0.0451 1.40039,0.43945 -0.20227,-0.1887 -0.39031,-0.3522 -0.54102,-0.44531 -0.218,-0.13462 -0.40087,-0.19884 -0.55078,-0.20898 z m 46.55469,0.002 c -0.14991,0.0102 -0.33278,0.0744 -0.55078,0.20899 -0.14621,0.0903 -0.32842,0.24509 -0.52344,0.42578 0.60023,-0.4736 1.00923,-0.74491 1.37891,-0.42188 0.18121,0.15774 0.22663,0.45422 0.1914,0.80274 0.008,-0.0366 0.0254,-0.0725 0.0312,-0.10938 0.0772,-0.48415 -0.0776,-0.93668 -0.52734,-0.90625 z m -42.28125,4.56641 c 0.68843,1.2126 1.62862,3.45391 2.05468,4.68164 l -0.002,0 c 0.35331,1.01726 0.60475,2.29463 0.73242,3.73242 -0.004,-0.52691 -0.0184,-0.99557 -0.043,-1.31641 -0.10265,-1.34511 -1.64171,-5.43271 -2.66796,-6.99218 -0.0211,-0.0321 -0.0524,-0.0727 -0.0742,-0.10547 z m 37.99023,0.0273 c -0.0162,0.0244 -0.0408,0.0541 -0.0566,0.0781 -1.02617,1.55938 -2.56532,5.64903 -2.66797,6.99414 -0.0233,0.30415 -0.036,0.75568 -0.041,1.24804 0.12997,-1.41063 0.37999,-2.66407 0.72851,-3.66601 l -0.002,0 c 0.42297,-1.21881 1.35183,-3.43483 2.03906,-4.6543 z m -0.55273,11.57617 c -0.0627,0.8208 -0.0796,1.53513 0.0176,1.90235 0.17513,0.66126 0.54883,1.76873 0.99023,2.83203 -0.3963,-1.21216 -1.02344,-3.07947 -1.02344,-4.1836 0,-0.13139 0.0121,-0.37308 0.0156,-0.55078 z m -36.86524,0.0469 c 0.003,0.15844 0.0137,0.38221 0.0137,0.50195 0,1.09816 -0.61874,2.94845 -1.01563,4.16211 0.43686,-1.05567 0.80672,-2.15253 0.98047,-2.80859 0.0954,-0.36066 0.0809,-1.05411 0.0215,-1.85547 z m 38.41016,5.85742 c 0.26856,0.53667 0.54147,1.01398 0.79883,1.30469 0.88916,1.00427 1.43672,1.21987 2.46289,1.79297 1.02625,0.57343 1.16328,1.14592 2.18945,0.85937 1.02617,-0.28672 1.98448,-0.85994 2.53125,-1.14648 0.54786,-0.28672 1.23048,-0.78945 1.50391,-0.35938 0.047,0.0741 0.0624,0.16685 0.0664,0.26563 0.0815,-0.41103 0.0983,-0.88629 -0.49218,-0.64844 -0.66605,0.26805 -1.12744,0.59231 -1.79493,0.91406 -0.66689,0.32235 -3.18091,0.70063 -4.00195,0.10938 -0.67613,-0.4872 -2.45283,-1.95602 -3.26367,-3.0918 z m -39.9668,0.0137 c -0.81545,1.13378 -2.57861,2.59098 -3.25195,3.07617 -0.82095,0.59125 -3.33702,0.21493 -4.00391,-0.10742 -0.66748,-0.32175 -1.12887,-0.64601 -1.79492,-0.91406 -0.58299,-0.23522 -0.57491,0.22505 -0.49609,0.63281 0.006,-0.0926 0.0217,-0.17977 0.0664,-0.25 0.27343,-0.43007 0.958,0.0727 1.50586,0.35938 0.54669,0.28654 1.505,0.85976 2.53125,1.14648 1.02617,0.28655 1.16329,-0.28594 2.18946,-0.85937 1.02625,-0.5731 1.57381,-0.7887 2.46289,-1.79297 0.25532,-0.28841 0.52447,-0.75982 0.79101,-1.29102 z m 48.44336,5.7461 c 0.0122,0.15043 0.0445,0.29466 0.11914,0.41992 0.34189,0.57343 1.43724,2.22369 2.1211,2.86914 0.68377,0.64554 3.42096,2.79595 4.65234,3.4414 0.64114,0.33609 1.89621,0.79632 3.12695,1.18946 -0.27875,-0.0923 -0.5397,-0.19388 -0.76367,-0.31446 -1.89811,-1.02225 -5.79809,-3.33451 -6.77344,-4.30273 -0.94263,-0.93574 -2.25621,-2.51678 -2.48242,-3.30273 z m -56.91406,0.0156 c -0.23955,0.79135 -1.54226,2.35582 -2.47852,3.28516 -0.97535,0.96822 -4.87541,3.28047 -6.77343,4.30273 -0.22302,0.12015 -0.4824,0.22429 -0.75977,0.31641 1.22907,-0.39276 2.47902,-0.85388 3.11914,-1.18946 1.23147,-0.64545 3.96857,-2.79586 4.65234,-3.4414 0.68386,-0.64545 1.77921,-2.29571 2.1211,-2.86914 0.072,-0.12091 0.10556,-0.25965 0.11914,-0.4043 z m -17.14063,1.1543 c -0.23762,-2.4e-4 -0.59115,0.21885 -0.7832,0.35351 -0.30728,0.21513 -0.25599,0.69822 -0.30664,1.34375 -0.008,0.0966 -0.0288,0.28022 -0.0391,0.4043 0.0983,-0.59541 0.32415,-1.45502 0.56836,-1.77539 0.24924,-0.328 0.69615,-0.0655 0.78711,0.32422 0.003,-0.10944 0.0176,-0.25758 0.0176,-0.34766 0,-0.22299 -0.10157,-0.30259 -0.24415,-0.30273 z m 91.20118,0 c -0.14259,1.4e-4 -0.24414,0.0797 -0.24414,0.30273 0,0.0881 0.0148,0.23321 0.0176,0.33985 0.0957,-0.38498 0.53579,-0.64277 0.78321,-0.31641 0.24987,0.32781 0.48323,1.22564 0.57617,1.82031 -0.0118,-0.14075 -0.0346,-0.34192 -0.043,-0.44922 -0.0507,-0.64553 -10e-4,-1.12862 -0.30859,-1.34375 -0.19205,-0.13466 -0.54361,-0.35375 -0.78125,-0.35351 z m -91.08789,1.9375 c -0.0521,0.25639 -0.10312,0.52192 -0.17774,0.73047 0.0792,-0.21555 0.13321,-0.46843 0.17774,-0.73047 z m 90.97851,0.0391 c 0.0359,0.20335 0.0821,0.39333 0.13867,0.57031 -0.0558,-0.17298 -0.0968,-0.37068 -0.13867,-0.57031 z m -68.03906,0.47656 c 0.16794,0.90614 0.59909,1.76823 1.08203,2.89258 0.39603,0.92211 1.18735,2.40972 1.95703,3.90625 -0.11499,-0.24442 -2.50558,-5.33562 -3.03906,-6.79883 z m 45.08984,0.008 c -0.53538,1.46614 -2.89392,6.49013 -3.02539,6.76954 0.7659,-1.4886 1.5513,-2.96747 1.94531,-3.88477 0.48095,-1.12124 0.91091,-1.98135 1.08008,-2.88477 z m -87.65429,1.92579 c 0.53989,0.48634 1.09773,0.96743 1.43554,1.17382 0.82095,0.50159 3.28416,1.50548 4.51563,1.93555 1.23155,0.43016 2.59823,0.78946 3.96679,1.07617 1.36772,0.28757 4.10498,-0.43008 4.99414,-0.71679 0.89001,-0.28748 2.53314,-2.00844 2.80665,-2.50977 0.0381,-0.0696 0.0738,-0.21661 0.11132,-0.33398 -0.44632,0.79203 -1.45034,1.58307 -1.98242,1.9082 -0.62401,0.38121 -3.94213,1.44727 -5.3789,1.44727 -1.43669,0 -5.90235,-1.61524 -5.90235,-1.61524 0,0 -3.95101,-1.93516 -4.5664,-2.36523 z m 130.21289,0.006 c -0.63073,0.43661 -4.55664,2.36132 -4.55664,2.36132 0,0 -4.46371,1.61329 -5.90039,1.61329 -1.43669,0 -4.7549,-1.06606 -5.37891,-1.44727 -0.53524,-0.32707 -1.55001,-1.12311 -1.99219,-1.91992 0.0388,0.1231 0.0778,0.27359 0.11719,0.3457 0.27351,0.50133 1.91477,2.22229 2.80469,2.50977 0.88907,0.28671 3.62642,1.00436 4.99414,0.71679 1.36864,-0.28671 2.73532,-0.64601 3.96679,-1.07617 1.23139,-0.43007 3.69459,-1.43396 4.51563,-1.93555 0.3365,-0.2056 0.89172,-0.6836 1.42969,-1.16796 z m -111.07227,0.79101 c -1e-5,0.005 -0.002,0.0151 -0.002,0.0195 0,0.36942 0.19006,0.8499 0.48047,1.26563 -0.25045,-0.41282 -0.42779,-0.90003 -0.47852,-1.27149 -5.7e-4,-0.004 5.6e-4,-0.009 0,-0.0137 z m 91.94141,0.0234 c -0.0514,0.36472 -0.22433,0.8366 -0.4668,1.24219 0.28141,-0.41007 0.46571,-0.87902 0.4668,-1.24219 z m -7.32617,1.59375 c 1.07045,0.33658 2.10791,0.62256 2.65624,0.69726 0.95025,0.13091 2.26108,0.0525 3.08008,-0.19531 -0.78713,0.0858 -3.73075,0.10653 -5.73632,-0.50195 z m -77.30274,0.004 c -2.01101,0.60631 -4.95493,0.58424 -5.73047,0.49804 0.81892,0.24872 2.13487,0.32642 3.08594,0.19531 0.5459,-0.0744 1.57845,-0.35855 2.64453,-0.69335 z m 24.37305,15.03124 c 0.8584,2.97346 1.89774,7.01338 2.46679,8.96876 0.49768,1.70842 1.28064,4.64155 1.92188,7.2207 -0.2697,-1.16344 -0.52819,-2.23382 -0.7207,-2.92383 -0.61574,-2.20569 -2.51477,-9.89506 -3.11328,-11.73242 -0.1173,-0.36022 -0.369,-1.01578 -0.55469,-1.53321 z m 28.54492,0.0742 c -0.17465,0.48778 -0.4175,1.11607 -0.5293,1.45899 -0.59851,1.83736 -2.49754,9.52869 -3.11328,11.73437 -0.187,0.66931 -0.43637,1.69376 -0.69726,2.81446 0.63658,-2.55382 1.40571,-5.42837 1.89648,-7.11328 0.56411,-1.93624 1.5901,-5.92955 2.44336,-8.89454 z"
                     style="fill:#87aade;fill-opacity:1" />
                </g>
              </g>
              <path
                 sodipodi:nodetypes="cccccccsccccccccccsccccccccscccccsccccccccccccsccccccccccccccccccccccccccccscccccccccccccccccccccccscccccccccccccccccccccccccccsccccccccccccccccccccccccccccsccccccccccccccccccccccccssccccccccccccccsscccccsscscccscccssccccccccccccccccccscccccccccsccccccccccccccccccccccccccccccccccccccccsccscsccccccccccccsccccccscccccccccccccccccccscccccccscccsscccccccccccccccscccccsscscccscccssccccccccccccccccccccccccccccscccccccccccccccccccccccccsccccccccccccccsccscsccccscccccccsccccccccccccccccccc"
                 inkscape:connector-curvature="0"
                 d="m 363.81649,588.38405 c -0.0571,-0.16374 -0.19451,-0.49031 -0.27552,-0.6087 -0.081,-0.11839 -0.23905,-0.3213 -0.32415,-0.38886 -0.0851,-0.0676 -0.1378,-0.10988 -0.18643,-0.0676 -0.0486,0.0422 -0.0243,0.16059 0.0405,0.27056 0.0649,0.10987 0.40526,0.79466 0.45388,0.93 0.0486,0.13524 0.15394,0.75247 0.11349,0.90464 -0.0405,0.15218 -0.17019,0.50725 -0.27552,0.62565 -0.10532,0.11839 -0.17019,0.14375 -0.29176,0.21131 -0.12156,0.0676 -0.1378,0.13524 -0.25936,0.10146 -0.12157,-0.0338 -0.23507,-0.10146 -0.29983,-0.13524 -0.0649,-0.0338 -0.14588,-0.093 -0.17827,-0.0423 -0.0324,0.0507 0.0323,0.16059 0.0649,0.21132 0.0324,0.0507 0.081,0.1606 0.0405,0.22827 -0.0405,0.0676 -0.17019,0.26204 -0.2512,0.33813 -0.081,0.0761 -0.40525,0.32971 -0.55113,0.4058 -0.14587,0.0761 -0.56221,0.20888 -0.70507,0.22826 -0.14288,0.0196 -0.35664,0 -0.42957,-0.0507 -0.0729,-0.0507 -0.12361,-0.15218 -0.12361,-0.21985 0,-0.0676 0.0122,-0.23039 0.0364,-0.29806 0.0244,-0.0675 0.0405,-0.17317 0.0385,-0.22613 -0.002,-0.053 -0.0649,-0.093 -0.0972,-0.0507 -0.0324,0.0423 -0.0649,0.16911 -0.073,0.23668 -0.008,0.0677 -0.0405,0.29593 -0.073,0.35508 -0.0324,0.0591 -0.22688,0.26204 -0.33231,0.29593 -0.10533,0.0338 -0.42956,0.1184 -0.59158,0.0845 -0.16212,-0.0338 -0.32414,-0.0761 -0.47003,-0.12681 -0.14588,-0.0507 -0.43764,-0.16912 -0.53489,-0.22825 -0.0972,-0.0591 -0.34845,-0.30436 -0.34845,-0.30436 0,0 -0.073,0.0338 -0.12964,0.0676 -0.0567,0.0338 -0.12156,0.093 -0.14587,0.13523 -0.0244,0.0423 -0.0132,0.11413 -0.0132,0.11413 0,0 -0.12458,0.0634 -0.1489,0.14792 -0.0243,0.0845 -0.0486,0.26205 -0.0243,0.38044 0.0243,0.11839 0.10532,0.36349 0.14588,0.41422 0.0405,0.0507 0.0814,0.11362 0.0814,0.11362 0,0 0.0239,0.27524 0.0725,0.35132 0.0486,0.0761 0.14587,0.26205 0.14587,0.26205 0,0 0.0252,0.19977 0.0775,0.28579 0.0521,0.0863 0.18993,0.25535 0.18993,0.25535 0,0 0.0163,0.1606 0.081,0.25363 0.0649,0.093 0.26745,0.2874 0.26745,0.2874 l 0.1378,0.1184 c 0,0 0.0405,0.10987 0.11349,0.16912 0.073,0.0592 0.27553,0.12681 0.27553,0.12681 0,0 0.0324,0.093 0.0972,0.18596 0.0649,0.093 0.26745,0.30435 0.33231,0.33813 0.0649,0.0338 0.25938,0.0507 0.25938,0.0507 0,0 0.10533,0.10145 0.18642,0.14376 0.081,0.0423 0.28369,0.10987 0.28369,0.10987 0,0 0.12964,0.093 0.20259,0.15217 0.073,0.0591 0.28368,0.12682 0.34038,0.14376 0.0563,0.0171 0.27512,0.0171 0.27512,0.0171 0,0 0.1348,0.0787 0.19451,0.10145 0.0598,0.0227 0.18644,0.0845 0.24313,0.0676 0.0567,-0.017 0.15094,-0.10511 0.15094,-0.10511 0,0 0.10844,0.10511 0.21376,0.139 0.10532,0.0338 0.29176,0.10144 0.41332,0.0591 0.12157,-0.0423 0.23506,-0.10987 0.31607,-0.15218 0.081,-0.0423 0.18643,-0.0761 0.18643,-0.0761 0,0 0.0972,0.0338 0.14588,0.0424 0.0486,0.009 0.18644,0.0591 0.18644,0.0591 0,0 0.0537,0.0835 0.13626,0.15167 0.0825,0.0682 0.18799,0.13573 0.26899,0.17804 0.081,0.0423 0.16213,0.0591 0.23506,0.0676 0.073,0.009 0.15394,0.0254 0.23506,0.0422 0.081,0.017 0.21881,0.0338 0.30799,0.0845 0.0891,0.0507 0.20978,0.13311 0.27503,0.15116 0.0654,0.018 0.21123,0.0349 0.21123,0.0349 l 0.0998,0.0423 c 0,0 -0.0431,-0.65943 -0.10785,-0.9722 -0.0649,-0.31277 -0.23506,-0.95537 -0.32415,-1.25972 -0.089,-0.30434 -0.2755,-1.03987 -0.38093,-1.34422 -0.10533,-0.30434 -0.27551,-0.66784 -0.38901,-0.91305 -0.1135,-0.2452 -0.29982,-0.57492 -0.37276,-0.74393 -0.073,-0.16913 -0.1378,-0.28742 -0.1378,-0.43117 0,-0.14376 0.0323,-0.24521 0.12155,-0.36349 0.0892,-0.1184 0.30801,-0.38044 0.41332,-0.58335 0.10532,-0.20289 0.22691,-0.54956 0.23506,-0.84538 0.008,-0.29583 -0.0326,-0.54987 -0.0975,-0.73583 z m 4.01526,0 c 0.0571,-0.16374 0.1945,-0.49031 0.27551,-0.6087 0.081,-0.11839 0.23905,-0.3213 0.32415,-0.38886 0.0851,-0.0676 0.1378,-0.10988 0.18642,-0.0676 0.0486,0.0421 0.0244,0.16059 -0.0405,0.27056 -0.0649,0.10987 -0.40525,0.79466 -0.45387,0.93 -0.0486,0.13524 -0.15395,0.75247 -0.1135,0.90464 0.0405,0.15218 0.17018,0.50725 0.27551,0.62565 0.10533,0.11839 0.1702,0.14375 0.29176,0.21131 0.12157,0.0676 0.13781,0.13524 0.25937,0.10146 0.12156,-0.0338 0.23507,-0.10146 0.29984,-0.13524 0.0649,-0.0338 0.14587,-0.093 0.17826,-0.0423 0.0323,0.0507 -0.0323,0.16059 -0.0649,0.21132 -0.0323,0.0507 -0.081,0.1606 -0.0405,0.22827 0.0405,0.0676 0.17019,0.26204 0.2512,0.33813 0.081,0.0761 0.40526,0.32971 0.55113,0.4058 0.14588,0.0761 0.56212,0.20888 0.70507,0.22826 0.14297,0.0196 0.35663,0 0.42956,-0.0507 0.073,-0.0507 0.12362,-0.15218 0.12362,-0.21985 0,-0.0676 -0.0122,-0.23039 -0.0364,-0.29806 -0.0244,-0.0675 -0.0406,-0.17317 -0.0385,-0.22613 0.002,-0.053 0.0649,-0.0931 0.0972,-0.0507 0.0324,0.0423 0.0649,0.16911 0.0729,0.23668 0.008,0.0676 0.0405,0.29593 0.073,0.35508 0.0324,0.0591 0.22689,0.26204 0.33231,0.29593 0.10532,0.0338 0.42956,0.1184 0.59158,0.0845 0.16213,-0.0338 0.32415,-0.0761 0.47003,-0.12681 0.14587,-0.0507 0.43763,-0.16912 0.53489,-0.22825 0.0972,-0.0591 0.34846,-0.30436 0.34846,-0.30436 0,0 0.0729,0.0338 0.12963,0.0676 0.0567,0.0338 0.12156,0.093 0.14588,0.13523 0.0244,0.0423 0.0133,0.11413 0.0133,0.11413 0,0 0.12458,0.0634 0.1489,0.14792 0.0244,0.0845 0.0486,0.26205 0.0244,0.38044 -0.0244,0.11839 -0.10531,0.36349 -0.14587,0.41422 -0.0405,0.0507 -0.0815,0.11362 -0.0815,0.11362 0,0 -0.0239,0.27524 -0.0725,0.35132 -0.0486,0.0761 -0.14588,0.26205 -0.14588,0.26205 0,0 -0.0255,0.19977 -0.0775,0.28579 -0.0522,0.0863 -0.18994,0.25535 -0.18994,0.25535 0,0 -0.0163,0.1606 -0.081,0.25363 -0.0649,0.093 -0.26746,0.2874 -0.26746,0.2874 l -0.1378,0.1184 c 0,0 -0.0405,0.10987 -0.11349,0.16912 -0.0729,0.0592 -0.27552,0.12681 -0.27552,0.12681 0,0 -0.0323,0.093 -0.0972,0.18596 -0.0649,0.093 -0.26745,0.30435 -0.33231,0.33813 -0.0649,0.0338 -0.25937,0.0507 -0.25937,0.0507 0,0 -0.10533,0.10145 -0.18643,0.14376 -0.081,0.0422 -0.28369,0.10987 -0.28369,0.10987 0,0 -0.12964,0.093 -0.20258,0.15217 -0.0729,0.0591 -0.28368,0.12682 -0.34038,0.14376 -0.0563,0.0171 -0.27512,0.0171 -0.27512,0.0171 0,0 -0.13471,0.0787 -0.19451,0.10145 -0.0596,0.0227 -0.18643,0.0845 -0.24313,0.0676 -0.0567,-0.017 -0.15094,-0.10511 -0.15094,-0.10511 0,0 -0.10843,0.10511 -0.21376,0.139 -0.10533,0.0338 -0.29175,0.10144 -0.41333,0.0591 -0.12156,-0.0424 -0.23505,-0.10987 -0.31606,-0.15218 -0.081,-0.0422 -0.18643,-0.0761 -0.18643,-0.0761 0,0 -0.0972,0.0338 -0.14588,0.0424 -0.0486,0.009 -0.18643,0.0591 -0.18643,0.0591 0,0 -0.0537,0.0835 -0.13616,0.15167 -0.0826,0.0682 -0.18799,0.13573 -0.2691,0.17804 -0.081,0.0423 -0.16211,0.0591 -0.23505,0.0676 -0.073,0.009 -0.15395,0.0254 -0.23506,0.0423 -0.081,0.017 -0.21882,0.0338 -0.30801,0.0845 -0.0892,0.0507 -0.20968,0.13311 -0.27501,0.15116 -0.0654,0.018 -0.21124,0.0349 -0.21124,0.0349 l -0.0997,0.0423 c 0,0 0.043,-0.65943 0.10775,-0.9722 0.0649,-0.31277 0.23507,-0.95537 0.32415,-1.25972 0.0891,-0.30434 0.27552,-1.03987 0.38093,-1.34422 0.10543,-0.30434 0.27553,-0.66784 0.38902,-0.91305 0.11349,-0.2452 0.29982,-0.57492 0.37277,-0.74393 0.0729,-0.16913 0.1378,-0.28742 0.1378,-0.43118 0,-0.14375 -0.0324,-0.2452 -0.12156,-0.36348 -0.0892,-0.1184 -0.308,-0.38044 -0.41332,-0.58335 -0.10533,-0.20289 -0.2269,-0.54956 -0.23507,-0.84538 -0.008,-0.29624 0.0326,-0.54987 0.0976,-0.73583 z m -1.9647,12.74679 -0.0486,-24.29947 c 0,0 -0.13372,-0.057 -0.14587,-0.18383 -0.0122,-0.12681 -0.0183,-0.69108 -0.0303,-0.86233 -0.0121,-0.17124 0.0183,-0.69108 -0.0183,-0.84326 -0.0365,-0.15217 -0.0972,-0.49457 -0.13372,-0.62138 -0.0364,-0.12682 -0.15804,-0.36775 -0.23098,-0.48188 -0.0729,-0.11414 -0.2614,-0.279 -0.36469,-0.35509 -0.10329,-0.0761 -0.33434,-0.16486 -0.45591,-0.14588 -0.12157,0.0189 -0.41332,0.1331 -0.52273,0.17124 -0.10941,0.0381 -0.68681,0.18384 -0.87528,0.22827 -0.18847,0.0444 -0.72336,0.1966 -0.86923,0.24734 -0.1459,0.0507 -0.49844,0.19661 -0.59569,0.2727 -0.0972,0.0761 -0.30391,0.29167 -0.37073,0.41848 -0.0668,0.12681 -0.0972,0.32342 -0.10328,0.4692 -0.006,0.1458 0.006,0.45024 0.0486,0.57706 0.0426,0.12681 0.1276,0.39951 0.14588,0.51355 0.0183,0.11401 0.0183,0.36135 -0.0122,0.41209 -0.0304,0.0507 -0.0912,0.10773 -0.15192,0.0507 -0.0607,-0.057 -0.073,-0.15845 -0.073,-0.27898 0,-0.12052 -0.0243,-0.38044 -0.0243,-0.50097 0,-0.12052 -0.006,-0.4692 -0.0243,-0.57705 -0.0183,-0.10784 -0.1276,-0.33601 -0.19451,-0.41209 -0.0669,-0.0761 -0.25529,-0.17754 -0.37685,-0.16485 -0.12157,0.0127 -0.35254,0.0824 -0.44979,0.19661 -0.0972,0.11423 -0.18236,0.28527 -0.32823,0.38672 -0.14588,0.10146 -0.55317,0.42488 -0.70507,0.53262 -0.15192,0.10775 -0.4073,0.35508 -0.45593,0.48819 -0.0486,0.1331 -0.0669,0.36136 -0.0364,0.46281 0.0304,0.10145 0.16417,0.37415 0.21882,0.47561 0.0547,0.10144 0.1519,0.45651 0.15804,0.56426 0.006,0.10774 0.006,0.336 0.0426,0.41848 0.0365,0.0824 0.17623,0.23456 0.17623,0.23456 0,0 -0.0669,-0.006 -0.13986,0.006 -0.0729,0.0126 -0.24926,0.11425 -0.24926,0.11425 0,0 0.0486,-0.11414 0.0789,-0.18384 0.0303,-0.0697 0.0851,-0.26631 0.0851,-0.38674 0,-0.12041 -0.0303,-0.4058 -0.0972,-0.55797 -0.0669,-0.15218 -0.24313,-0.4058 -0.3221,-0.48188 -0.0789,-0.0761 -0.26744,-0.17126 -0.38901,-0.16486 -0.12156,0.007 -0.27959,0.0761 -0.44979,0.22825 -0.1702,0.15218 -0.48023,0.41849 -0.57136,0.57705 -0.0911,0.15858 -0.19451,0.36776 -0.19451,0.44386 0,0.0761 0.0789,0.29806 0.0789,0.39312 0,0.095 -0.0122,0.25362 -0.11552,0.28528 -0.10338,0.0316 -0.28574,0.038 -0.39505,0.038 -0.10932,0 -0.27959,0.057 -0.35866,0.17753 -0.079,0.12053 -0.22485,0.4058 -0.21882,0.55799 0.006,0.15217 0.0547,0.38043 0.10941,0.45023 0.0548,0.0698 0.26141,0.2029 0.34641,0.2029 0.085,0 0.34038,-0.038 0.43161,-0.0254 0.0912,0.0127 0.16415,0.0127 0.18847,0.0507 0.0243,0.038 0.0303,0.12682 -0.0303,0.14589 -0.0607,0.019 -0.15803,-0.0316 -0.24313,-0.057 -0.0851,-0.0254 -0.31004,-0.0951 -0.44979,-0.0761 -0.13975,0.019 -0.31607,0.0951 -0.4316,0.19022 -0.11553,0.095 -0.23097,0.29166 -0.35867,0.53261 -0.12769,0.24095 -0.27961,0.67211 -0.32823,0.8179 -0.0486,0.14578 -0.15803,0.45653 -0.17622,0.59602 -0.0182,0.1395 -0.073,0.57705 -0.0789,0.69108 -0.006,0.11413 -0.0243,0.50726 0.006,0.58963 0.0303,0.0823 0.0669,0.24084 0.13985,0.29157 0.073,0.0507 0.19451,0.14588 0.2796,0.17126 0.0851,0.0254 0.69907,-0.0444 0.82062,-0.0698 0.12157,-0.0254 0.72337,-0.13949 0.85096,-0.16484 0.12759,-0.0254 1.04546,-0.22198 1.04546,-0.22198 0,0 0.22485,-0.0951 0.34038,-0.2727 0.11554,-0.17754 0.18236,-0.42487 0.1702,-0.52632 -0.0122,-0.10145 -0.0851,-0.18383 -0.1702,-0.24095 -0.0851,-0.0571 -0.12156,-0.0888 -0.14587,-0.1331 -0.0243,-0.0443 0,-0.10774 0.0912,-0.11413 0.0912,-0.007 0.34038,-0.038 0.40116,-0.0761 0.0608,-0.038 0.15191,-0.10145 0.15191,-0.10145 0,0 -0.15191,0.17754 -0.19451,0.31703 -0.0426,0.13949 -0.0912,0.46921 -0.10941,0.60241 -0.0182,0.13321 -0.0789,0.53891 -0.0669,0.64675 0.0121,0.10784 0.0253,0.36563 0.10377,0.45865 0.0785,0.093 0.29127,0.27058 0.36421,0.3213 0.073,0.0507 0.26142,0.20919 0.26142,0.20919 l 0.13985,0.1459 c 0,0 -0.12156,-0.0444 -0.2128,-0.019 -0.0912,0.0254 -0.13372,0.0317 -0.20665,0.0824 -0.0729,0.0507 -0.21882,0.1966 -0.21882,0.1966 0,0 0.17622,-0.23455 0.17622,-0.31703 0,-0.0824 -0.0303,-0.23455 -0.0912,-0.32971 -0.0609,-0.0951 -0.26743,-0.32972 -0.33435,-0.43746 -0.0669,-0.10773 -0.13984,-0.2727 -0.20666,-0.336 -0.0668,-0.0632 -0.15803,-0.0951 -0.34642,-0.0316 -0.18837,0.0635 -1.1853,0.22825 -1.1853,0.22825 l -0.8387,0.16467 c 0,0 -0.4073,0.038 -0.51058,0.0761 -0.10329,0.038 -0.39503,0.17125 -0.48023,0.29806 -0.0852,0.12682 -0.21882,0.46922 -0.22485,0.63407 -0.006,0.16486 0.0628,0.63823 0.08,0.77244 0.0173,0.13423 0.12061,0.45125 0.16922,0.54003 0.0486,0.0888 0.1519,0.32322 0.18839,0.41837 0.0364,0.0951 0.0851,0.29168 0.12759,0.38674 0.0425,0.0951 0.24313,0.47559 0.30391,0.55168 0.0608,0.0761 0.27348,0.38674 0.36469,0.46282 0.0912,0.0761 0.34641,0.22198 0.43764,0.24094 0.0912,0.019 0.49228,0.0634 0.57749,0.0444 0.0852,-0.0189 0.1945,-0.0698 0.27348,-0.15219 0.0789,-0.0824 0.15199,-0.21557 0.15199,-0.21557 0,0 -0.0183,0.12052 0.0122,0.19021 0.0304,0.0697 0.13984,0.21559 0.13984,0.21559 0,0 -0.0547,-0.019 -0.1519,-0.0316 -0.0972,-0.0127 -0.27346,-0.0127 -0.37071,0.006 -0.0972,0.0189 -0.24313,0.057 -0.32823,0.13949 -0.0851,0.0824 -0.24312,0.30435 -0.28573,0.41209 -0.0426,0.10775 -0.0972,0.35507 -0.0486,0.48818 0.0486,0.1331 0.24916,0.51993 0.34641,0.58964 0.0972,0.0697 0.43764,0.336 0.58351,0.38672 0.14587,0.0507 0.44979,0.14588 0.55317,0.12682 0.10338,-0.019 0.33436,-0.0698 0.40117,-0.10774 0.0668,-0.038 0.19451,-0.1331 0.20667,-0.19662 0.0122,-0.0635 -0.0303,-0.23455 -0.0303,-0.23455 0,0 0.0912,0.0316 0.18235,0.0698 0.0911,0.0381 0.36469,0.0823 0.36469,0.0823 0,0 -0.14588,0.0444 -0.22485,0.0634 -0.0789,0.0189 -0.24916,0.0698 -0.31607,0.10145 -0.0669,0.0316 -0.20053,0.12682 -0.26744,0.2092 -0.0669,0.0823 -0.12759,0.21557 -0.1094,0.28527 0.0182,0.0698 0.12759,0.2029 0.20053,0.25364 0.0729,0.0507 0.54092,0.27898 0.54092,0.27898 0,0 0.52885,0.19022 0.69904,0.19022 0.1702,0 0.56329,-0.1257 0.63721,-0.17064 0.074,-0.045 0.22591,-0.16536 0.25635,-0.2732 0.0304,-0.10775 0.0426,-0.26631 0.0486,-0.34241 0.006,-0.0761 0,-0.1331 0.0364,-0.15846 0.0364,-0.0254 0.12156,-0.0761 0.12156,-0.006 0,0.0698 -0.006,0.19662 -0.0364,0.27899 -0.0304,0.0823 -0.0486,0.2092 -0.0364,0.29806 0.0122,0.0889 0.0851,0.23455 0.1702,0.24733 0.0851,0.0129 0.5835,0.0191 0.80835,-0.10145 0.22484,-0.12051 0.6868,-0.39311 0.80234,-0.50725 0.11554,-0.11413 0.2796,-0.31064 0.29778,-0.3995 0.0182,-0.0889 -0.0426,-0.17126 -0.073,-0.22198 -0.0303,-0.0507 -0.0426,-0.057 -0.0547,-0.10774 -0.0121,-0.0507 -0.0243,-0.12682 0.0547,-0.0951 0.0789,0.0316 0.13372,0.0698 0.21279,0.10773 0.079,0.038 0.37685,0.0824 0.4741,0.0127 0.0972,-0.0697 0.38902,-0.31065 0.4316,-0.44384 0.0426,-0.13321 0.13985,-0.40581 0.13985,-0.5517 0,-0.14588 -0.0122,-0.55168 -0.15803,-0.88141 -0.14589,-0.3297 -0.32823,-0.65942 -0.37073,-0.74819 -0.0425,-0.0888 -0.0972,-0.15846 -0.10941,-0.23455 -0.0122,-0.0761 0.0243,-0.14588 0.1276,-0.0824 0.10328,0.0635 0.32823,0.34241 0.44979,0.52633 0.12157,0.18384 0.30391,0.66572 0.31607,0.82429 0.0122,0.15847 0.006,0.59602 -0.0426,0.76088 -0.0486,0.16486 -0.21279,0.58964 -0.29779,0.69108 -0.085,0.10146 -0.33435,0.42488 -0.37685,0.50096 -0.0425,0.0761 -0.0815,0.21346 -0.0426,0.3424 0.039,0.12895 0.38298,0.85604 0.38298,0.85604 l 0.39504,0.8877 c 0,0 0.21074,0.54317 0.28164,0.75985 0.0709,0.2166 0.29585,1.12327 0.36879,1.38329 0.0729,0.26002 0.22484,0.93213 0.24916,1.20472 0.0243,0.27261 0.10941,1.23648 0.10941,1.23648 l 0.13984,1.70559 0.0547,0.94471 -0.0225,1.16677 m 0.68472,0.024 c 0.0126,-8.33644 0.0317,-15.96556 0.0484,-24.30199 0,0 0.13372,-0.057 0.14588,-0.18383 0.0122,-0.12681 0.0183,-0.69108 0.0303,-0.86233 0.0122,-0.17124 -0.0183,-0.69108 0.0183,-0.84325 0.0365,-0.15218 0.0972,-0.49458 0.13372,-0.62139 0.0364,-0.12682 0.15803,-0.36775 0.23097,-0.48188 0.073,-0.11414 0.26142,-0.27899 0.3647,-0.35509 0.10328,-0.0761 0.33434,-0.16486 0.45592,-0.14588 0.12156,0.0189 0.41332,0.1331 0.52273,0.17124 0.10941,0.0382 0.6868,0.18384 0.87527,0.22827 0.18847,0.0444 0.72336,0.1966 0.86924,0.24734 0.14588,0.0507 0.49842,0.19661 0.59568,0.2727 0.0972,0.0761 0.30391,0.29167 0.37072,0.41848 0.0668,0.12681 0.0972,0.32342 0.10328,0.4692 0.006,0.1458 -0.006,0.45025 -0.0486,0.57706 -0.0426,0.12681 -0.12759,0.39951 -0.14588,0.51355 -0.0183,0.11401 -0.0183,0.36136 0.0122,0.41209 0.0304,0.0507 0.0912,0.10773 0.15191,0.0507 0.0608,-0.057 0.073,-0.15845 0.073,-0.27898 0,-0.12052 0.0243,-0.38044 0.0243,-0.50097 0,-0.12052 0.006,-0.46919 0.0244,-0.57705 0.0183,-0.10784 0.12759,-0.33601 0.19451,-0.41209 0.0669,-0.0761 0.25528,-0.17754 0.37685,-0.16485 0.12156,0.0127 0.35254,0.0824 0.44978,0.19661 0.0972,0.11423 0.18235,0.28528 0.32823,0.38673 0.14587,0.10146 0.55317,0.42487 0.70508,0.53261 0.15191,0.10775 0.4073,0.35508 0.45593,0.48819 0.0486,0.1331 0.0669,0.36136 0.0364,0.46281 -0.0304,0.10145 -0.16416,0.37415 -0.21881,0.47561 -0.0547,0.10144 -0.15191,0.45651 -0.15805,0.56426 -0.006,0.10774 -0.006,0.336 -0.0426,0.41848 -0.0364,0.0824 -0.17622,0.23456 -0.17622,0.23456 0,0 0.0669,-0.006 0.13985,0.006 0.073,0.0126 0.24916,0.11413 0.24916,0.11413 0,0 -0.0486,-0.11413 -0.0789,-0.18384 -0.0303,-0.0697 -0.0851,-0.26631 -0.0851,-0.38672 0,-0.12043 0.0303,-0.4058 0.0972,-0.55798 0.0669,-0.15217 0.24313,-0.4058 0.3221,-0.48188 0.0789,-0.0761 0.26744,-0.17126 0.389,-0.16487 0.12157,0.007 0.2796,0.0761 0.4498,0.22827 0.17018,0.15217 0.48023,0.41848 0.57135,0.57705 0.0911,0.15857 0.19451,0.36776 0.19451,0.44385 0,0.0761 -0.0789,0.29806 -0.0789,0.39312 0,0.095 0.0122,0.25362 0.11553,0.28528 0.10337,0.0316 0.28572,0.038 0.39503,0.038 0.10922,0 0.2796,0.057 0.35867,0.17754 0.079,0.12052 0.22485,0.4058 0.21882,0.55798 -0.006,0.15218 -0.0547,0.38043 -0.10941,0.45023 -0.0548,0.0698 -0.2614,0.2029 -0.34641,0.2029 -0.0849,0 -0.34038,-0.038 -0.43161,-0.0254 -0.0912,0.0127 -0.16415,0.0127 -0.18847,0.0507 -0.0244,0.038 -0.0303,0.12682 0.0303,0.14588 0.0607,0.019 0.15803,-0.0316 0.24313,-0.057 0.0851,-0.0254 0.31004,-0.0951 0.44979,-0.0761 0.13975,0.019 0.31607,0.0951 0.4316,0.19022 0.11554,0.0951 0.23097,0.29167 0.35867,0.53262 0.12769,0.24094 0.2796,0.67211 0.32822,0.81789 0.0486,0.14578 0.15805,0.45653 0.17624,0.59603 0.0182,0.13949 0.073,0.57704 0.0789,0.69107 0.006,0.11393 0.0244,0.50725 -0.006,0.58963 -0.0303,0.0824 -0.0669,0.24094 -0.13985,0.29167 -0.0729,0.0507 -0.1945,0.14588 -0.27959,0.17126 -0.0851,0.0254 -0.69906,-0.0444 -0.82063,-0.0698 -0.12156,-0.0254 -0.72336,-0.1395 -0.85095,-0.16485 -0.1276,-0.0254 -1.04547,-0.22198 -1.04547,-0.22198 0,0 -0.22485,-0.0951 -0.34038,-0.2727 -0.11554,-0.17754 -0.18236,-0.42487 -0.17021,-0.52632 0.0122,-0.10145 0.0851,-0.18383 0.17021,-0.24095 0.0851,-0.0571 0.12156,-0.0888 0.14588,-0.1331 0.0243,-0.0443 0,-0.10774 -0.0912,-0.11413 -0.0912,-0.007 -0.34038,-0.038 -0.40116,-0.0761 -0.0608,-0.038 -0.15191,-0.10145 -0.15191,-0.10145 0,0 0.15191,0.17754 0.1945,0.31703 0.0426,0.13949 0.0912,0.46921 0.10941,0.60241 0.0183,0.13321 0.0789,0.53891 0.0669,0.64675 -0.0121,0.10784 -0.0252,0.36563 -0.10377,0.45866 -0.0784,0.093 -0.29138,0.27057 -0.36432,0.32129 -0.0729,0.0507 -0.2614,0.20919 -0.2614,0.20919 l -0.13985,0.1459 c 0,0 0.12157,-0.0444 0.21279,-0.019 0.0912,0.0254 0.13371,0.0316 0.20664,0.0824 0.073,0.0507 0.21882,0.19661 0.21882,0.19661 0,0 -0.17621,-0.23455 -0.17621,-0.31704 0,-0.0823 0.0303,-0.23456 0.0912,-0.32971 0.0609,-0.0951 0.26745,-0.32971 0.33436,-0.43746 0.0669,-0.10773 0.13985,-0.2727 0.20666,-0.336 0.0668,-0.0634 0.15804,-0.0951 0.34642,-0.0316 0.18837,0.0635 1.18531,0.22826 1.18531,0.22826 l 0.8388,0.16476 c 0,0 0.40729,0.038 0.51058,0.0761 0.10328,0.038 0.39503,0.17125 0.48022,0.29806 0.0852,0.12682 0.21882,0.46922 0.22485,0.63407 0.006,0.16486 -0.0628,0.63823 -0.08,0.77244 -0.0172,0.13423 -0.1206,0.45125 -0.16921,0.54003 -0.0486,0.0888 -0.15191,0.32342 -0.18847,0.41848 -0.0364,0.0951 -0.0851,0.29167 -0.1276,0.38673 -0.0425,0.095 -0.24313,0.4756 -0.30391,0.55169 -0.0608,0.0761 -0.27347,0.38673 -0.3647,0.46281 -0.0912,0.0761 -0.34641,0.22197 -0.43764,0.24095 -0.0912,0.0189 -0.49228,0.0634 -0.57748,0.0444 -0.0851,-0.0191 -0.19451,-0.0698 -0.27348,-0.15218 -0.0789,-0.0824 -0.1519,-0.21559 -0.1519,-0.21559 0,0 0.0183,0.12053 -0.0122,0.19022 -0.0304,0.0697 -0.13984,0.21559 -0.13984,0.21559 0,0 0.0547,-0.0191 0.15191,-0.0316 0.0972,-0.0127 0.27347,-0.0127 0.37072,0.006 0.0972,0.019 0.24313,0.057 0.32822,0.1395 0.0851,0.0824 0.24313,0.30434 0.28573,0.41208 0.0426,0.10775 0.0972,0.35508 0.0486,0.48818 -0.0486,0.1331 -0.24915,0.51993 -0.34641,0.58963 -0.0972,0.0697 -0.43764,0.33601 -0.58351,0.38674 -0.14588,0.0507 -0.44979,0.14588 -0.55318,0.12681 -0.10328,-0.019 -0.33435,-0.0698 -0.40117,-0.10775 -0.0668,-0.038 -0.19451,-0.1331 -0.20666,-0.19661 -0.0122,-0.0635 0.0303,-0.23454 0.0303,-0.23454 0,0 -0.0912,0.0316 -0.18235,0.0698 -0.0911,0.0382 -0.36469,0.0823 -0.36469,0.0823 0,0 0.14587,0.0444 0.22485,0.0634 0.0789,0.0189 0.24915,0.0698 0.31606,0.10145 0.0669,0.0316 0.20054,0.12682 0.26744,0.20921 0.0669,0.0823 0.12759,0.21557 0.10941,0.28527 -0.0183,0.0698 -0.12759,0.20289 -0.20054,0.25363 -0.0729,0.0507 -0.54092,0.27898 -0.54092,0.27898 0,0 -0.52885,0.19022 -0.69904,0.19022 -0.17019,0 -0.56328,-0.1257 -0.6372,-0.17064 -0.074,-0.045 -0.22592,-0.16536 -0.25635,-0.27321 -0.0303,-0.10774 -0.0426,-0.2663 -0.0486,-0.3424 -0.006,-0.0761 0,-0.1331 -0.0364,-0.15846 -0.0364,-0.0254 -0.12157,-0.0761 -0.12157,-0.006 0,0.0698 0.006,0.19662 0.0364,0.27899 0.0304,0.0824 0.0486,0.2092 0.0364,0.29806 -0.0122,0.0889 -0.0851,0.23455 -0.17019,0.24734 -0.0851,0.0129 -0.58351,0.019 -0.80835,-0.10146 -0.22485,-0.12051 -0.68681,-0.3931 -0.80235,-0.50724 -0.11553,-0.11413 -0.27959,-0.31065 -0.29777,-0.39952 -0.0183,-0.0889 0.0426,-0.17125 0.0729,-0.22197 0.0303,-0.0507 0.0426,-0.057 0.0547,-0.10774 0.0121,-0.0507 0.0244,-0.12681 -0.0547,-0.0951 -0.0789,0.0316 -0.13372,0.0698 -0.21279,0.10773 -0.079,0.038 -0.37685,0.0824 -0.47411,0.0127 -0.0972,-0.0697 -0.389,-0.31064 -0.4316,-0.44385 -0.0426,-0.1332 -0.13985,-0.4058 -0.13985,-0.55169 0,-0.14588 0.0122,-0.55168 0.15804,-0.8814 0.14588,-0.32971 0.32822,-0.65942 0.37073,-0.74819 0.0425,-0.0888 0.0972,-0.15847 0.10941,-0.23456 0.0122,-0.0761 -0.0243,-0.14588 -0.1276,-0.0824 -0.10328,0.0635 -0.32823,0.3424 -0.4498,0.52633 -0.12156,0.18383 -0.3039,0.66572 -0.31606,0.82429 -0.0122,0.15846 -0.006,0.59602 0.0426,0.76087 0.0486,0.16486 0.21279,0.58964 0.29779,0.69108 0.085,0.10145 0.33436,0.42489 0.37685,0.50097 0.0425,0.0761 0.0814,0.21345 0.0426,0.34239 -0.0389,0.12895 -0.38298,0.85605 -0.38298,0.85605 l -0.39504,0.88769 c 0,0 -0.21065,0.54316 -0.28164,0.75986 -0.0709,0.2166 -0.29585,1.12326 -0.36879,1.38328 -0.073,0.26002 -0.22485,0.93213 -0.24916,1.20472 -0.0243,0.2726 -0.10941,1.23649 -0.10941,1.23649 l -0.13984,1.70559 -0.0547,0.9447 0.0353,1.16556"
                 style="fill:none;fill-opacity:1;stroke:#87aade;stroke-width:0.35451841;stroke-miterlimit:4;stroke-dasharray:none;stroke-opacity:1"
                 id="path4193" />
            </g>
          </g>
        </g>
        <text
           sodipodi:linespacing="125%"
           id="text4146"
           y="712.0788"
           x="292.25482"
           style="font-style:normal;font-variant:normal;font-weight:normal;font-stretch:normal;font-size:16.24045563px;line-height:125%;font-family:'DejaVu Sans';-inkscape-font-specification:'DejaVu Sans';text-align:start;letter-spacing:0px;word-spacing:0px;writing-mode:lr-tb;text-anchor:start;fill:#87aade;fill-opacity:1;stroke:none;stroke-width:1px;stroke-linecap:butt;stroke-linejoin:miter;stroke-opacity:1"
           xml:space="preserve"><tspan
             id="tspan4152"
             y="712.0788"
             x="292.25482"
             sodipodi:role="line">Center for Open Neuroscience</tspan></text>
      </g>
    </g>
  </g>
  <g
     style="display:none"
     transform="translate(-73.426202,-478.37766)"
     id="g4248"
     inkscape:groupmode="layer"
     inkscape:label="White Logo">
    <g
       id="g4250"
       transform="matrix(2.7103017,0,0,2.7103017,-713.92865,-1129.525)">
      <g
         transform="matrix(3.1146572,0,0,3.1146572,-619.94723,-1266.2756)"
         id="g4252">
        <g
           transform="matrix(1,0,0,1.0048685,-36.605404,86.071029)"
           id="g4254">
          <g
             id="g4256">
            <g
               id="g4258"
               transform="translate(0,-34.30761)"
               style="fill:#87aade;fill-opacity:1" />
          </g>
        </g>
        <g
           id="g4260"
           transform="matrix(1,0,0,1.0048685,0.25451876,39.97149)"
           style="fill:#ffffff;fill-opacity:1">
          <g
             id="g4262"
             style="fill:#ffffff;fill-opacity:1">
            <path
               sodipodi:nodetypes="ccccccccccccccccccccssccsccccccccccccssccccsscscccsccccscccccccccccccsccccccccccccccscccscccccccccccccccccccccsccccccccccccccsccccscccccccccsccscccccccccsccccccccc"
               inkscape:connector-curvature="0"
               d="m 331.57054,588.13346 -2.5e-4,-0.75559 0.0499,-24.87551 c 0,0 0.13723,-0.0584 0.14971,-0.1884 0.0125,-0.12996 0.0188,-0.70826 0.0311,-0.88377 0.0125,-0.1755 -0.0188,-0.70826 0.0188,-0.86422 0.0375,-0.15596 0.0998,-0.50687 0.13723,-0.63683 0.0374,-0.12997 0.16218,-0.3769 0.23703,-0.49387 0.0749,-0.11697 0.26828,-0.28593 0.37427,-0.36391 0.10599,-0.078 0.34312,-0.16896 0.46788,-0.14951 0.12475,0.0194 0.42417,0.13641 0.53645,0.1755 0.11228,0.0391 0.70481,0.1884 0.89823,0.23394 0.19342,0.0455 0.74234,0.2015 0.89205,0.25349 0.1497,0.052 0.51149,0.2015 0.6113,0.27948 0.0998,0.078 0.31189,0.29892 0.38045,0.42889 0.0686,0.12996 0.0998,0.33146 0.10599,0.48087 0.006,0.14941 -0.006,0.46143 -0.0499,0.5914 -0.0437,0.12996 -0.13094,0.40944 -0.14971,0.52631 -0.0188,0.11686 -0.0188,0.37035 0.0125,0.42234 0.0312,0.052 0.0936,0.11042 0.15589,0.052 0.0624,-0.0584 0.0749,-0.1624 0.0749,-0.28592 0,-0.12352 0.0249,-0.3899 0.0249,-0.51342 0,-0.12352 0.006,-0.48087 0.025,-0.5914 0.0188,-0.11052 0.13094,-0.34436 0.19961,-0.42234 0.0687,-0.078 0.26198,-0.18195 0.38674,-0.16895 0.12475,0.013 0.36179,0.0844 0.46159,0.2015 0.0998,0.11707 0.18713,0.29237 0.33684,0.39634 0.1497,0.10398 0.56768,0.43544 0.72358,0.54586 0.15589,0.11042 0.41798,0.3639 0.46788,0.50032 0.0499,0.13641 0.0687,0.37035 0.0374,0.47432 -0.0312,0.10397 -0.16846,0.38345 -0.22455,0.48743 -0.0561,0.10397 -0.1559,0.46787 -0.16219,0.57829 -0.006,0.11042 -0.006,0.34436 -0.0437,0.42889 -0.0374,0.0845 -0.18084,0.24039 -0.18084,0.24039 0,0 0.0687,-0.006 0.14351,0.006 0.0749,0.0129 0.2557,0.11697 0.2557,0.11697 0,0 -0.0499,-0.11697 -0.081,-0.1884 -0.0311,-0.0714 -0.0873,-0.27293 -0.0873,-0.39634 0,-0.12342 0.0311,-0.41589 0.0998,-0.57185 0.0687,-0.15596 0.24951,-0.41589 0.33055,-0.49387 0.081,-0.078 0.27446,-0.17551 0.39921,-0.16896 0.12476,0.007 0.28694,0.078 0.4616,0.23394 0.17465,0.15596 0.49283,0.42889 0.58634,0.5914 0.0935,0.16251 0.19961,0.3769 0.19961,0.45488 0,0.078 -0.081,0.30547 -0.081,0.40289 0,0.0974 0.0125,0.25994 0.11857,0.29238 0.10609,0.0324 0.29322,0.039 0.4054,0.039 0.11208,0 0.28694,0.0584 0.36808,0.18195 0.0811,0.12352 0.23075,0.41589 0.22456,0.57185 -0.006,0.15596 -0.0561,0.3899 -0.11228,0.46143 -0.0562,0.0715 -0.26827,0.20795 -0.3555,0.20795 -0.0871,0 -0.34932,-0.039 -0.44293,-0.026 -0.0936,0.013 -0.16847,0.013 -0.19342,0.052 -0.025,0.039 -0.0311,0.12997 0.0311,0.14951 0.0623,0.0195 0.16218,-0.0324 0.24951,-0.0584 0.0873,-0.026 0.31817,-0.0975 0.46159,-0.078 0.14342,0.0195 0.32436,0.0975 0.44293,0.19495 0.11857,0.0975 0.23703,0.29892 0.36808,0.54586 0.13104,0.24693 0.28693,0.68882 0.33683,0.83823 0.0499,0.1494 0.16219,0.46787 0.18085,0.61084 0.0187,0.14296 0.0749,0.59139 0.081,0.70826 0.006,0.11676 0.025,0.51986 -0.006,0.60429 -0.0311,0.0844 -0.0687,0.24693 -0.14352,0.29892 -0.0748,0.052 -0.1996,0.14951 -0.28693,0.17551 -0.0873,0.026 -0.71739,-0.0455 -0.84215,-0.0715 -0.12475,-0.026 -0.74234,-0.14296 -0.87328,-0.16895 -0.13095,-0.026 -1.0729,-0.22749 -1.0729,-0.22749 0,0 -0.23074,-0.0975 -0.34931,-0.27948 -0.11857,-0.18196 -0.18713,-0.43544 -0.17466,-0.53941 0.0125,-0.10398 0.0873,-0.1884 0.17466,-0.24694 0.0873,-0.0585 0.12476,-0.091 0.14971,-0.13641 0.0249,-0.0454 0,-0.11042 -0.0936,-0.11697 -0.0936,-0.007 -0.34931,-0.039 -0.41169,-0.078 -0.0624,-0.039 -0.15589,-0.10397 -0.15589,-0.10397 0,0 0.15589,0.18195 0.1996,0.32491 0.0437,0.14296 0.0936,0.48088 0.11228,0.61739 0.0188,0.13652 0.081,0.55231 0.0687,0.66283 -0.0124,0.11052 -0.0259,0.37472 -0.10649,0.47006 -0.0805,0.0953 -0.29902,0.2773 -0.37387,0.32928 -0.0748,0.052 -0.26827,0.21439 -0.26827,0.21439 l -0.14352,0.14952 c 0,0 0.12476,-0.0455 0.21837,-0.0195 0.0936,0.026 0.13723,0.0324 0.21208,0.0844 0.0749,0.052 0.22456,0.2015 0.22456,0.2015 0,0 -0.18084,-0.24039 -0.18084,-0.32492 0,-0.0844 0.0311,-0.24039 0.0936,-0.33791 0.0625,-0.0975 0.27447,-0.33791 0.34313,-0.44833 0.0687,-0.11042 0.14352,-0.27948 0.21208,-0.34436 0.0686,-0.065 0.16219,-0.0975 0.35551,-0.0324 0.19332,0.0651 1.21641,0.23394 1.21641,0.23394 l 0.86081,0.16885 c 0,0 0.41797,0.039 0.52397,0.078 0.10599,0.039 0.4054,0.17551 0.49283,0.30547 0.0874,0.12997 0.22456,0.48088 0.23074,0.64983 0.006,0.16896 -0.0645,0.6541 -0.0821,0.79165 -0.0177,0.13756 -0.12376,0.46247 -0.17366,0.55345 -0.0499,0.091 -0.1559,0.33147 -0.19342,0.42889 -0.0374,0.0975 -0.0873,0.29892 -0.13095,0.39634 -0.0436,0.0974 -0.24951,0.48743 -0.31188,0.56541 -0.0624,0.078 -0.28065,0.39634 -0.37427,0.47432 -0.0936,0.078 -0.3555,0.22749 -0.44912,0.24694 -0.0936,0.0194 -0.5052,0.065 -0.59263,0.0455 -0.0873,-0.0196 -0.19961,-0.0715 -0.28065,-0.15596 -0.081,-0.0844 -0.15589,-0.22095 -0.15589,-0.22095 0,0 0.0188,0.12352 -0.0125,0.19495 -0.0312,0.0714 -0.14352,0.22095 -0.14352,0.22095 0,0 0.0561,-0.0196 0.1559,-0.0324 0.0998,-0.013 0.28065,-0.013 0.38045,0.006 0.0998,0.0195 0.24951,0.0584 0.33684,0.14297 0.0873,0.0845 0.24951,0.31191 0.29322,0.42233 0.0437,0.11042 0.0998,0.36391 0.0499,0.50032 -0.0499,0.13641 -0.25569,0.53286 -0.3555,0.60429 -0.0998,0.0714 -0.44912,0.34436 -0.59882,0.39635 -0.14971,0.052 -0.4616,0.14951 -0.56769,0.12996 -0.10599,-0.0195 -0.34312,-0.0715 -0.41169,-0.11042 -0.0686,-0.039 -0.19961,-0.13641 -0.21208,-0.2015 -0.0125,-0.0651 0.0311,-0.24038 0.0311,-0.24038 0,0 -0.0936,0.0324 -0.18713,0.0715 -0.0935,0.0391 -0.37427,0.0844 -0.37427,0.0844 0,0 0.14971,0.0455 0.23075,0.065 0.081,0.0194 0.25569,0.0715 0.32436,0.10397 0.0687,0.0324 0.2058,0.12997 0.27446,0.2144 0.0687,0.0844 0.13094,0.22094 0.11228,0.29237 -0.0188,0.0715 -0.13094,0.20794 -0.2058,0.25993 -0.0748,0.052 -0.55511,0.28592 -0.55511,0.28592 0,0 -0.54273,0.19495 -0.71739,0.19495 -0.17465,0 -0.57806,-0.12882 -0.65391,-0.17488 -0.076,-0.0461 -0.23185,-0.16947 -0.26308,-0.28 -0.0311,-0.11042 -0.0437,-0.27293 -0.0499,-0.35091 -0.006,-0.078 0,-0.13641 -0.0374,-0.1624 -0.0374,-0.026 -0.12476,-0.078 -0.12476,-0.006 0,0.0715 0.006,0.2015 0.0374,0.28593 0.0312,0.0844 0.0499,0.21439 0.0374,0.30547 -0.0125,0.0911 -0.0873,0.24038 -0.17465,0.25349 -0.0873,0.0132 -0.59883,0.0195 -0.82957,-0.10398 -0.23075,-0.12352 -0.70482,-0.40289 -0.82339,-0.51986 -0.11856,-0.11697 -0.28693,-0.31837 -0.30559,-0.40945 -0.0188,-0.0911 0.0437,-0.1755 0.0748,-0.22749 0.0311,-0.052 0.0437,-0.0584 0.0561,-0.11042 0.0124,-0.052 0.025,-0.12996 -0.0561,-0.0975 -0.081,0.0324 -0.13723,0.0715 -0.21837,0.11042 -0.0811,0.0389 -0.38674,0.0844 -0.48655,0.013 -0.0998,-0.0714 -0.39921,-0.31836 -0.44293,-0.45488 -0.0437,-0.13652 -0.14352,-0.41589 -0.14352,-0.56541 0,-0.14951 0.0125,-0.5654 0.16219,-0.90331 0.1497,-0.33791 0.33683,-0.67582 0.38045,-0.7668 0.0436,-0.091 0.0998,-0.16241 0.11228,-0.24039 0.0125,-0.078 -0.0249,-0.14951 -0.13094,-0.0844 -0.106,0.0651 -0.33684,0.35091 -0.4616,0.53941 -0.12475,0.1884 -0.31188,0.68227 -0.32436,0.84478 -0.0125,0.1624 -0.006,0.61084 0.0437,0.77979 0.0499,0.16896 0.21837,0.6043 0.3056,0.70827 0.0872,0.10397 0.34313,0.43544 0.38674,0.51342 0.0436,0.078 0.0836,0.21875 0.0437,0.3509 -0.0399,0.13215 -0.39303,0.87733 -0.39303,0.87733 l -0.4054,0.90976 c 0,0 -0.21618,0.55667 -0.28904,0.77876 -0.0728,0.22198 -0.3036,1.15118 -0.37845,1.41767 -0.0749,0.26648 -0.23075,0.9553 -0.2557,1.23467 -0.0249,0.27938 -0.11228,1.26723 -0.11228,1.26723 l -0.14352,1.74799 -0.0561,0.96819 0.0362,1.91945"
               id="path4264"
               style="opacity:0.98000004;fill:#ffffff;fill-opacity:0;stroke:#87aade;stroke-width:0.1;stroke-miterlimit:4;stroke-dasharray:none;stroke-opacity:1" />
            <path
               inkscape:connector-curvature="0"
               d="m 333.67456,574.34227 c 0.0586,-0.16781 0.1996,-0.5025 0.28274,-0.62384 0.0831,-0.12133 0.24532,-0.32928 0.33265,-0.39852 0.0873,-0.0693 0.14142,-0.11261 0.19132,-0.0693 0.0499,0.0432 0.025,0.16458 -0.0416,0.27729 -0.0666,0.1126 -0.41588,0.81442 -0.46578,0.95312 -0.0499,0.1386 -0.15799,0.77117 -0.11647,0.92713 0.0416,0.15596 0.17465,0.51986 0.28274,0.6412 0.10809,0.12133 0.17466,0.14733 0.29941,0.21657 0.12476,0.0693 0.14143,0.1386 0.26618,0.10398 0.12475,-0.0346 0.24123,-0.10398 0.3077,-0.1386 0.0666,-0.0346 0.1497,-0.0953 0.18294,-0.0434 0.0332,0.052 -0.0332,0.16459 -0.0666,0.21658 -0.0332,0.052 -0.0831,0.16459 -0.0416,0.23394 0.0416,0.0693 0.17466,0.26856 0.25779,0.34654 0.0831,0.078 0.41589,0.33791 0.56559,0.41589 0.14971,0.078 0.57687,0.21408 0.72358,0.23394 0.14671,0.0201 0.36598,0 0.44083,-0.052 0.0749,-0.052 0.12685,-0.15596 0.12685,-0.22531 0,-0.0693 -0.0125,-0.23612 -0.0374,-0.30547 -0.025,-0.0692 -0.0417,-0.17748 -0.0395,-0.23175 0.002,-0.0543 0.0666,-0.0954 0.0998,-0.052 0.0332,0.0434 0.0666,0.17332 0.0748,0.24257 0.008,0.0693 0.0416,0.30329 0.0749,0.3639 0.0332,0.0606 0.23284,0.26857 0.34103,0.30329 0.10808,0.0346 0.44083,0.12134 0.6071,0.0866 0.16638,-0.0346 0.33265,-0.078 0.48236,-0.12996 0.1497,-0.052 0.44911,-0.17333 0.54892,-0.23394 0.0998,-0.0606 0.3576,-0.31192 0.3576,-0.31192 0,0 0.0748,0.0346 0.13303,0.0693 0.0582,0.0346 0.12476,0.0953 0.14971,0.13859 0.025,0.0434 0.0136,0.11697 0.0136,0.11697 0,0 0.12785,0.065 0.1528,0.1516 0.025,0.0866 0.0499,0.26856 0.025,0.38989 -0.025,0.12134 -0.10808,0.37254 -0.1497,0.42452 -0.0416,0.052 -0.0837,0.11645 -0.0837,0.11645 0,0 -0.0245,0.28208 -0.0744,0.36006 -0.0499,0.078 -0.14971,0.26856 -0.14971,0.26856 0,0 -0.0262,0.20473 -0.0795,0.2929 -0.0536,0.0884 -0.19492,0.2617 -0.19492,0.2617 0,0 -0.0167,0.16458 -0.0831,0.25993 -0.0666,0.0953 -0.27447,0.29455 -0.27447,0.29455 l -0.14142,0.12134 c 0,0 -0.0416,0.1126 -0.11647,0.17332 -0.0748,0.0607 -0.28274,0.12997 -0.28274,0.12997 0,0 -0.0332,0.0953 -0.0998,0.19058 -0.0666,0.0953 -0.27446,0.31192 -0.34103,0.34654 -0.0666,0.0346 -0.26617,0.052 -0.26617,0.052 0,0 -0.10809,0.10397 -0.19133,0.14733 -0.0831,0.0433 -0.29113,0.1126 -0.29113,0.1126 0,0 -0.13304,0.0953 -0.20789,0.15596 -0.0748,0.0606 -0.29113,0.12997 -0.34931,0.14733 -0.0578,0.0175 -0.28235,0.0175 -0.28235,0.0175 0,0 -0.13823,0.0807 -0.19961,0.10397 -0.0612,0.0233 -0.19132,0.0866 -0.24951,0.0693 -0.0582,-0.0174 -0.15489,-0.10772 -0.15489,-0.10772 0,0 -0.11128,0.10772 -0.21937,0.14245 -0.10809,0.0346 -0.29941,0.10397 -0.42417,0.0606 -0.12475,-0.0434 -0.24122,-0.1126 -0.32436,-0.15596 -0.0831,-0.0433 -0.19132,-0.078 -0.19132,-0.078 0,0 -0.0998,0.0346 -0.14971,0.0434 -0.0499,0.009 -0.19132,0.0606 -0.19132,0.0606 0,0 -0.0551,0.0856 -0.13973,0.15544 -0.0848,0.0699 -0.19292,0.13911 -0.27616,0.18247 -0.0831,0.0434 -0.16637,0.0606 -0.24122,0.0693 -0.0749,0.009 -0.15799,0.026 -0.24123,0.0434 -0.0831,0.0174 -0.22456,0.0346 -0.31608,0.0866 -0.0915,0.052 -0.21518,0.13642 -0.28224,0.15492 -0.0671,0.0184 -0.21678,0.0358 -0.21678,0.0358 l -0.1023,0.0434 c 0,0 0.0441,-0.67583 0.11058,-0.99637 0.0666,-0.32055 0.24123,-0.97912 0.33265,-1.29104 0.0915,-0.31191 0.28275,-1.06572 0.39093,-1.37764 0.10819,-0.31191 0.28275,-0.68445 0.39922,-0.93575 0.11647,-0.2513 0.30769,-0.58922 0.38255,-0.76243 0.0748,-0.17333 0.14142,-0.29456 0.14142,-0.44189 0,-0.14733 -0.0332,-0.2513 -0.12475,-0.37253 -0.0915,-0.12134 -0.31608,-0.3899 -0.42417,-0.59785 -0.10809,-0.20794 -0.23284,-0.56322 -0.24123,-0.8664 -0.008,-0.3036 0.0335,-0.56354 0.10011,-0.75412 z"
               id="path4266"
               style="fill:#ffffff;fill-opacity:0;stroke:#ffffff;stroke-width:0.1;stroke-miterlimit:4;stroke-dasharray:none;stroke-opacity:1" />
            <path
               sodipodi:nodetypes="cccccccccccccccccccssccsccccccccccccssccccsscscccsccccscssccccccccccsccccccccccccccscccsccscccccccccccccccccccccccccccccccccscccssccccsccccsscscccccccccsccccccccc"
               style="opacity:0.98000004;fill:#ffffff;fill-opacity:0;stroke:#ffffff;stroke-width:0.1;stroke-miterlimit:4;stroke-dasharray:none;stroke-opacity:1"
               id="path4268"
               d="m 331.65832,588.13088 -0.0499,-25.62852 c 0,0 -0.13723,-0.0584 -0.1497,-0.1884 -0.0125,-0.12996 -0.0188,-0.70826 -0.0311,-0.88377 -0.0124,-0.1755 0.0188,-0.70826 -0.0188,-0.86422 -0.0375,-0.15596 -0.0998,-0.50687 -0.13723,-0.63683 -0.0374,-0.12997 -0.16219,-0.3769 -0.23704,-0.49387 -0.0748,-0.11697 -0.26827,-0.28593 -0.37426,-0.36391 -0.106,-0.078 -0.34313,-0.16896 -0.46788,-0.14951 -0.12476,0.0194 -0.42417,0.13641 -0.53645,0.1755 -0.11228,0.0391 -0.70482,0.1884 -0.89824,0.23394 -0.19342,0.0455 -0.74234,0.2015 -0.89204,0.25349 -0.14971,0.052 -0.5115,0.2015 -0.6113,0.27948 -0.0998,0.078 -0.31189,0.29892 -0.38046,0.42889 -0.0686,0.12996 -0.0998,0.33146 -0.10599,0.48087 -0.006,0.14941 0.006,0.46143 0.0499,0.5914 0.0437,0.12996 0.13095,0.40944 0.14971,0.52631 0.0188,0.11686 0.0188,0.37035 -0.0125,0.42234 -0.0312,0.052 -0.0936,0.11042 -0.1559,0.052 -0.0623,-0.0584 -0.0749,-0.1624 -0.0749,-0.28592 0,-0.12352 -0.0249,-0.3899 -0.0249,-0.51342 0,-0.12352 -0.006,-0.48087 -0.0249,-0.5914 -0.0188,-0.11052 -0.13095,-0.34436 -0.19961,-0.42234 -0.0687,-0.078 -0.26199,-0.18195 -0.38674,-0.16895 -0.12476,0.013 -0.36179,0.0844 -0.4616,0.2015 -0.0998,0.11707 -0.18713,0.29237 -0.33683,0.39634 -0.14971,0.10398 -0.56769,0.43544 -0.72358,0.54586 -0.1559,0.11042 -0.41798,0.3639 -0.46788,0.50032 -0.0499,0.13641 -0.0687,0.37035 -0.0374,0.47432 0.0312,0.10397 0.16847,0.38345 0.22456,0.48743 0.0561,0.10397 0.15589,0.46787 0.16218,0.57829 0.006,0.11042 0.006,0.34436 0.0437,0.42889 0.0375,0.0845 0.18085,0.24039 0.18085,0.24039 0,0 -0.0687,-0.006 -0.14352,0.006 -0.0748,0.0129 -0.2558,0.11708 -0.2558,0.11708 0,0 0.0499,-0.11697 0.081,-0.1884 0.0311,-0.0714 0.0873,-0.27293 0.0873,-0.39635 0,-0.12341 -0.0311,-0.41589 -0.0998,-0.57185 -0.0687,-0.15596 -0.24951,-0.41589 -0.33055,-0.49387 -0.081,-0.078 -0.27446,-0.17551 -0.39922,-0.16895 -0.12475,0.007 -0.28693,0.078 -0.46159,0.23393 -0.17466,0.15596 -0.49283,0.42889 -0.58635,0.5914 -0.0935,0.16251 -0.19961,0.3769 -0.19961,0.45488 0,0.078 0.081,0.30548 0.081,0.4029 0,0.0974 -0.0125,0.25993 -0.11856,0.29237 -0.10609,0.0324 -0.29323,0.039 -0.40541,0.039 -0.11218,0 -0.28693,0.0584 -0.36807,0.18195 -0.0811,0.12352 -0.23075,0.41589 -0.22456,0.57185 0.006,0.15596 0.0561,0.3899 0.11228,0.46143 0.0562,0.0715 0.26827,0.20795 0.3555,0.20795 0.0872,0 0.34931,-0.039 0.44293,-0.026 0.0936,0.013 0.16847,0.013 0.19342,0.052 0.0249,0.039 0.0311,0.12997 -0.0311,0.14952 -0.0623,0.0195 -0.16218,-0.0324 -0.24951,-0.0584 -0.0873,-0.026 -0.31817,-0.0975 -0.46159,-0.078 -0.14342,0.0195 -0.32437,0.0975 -0.44293,0.19495 -0.11857,0.0974 -0.23704,0.29892 -0.36808,0.54586 -0.13104,0.24694 -0.28694,0.68882 -0.33684,0.83823 -0.0499,0.14941 -0.16218,0.46788 -0.18084,0.61084 -0.0187,0.14296 -0.0749,0.5914 -0.081,0.70826 -0.006,0.11697 -0.0249,0.51987 0.006,0.60429 0.0311,0.0844 0.0687,0.24683 0.14352,0.29882 0.0749,0.052 0.19961,0.14951 0.28694,0.17551 0.0873,0.026 0.71739,-0.0455 0.84214,-0.0715 0.12476,-0.026 0.74235,-0.14296 0.87329,-0.16895 0.13094,-0.026 1.07289,-0.22749 1.07289,-0.22749 0,0 0.23075,-0.0975 0.34931,-0.27948 0.11857,-0.18196 0.18714,-0.43544 0.17466,-0.53941 -0.0125,-0.10398 -0.0873,-0.1884 -0.17466,-0.24694 -0.0873,-0.0585 -0.12475,-0.091 -0.1497,-0.13641 -0.0249,-0.0454 0,-0.11042 0.0936,-0.11697 0.0936,-0.007 0.34931,-0.039 0.41169,-0.078 0.0624,-0.039 0.15589,-0.10397 0.15589,-0.10397 0,0 -0.15589,0.18195 -0.19961,0.32491 -0.0437,0.14296 -0.0936,0.48088 -0.11228,0.61739 -0.0187,0.13652 -0.081,0.55231 -0.0687,0.66283 0.0124,0.11052 0.026,0.37472 0.10649,0.47006 0.0806,0.0953 0.29891,0.2773 0.37376,0.32928 0.0749,0.052 0.26828,0.21439 0.26828,0.21439 l 0.14352,0.14952 c 0,0 -0.12476,-0.0455 -0.21838,-0.0195 -0.0936,0.026 -0.13723,0.0325 -0.21208,0.0845 -0.0748,0.052 -0.22456,0.2015 -0.22456,0.2015 0,0 0.18085,-0.24039 0.18085,-0.32492 0,-0.0845 -0.0311,-0.24038 -0.0936,-0.33791 -0.0625,-0.0975 -0.27446,-0.33791 -0.34313,-0.44833 -0.0687,-0.11042 -0.14351,-0.27948 -0.21208,-0.34436 -0.0686,-0.0648 -0.16218,-0.0975 -0.3555,-0.0324 -0.19332,0.0651 -1.21641,0.23394 -1.21641,0.23394 l -0.86071,0.16875 c 0,0 -0.41798,0.039 -0.52397,0.078 -0.10599,0.039 -0.4054,0.17551 -0.49283,0.30547 -0.0874,0.12997 -0.22456,0.48088 -0.23075,0.64983 -0.006,0.16896 0.0645,0.6541 0.0821,0.79165 0.0177,0.13756 0.12376,0.46247 0.17366,0.55345 0.0499,0.091 0.15589,0.33126 0.19332,0.42878 0.0374,0.0975 0.0873,0.29893 0.13094,0.39635 0.0436,0.0975 0.24951,0.48742 0.31189,0.5654 0.0624,0.078 0.28065,0.39635 0.37426,0.47433 0.0936,0.078 0.3555,0.22749 0.44912,0.24693 0.0936,0.0195 0.50521,0.065 0.59264,0.0455 0.0874,-0.0194 0.1996,-0.0715 0.28065,-0.15596 0.081,-0.0844 0.15599,-0.22094 0.15599,-0.22094 0,0 -0.0188,0.12352 0.0125,0.19495 0.0312,0.0714 0.14352,0.22094 0.14352,0.22094 0,0 -0.0561,-0.0195 -0.15589,-0.0324 -0.0998,-0.013 -0.28065,-0.013 -0.38045,0.006 -0.0998,0.0194 -0.24951,0.0584 -0.33684,0.14296 -0.0873,0.0845 -0.24951,0.31192 -0.29323,0.42234 -0.0437,0.11042 -0.0998,0.3639 -0.0499,0.50032 0.0499,0.13641 0.2557,0.53286 0.3555,0.60429 0.0998,0.0714 0.44912,0.34436 0.59883,0.39634 0.1497,0.052 0.46159,0.14951 0.56768,0.12997 0.10609,-0.0195 0.34313,-0.0715 0.41169,-0.11042 0.0686,-0.039 0.19961,-0.13641 0.21209,-0.2015 0.0125,-0.0651 -0.0311,-0.24039 -0.0311,-0.24039 0,0 0.0936,0.0324 0.18713,0.0715 0.0935,0.0391 0.37427,0.0844 0.37427,0.0844 0,0 -0.14971,0.0455 -0.23075,0.065 -0.081,0.0194 -0.2557,0.0715 -0.32436,0.10397 -0.0687,0.0324 -0.2058,0.12997 -0.27447,0.21439 -0.0687,0.0844 -0.13094,0.22094 -0.11227,0.29237 0.0187,0.0715 0.13094,0.20795 0.20579,0.25994 0.0748,0.052 0.55511,0.28592 0.55511,0.28592 0,0 0.54273,0.19495 0.71739,0.19495 0.17466,0 0.57807,-0.12882 0.65392,-0.17488 0.0759,-0.0461 0.23184,-0.16948 0.26308,-0.28 0.0312,-0.11042 0.0437,-0.27293 0.0499,-0.35091 0.006,-0.078 0,-0.13641 0.0374,-0.16241 0.0374,-0.026 0.12475,-0.078 0.12475,-0.006 0,0.0715 -0.006,0.2015 -0.0374,0.28592 -0.0312,0.0844 -0.0499,0.2144 -0.0374,0.30548 0.0125,0.0911 0.0873,0.24038 0.17466,0.25348 0.0873,0.0132 0.59882,0.0196 0.82957,-0.10397 0.23074,-0.12352 0.70481,-0.4029 0.82338,-0.51987 0.11857,-0.11697 0.28694,-0.31836 0.3056,-0.40944 0.0187,-0.0911 -0.0437,-0.17551 -0.0749,-0.22749 -0.0311,-0.052 -0.0437,-0.0584 -0.0561,-0.11042 -0.0124,-0.052 -0.0249,-0.12997 0.0561,-0.0975 0.081,0.0324 0.13723,0.0715 0.21837,0.11042 0.0811,0.0389 0.38674,0.0844 0.48654,0.013 0.0998,-0.0714 0.39922,-0.31837 0.44293,-0.45488 0.0437,-0.13652 0.14352,-0.4159 0.14352,-0.56541 0,-0.14951 -0.0125,-0.5654 -0.16218,-0.90332 -0.14971,-0.33791 -0.33684,-0.67582 -0.38045,-0.7668 -0.0436,-0.091 -0.0998,-0.1624 -0.11228,-0.24038 -0.0125,-0.078 0.0249,-0.14951 0.13094,-0.0844 0.10599,0.0651 0.33684,0.35091 0.46159,0.53941 0.12476,0.1884 0.31189,0.68227 0.32437,0.84478 0.0125,0.16241 0.006,0.61084 -0.0437,0.7798 -0.0499,0.16896 -0.21837,0.60429 -0.3056,0.70826 -0.0872,0.10398 -0.34312,0.43544 -0.38674,0.51342 -0.0436,0.078 -0.0837,0.21876 -0.0437,0.35091 0.04,0.13215 0.39303,0.87732 0.39303,0.87732 l 0.4054,0.90977 c 0,0 0.21627,0.55667 0.28903,0.77875 0.0728,0.22198 0.30361,1.15119 0.37846,1.41767 0.0748,0.26649 0.23074,0.95531 0.2557,1.23468 0.0249,0.27938 0.11228,1.26722 0.11228,1.26722 l 0.14351,1.74799 0.0561,0.9682 -0.0231,1.92069"
               inkscape:connector-curvature="0" />
            <path
               style="fill:#ffffff;fill-opacity:0;stroke:#ffffff;stroke-width:0.1;stroke-miterlimit:4;stroke-dasharray:none;stroke-opacity:1"
               id="path4270"
               d="m 329.55395,574.34227 c -0.0586,-0.16781 -0.19961,-0.5025 -0.28274,-0.62384 -0.0831,-0.12133 -0.24532,-0.32928 -0.33265,-0.39852 -0.0873,-0.0693 -0.14142,-0.11261 -0.19133,-0.0693 -0.0499,0.0433 -0.0249,0.16458 0.0416,0.27729 0.0666,0.1126 0.41589,0.81442 0.46579,0.95312 0.0499,0.1386 0.15799,0.77117 0.11647,0.92713 -0.0416,0.15596 -0.17466,0.51986 -0.28275,0.6412 -0.10808,0.12133 -0.17465,0.14733 -0.29941,0.21657 -0.12475,0.0693 -0.14142,0.1386 -0.26617,0.10398 -0.12476,-0.0346 -0.24123,-0.10398 -0.3077,-0.1386 -0.0666,-0.0346 -0.14971,-0.0953 -0.18294,-0.0434 -0.0332,0.052 0.0332,0.16459 0.0666,0.21658 0.0332,0.052 0.0831,0.16459 0.0416,0.23394 -0.0416,0.0693 -0.17466,0.26856 -0.2578,0.34654 -0.0831,0.078 -0.41588,0.33791 -0.56559,0.41589 -0.1497,0.078 -0.57696,0.21408 -0.72357,0.23394 -0.14662,0.0201 -0.36599,0 -0.44084,-0.052 -0.0748,-0.052 -0.12685,-0.15596 -0.12685,-0.22531 0,-0.0693 0.0125,-0.23612 0.0374,-0.30547 0.025,-0.0692 0.0416,-0.17748 0.0395,-0.23175 -0.002,-0.0543 -0.0666,-0.0953 -0.0998,-0.052 -0.0332,0.0434 -0.0666,0.17332 -0.0749,0.24257 -0.008,0.0694 -0.0416,0.30329 -0.0749,0.3639 -0.0332,0.0606 -0.23284,0.26857 -0.34103,0.30329 -0.10809,0.0346 -0.44083,0.12134 -0.60711,0.0866 -0.16637,-0.0346 -0.33264,-0.078 -0.48235,-0.12996 -0.14971,-0.052 -0.44912,-0.17333 -0.54892,-0.23394 -0.0998,-0.0606 -0.3576,-0.31192 -0.3576,-0.31192 0,0 -0.0749,0.0346 -0.13304,0.0693 -0.0582,0.0346 -0.12475,0.0953 -0.1497,0.13859 -0.025,0.0434 -0.0135,0.11697 -0.0135,0.11697 0,0 -0.12785,0.065 -0.1528,0.1516 -0.0249,0.0866 -0.0499,0.26856 -0.0249,0.38989 0.0249,0.12134 0.10809,0.37254 0.14971,0.42452 0.0416,0.052 0.0836,0.11645 0.0836,0.11645 0,0 0.0245,0.28208 0.0744,0.36006 0.0499,0.078 0.1497,0.26856 0.1497,0.26856 0,0 0.0259,0.20473 0.0795,0.2929 0.0535,0.0884 0.19491,0.2617 0.19491,0.2617 0,0 0.0167,0.16458 0.0831,0.25993 0.0666,0.0953 0.27446,0.29455 0.27446,0.29455 l 0.14142,0.12134 c 0,0 0.0416,0.1126 0.11647,0.17332 0.0749,0.0607 0.28275,0.12997 0.28275,0.12997 0,0 0.0332,0.0953 0.0998,0.19058 0.0666,0.0953 0.27446,0.31192 0.34103,0.34654 0.0666,0.0346 0.26618,0.052 0.26618,0.052 0,0 0.10809,0.10397 0.19132,0.14733 0.0831,0.0434 0.29113,0.1126 0.29113,0.1126 0,0 0.13304,0.0953 0.20789,0.15596 0.0749,0.0606 0.29113,0.12997 0.34932,0.14733 0.0578,0.0175 0.28234,0.0175 0.28234,0.0175 0,0 0.13833,0.0807 0.19961,0.10397 0.0614,0.0233 0.19133,0.0866 0.24951,0.0693 0.0582,-0.0174 0.1549,-0.10772 0.1549,-0.10772 0,0 0.11128,0.10772 0.21937,0.14245 0.10808,0.0346 0.29941,0.10397 0.42416,0.0606 0.12476,-0.0433 0.24123,-0.1126 0.32437,-0.15596 0.0831,-0.0434 0.19132,-0.078 0.19132,-0.078 0,0 0.0998,0.0346 0.14971,0.0434 0.0499,0.009 0.19132,0.0606 0.19132,0.0606 0,0 0.0551,0.0856 0.13983,0.15544 0.0847,0.0699 0.19292,0.13911 0.27605,0.18247 0.0831,0.0433 0.16638,0.0606 0.24123,0.0693 0.0749,0.009 0.15799,0.026 0.24123,0.0433 0.0831,0.0174 0.22455,0.0346 0.31607,0.0866 0.0915,0.052 0.21528,0.13642 0.28225,0.15492 0.0671,0.0184 0.21677,0.0358 0.21677,0.0358 l 0.1024,0.0434 c 0,0 -0.0442,-0.67583 -0.11068,-0.99637 -0.0666,-0.32055 -0.24123,-0.97912 -0.33265,-1.29104 -0.0914,-0.31191 -0.28274,-1.06572 -0.39093,-1.37764 -0.10809,-0.31191 -0.28274,-0.68445 -0.39921,-0.93575 -0.11648,-0.2513 -0.3077,-0.58922 -0.38255,-0.76243 -0.0749,-0.17333 -0.14142,-0.29456 -0.14142,-0.44189 0,-0.14733 0.0332,-0.2513 0.12475,-0.37253 0.0915,-0.12134 0.31608,-0.3899 0.42417,-0.59785 0.10808,-0.20794 0.23284,-0.56322 0.24122,-0.8664 0.008,-0.30319 -0.0335,-0.56354 -0.1001,-0.75412 z"
               inkscape:connector-curvature="0" />
            <g
               style="fill:#ffffff;fill-opacity:1"
               transform="translate(0,-34.30761)"
               id="g4272">
              <g
                 transform="translate(121.05704,82.367963)"
                 style="font-style:normal;font-variant:normal;font-weight:normal;font-stretch:normal;font-size:42.30693817px;line-height:125%;font-family:'DejaVu Sans';-inkscape-font-specification:'DejaVu Sans';text-align:start;letter-spacing:0px;word-spacing:0px;writing-mode:lr-tb;text-anchor:start;fill:#ffffff;fill-opacity:1;stroke:none;stroke-width:1px;stroke-linecap:butt;stroke-linejoin:miter;stroke-opacity:1"
                 id="g4274">
                <path
                   style="fill:#ffffff;fill-opacity:1;stroke:#ffffff;stroke-width:0.11846012;stroke-miterlimit:4;stroke-dasharray:none;stroke-opacity:1"
                   d="m 331.9423,619.03012 c 4.32434,0 7.80064,-1.46969 10.38973,-4.37584 2.5891,-2.92 3.88477,-6.82192 3.88477,-11.70703 0,-4.89895 -1.29567,-8.80284 -3.88477,-11.70899 -2.58909,-2.92 -6.0448,-4.3789 -10.36914,-4.3789 l 0,2e-5 c -4.33811,0 -7.80924,1.4589 -10.41211,4.3789 -2.58909,2.90615 -3.88281,6.81004 -3.88281,11.70899 0,4.89895 1.29372,8.80088 3.88281,11.70703 1.30865,1.44042 2.88977,2.57037 4.54505,3.27773 1.70635,0.70926 3.46125,0.99809 5.1423,1.08089 m 0.002,-4.2e-4 -0.002,10e-4 0.006,-0.002 -0.025,-1.91508 -0.0566,-0.97265 -0.14258,-1.75586 c 0,0 -0.0884,-0.9927 -0.11328,-1.27344 -0.003,-0.0393 -0.0271,-0.12072 -0.0352,-0.17383 0.0365,0.31295 0.0781,0.70899 0.0781,0.70899 l -0.10352,-0.043 c 0,0 -0.14969,-0.0186 -0.21679,-0.0371 -0.067,-0.0186 -0.18975,-0.10205 -0.28125,-0.1543 -0.0915,-0.0523 -0.23331,-0.0704 -0.31641,-0.0879 -0.0832,-0.0174 -0.16729,-0.0339 -0.24219,-0.043 -0.0749,-0.009 -0.15713,-0.0268 -0.24023,-0.0703 -0.0831,-0.0436 -0.19069,-0.11335 -0.27539,-0.18359 -0.0847,-0.0702 -0.14063,-0.15625 -0.14063,-0.15625 0,0 -0.1415,-0.0515 -0.1914,-0.0606 -0.0499,-0.009 -0.15039,-0.043 -0.15039,-0.043 0,0 -0.10831,0.0345 -0.19141,0.0781 -0.0831,0.0436 -0.19946,0.11274 -0.32422,0.15626 -0.12475,0.0436 -0.31575,-0.0258 -0.42383,-0.0606 -0.10809,-0.0349 -0.21875,-0.14258 -0.21875,-0.14258 0,0 -0.0961,0.0899 -0.15429,0.10742 -0.0582,0.0174 -0.1886,-0.0469 -0.25,-0.0703 -0.0613,-0.0234 -0.19922,-0.10352 -0.19922,-0.10352 0,0 -0.22541,10e-6 -0.28321,-0.0176 -0.0582,-0.0175 -0.27471,-0.0875 -0.34961,-0.14844 -0.0748,-0.061 -0.20703,-0.15625 -0.20703,-0.15625 0,0 -0.20791,-0.0697 -0.29101,-0.11328 -0.0832,-0.0436 -0.19141,-0.14844 -0.19141,-0.14844 0,0 -0.20098,-0.018 -0.26758,-0.0527 -0.0666,-0.0348 -0.27324,-0.25189 -0.33984,-0.34765 -0.0666,-0.0957 -0.0996,-0.19141 -0.0996,-0.19141 0,0 -0.2083,-0.0699 -0.2832,-0.13086 -0.0749,-0.061 -0.11719,-0.17382 -0.11719,-0.17382 l -0.14063,-0.1211 c 0,0 -0.20879,-0.20111 -0.27539,-0.29687 -0.0664,-0.0958 -0.082,-0.26172 -0.082,-0.26172 0,0 -0.14181,-0.17289 -0.19531,-0.26172 -0.0536,-0.0886 -0.0801,-0.29492 -0.0801,-0.29492 0,0 -0.0985,-0.19115 -0.14844,-0.26953 -0.0499,-0.0784 -0.0742,-0.36133 -0.0742,-0.36133 0,0 -0.0424,-0.0649 -0.084,-0.11719 -0.0416,-0.0522 -0.12549,-0.3058 -0.15039,-0.42773 -0.025,-0.12193 4.9e-4,-0.30361 0.0254,-0.39063 0.025,-0.087 0.15235,-0.15234 0.15235,-0.15234 0,0 -0.0113,-0.0755 0.0137,-0.11914 0.025,-0.0435 0.0922,-0.10391 0.15039,-0.13868 0.0581,-0.0349 0.13281,-0.0684 0.13281,-0.0684 0,0 0.0917,0.0764 0.1543,0.13477 -0.0713,-0.0627 -0.16154,-0.16434 -0.17774,-0.22656 -0.0187,-0.0718 0.0446,-0.20816 0.11328,-0.29297 0.0687,-0.0848 0.20474,-0.18229 0.27344,-0.21484 0.0687,-0.0326 0.24322,-0.086 0.32422,-0.10547 0.081,-0.0196 0.23047,-0.0645 0.23047,-0.0645 0,0 -0.27955,-0.0466 -0.37305,-0.0859 -0.0935,-0.0393 -0.1875,-0.0723 -0.1875,-0.0723 0,0 0.0437,0.17677 0.0312,0.24219 -0.0125,0.0654 -0.14429,0.16393 -0.21289,0.20312 -0.0686,0.0391 -0.30602,0.0917 -0.41211,0.11133 -0.10609,0.0196 -0.4167,-0.0786 -0.5664,-0.13086 -0.14971,-0.0522 -0.49981,-0.32669 -0.59961,-0.39844 -0.0998,-0.0718 -0.30557,-0.47034 -0.35547,-0.60742 -0.0499,-0.13708 0.007,-0.39295 0.0508,-0.5039 0.0437,-0.11096 0.20567,-0.33892 0.29297,-0.42383 0.0873,-0.085 0.23614,-0.12309 0.33593,-0.14258 0.0998,-0.0191 0.28106,-0.0189 0.38086,-0.006 0.0998,0.013 0.15625,0.0312 0.15625,0.0312 0,0 -0.11333,-0.14895 -0.14453,-0.2207 -0.0313,-0.0718 -0.0117,-0.19727 -0.0117,-0.19727 0,0 -0.0752,0.13785 -0.15625,0.22266 -0.0811,0.0849 -0.19385,0.13675 -0.28125,0.15625 -0.0874,0.0196 -0.49819,-0.0253 -0.59179,-0.0449 -0.0936,-0.0195 -0.35562,-0.16967 -0.44922,-0.24805 -0.0936,-0.0784 -0.3126,-0.39818 -0.375,-0.47656 -0.0624,-0.0784 -0.26695,-0.47039 -0.31055,-0.56836 -0.0436,-0.0979 -0.0935,-0.30047 -0.13086,-0.39844 -0.0374,-0.098 -0.14346,-0.3402 -0.19336,-0.43164 -0.0499,-0.0914 -0.15613,-0.41646 -0.17382,-0.55469 -0.0176,-0.13822 -0.088,-0.62709 -0.082,-0.79687 0.006,-0.16978 0.14307,-0.52174 0.23047,-0.65235 0.0874,-0.13059 0.3862,-0.26745 0.49219,-0.30664 0.10599,-0.0392 0.52539,-0.0781 0.52539,-0.0781 l 0.85938,-0.16992 c 0,0 1.02347,-0.17092 1.21679,-0.23633 0.19332,-0.0654 0.28687,-0.0319 0.35547,0.0332 0.0686,0.0652 0.14419,0.23475 0.21289,0.3457 0.0687,0.11096 0.2793,0.3532 0.3418,0.45118 0.0625,0.098 0.0937,0.25493 0.0937,0.33984 0,0.0849 -0.17969,0.32617 -0.17969,0.32617 0,0 0.14981,-0.15087 0.22461,-0.20312 0.0748,-0.0523 0.11734,-0.0579 0.21094,-0.084 0.0936,-0.0261 0.21875,0.0195 0.21875,0.0195 l -0.14453,-0.15039 c 0,0 -0.19268,-0.16259 -0.26758,-0.21484 -0.0749,-0.0522 -0.29245,-0.23627 -0.37305,-0.33203 -0.0805,-0.0958 -0.095,-0.3616 -0.10742,-0.47266 -0.0123,-0.11106 0.0497,-0.52883 0.0684,-0.66601 0.0187,-0.13718 0.0696,-0.47549 0.11328,-0.61914 0.0437,-0.14368 0.19922,-0.32618 0.19922,-0.32618 0,0 -0.0938,0.0643 -0.15625,0.10352 -0.0624,0.0392 -0.31851,0.0711 -0.41211,0.0781 -0.0936,0.007 -0.1167,0.0716 -0.0918,0.11719 0.0249,0.0456 0.0611,0.0799 0.14844,0.13867 0.0874,0.0588 0.16328,0.14356 0.17578,0.24805 0.0125,0.10448 -0.0572,0.35817 -0.17578,0.54102 -0.11856,0.18286 -0.34961,0.28125 -0.34961,0.28125 0,0 -0.94132,0.20238 -1.07226,0.22851 -0.13094,0.0261 -0.74829,0.1438 -0.87305,0.16992 -0.12475,0.0261 -0.7545,0.0984 -0.8418,0.0723 -0.0873,-0.0261 -0.21221,-0.12548 -0.28711,-0.17774 -0.0748,-0.0522 -0.11343,-0.21401 -0.14453,-0.29882 -0.0309,-0.0848 -0.0119,-0.48989 -0.006,-0.60743 0.006,-0.11742 0.0633,-0.56923 0.082,-0.71289 0.0187,-0.14365 0.12979,-0.46314 0.17969,-0.61328 0.0499,-0.15013 0.20685,-0.59365 0.33789,-0.84179 0.13104,-0.24815 0.24862,-0.45096 0.36719,-0.54883 0.11856,-0.0979 0.29994,-0.1757 0.44336,-0.19532 0.14342,-0.0196 0.37364,0.052 0.46094,0.0781 0.0873,0.0261 0.1877,0.0782 0.25,0.0586 0.0622,-0.0196 0.0562,-0.1112 0.0312,-0.15039 -0.0249,-0.0392 -0.0998,-0.0397 -0.19336,-0.0527 -0.0936,-0.0131 -0.35616,0.0254 -0.44336,0.0254 -0.0872,0 -0.29927,-0.13712 -0.35547,-0.20899 -0.0562,-0.0719 -0.10533,-0.30617 -0.11133,-0.46289 -0.006,-0.15671 0.14351,-0.45009 0.22461,-0.57421 0.0811,-0.12416 0.25501,-0.1836 0.36719,-0.1836 0.11218,0 0.30016,-0.007 0.40625,-0.0391 0.10606,-0.0326 0.11718,-0.1951 0.11718,-0.29297 0,-0.0979 -0.0801,-0.32787 -0.0801,-0.40625 0,-0.0784 0.10572,-0.29373 0.19921,-0.45703 0.0935,-0.1633 0.41128,-0.43703 0.58594,-0.59375 0.17466,-0.15669 0.33814,-0.22734 0.46289,-0.23438 0.12476,-0.007 0.31744,0.0915 0.39844,0.16993 0.081,0.0784 0.26138,0.33937 0.33008,0.49609 0.0687,0.15672 0.0996,0.45021 0.0996,0.57422 0,0.12402 -0.0548,0.32669 -0.0859,0.39844 -0.0311,0.0718 -0.082,0.18945 -0.082,0.18945 0,0 0.18106,-0.10423 0.25586,-0.11719 0.0748,-0.0121 0.14453,-0.006 0.14453,-0.006 0,0 -0.14414,-0.15727 -0.18164,-0.24218 -0.0377,-0.085 -0.037,-0.32069 -0.043,-0.43165 -0.006,-0.11095 -0.10601,-0.4756 -0.16211,-0.58007 -0.0561,-0.10449 -0.19341,-0.38576 -0.22461,-0.49024 -0.0313,-0.10447 -0.0128,-0.33949 0.0371,-0.47656 0.0499,-0.13708 0.3109,-0.39295 0.4668,-0.50391 0.15589,-0.11095 0.5749,-0.44239 0.72461,-0.54687 0.1497,-0.10448 0.23614,-0.2808 0.33593,-0.39844 0.0998,-0.11767 0.33814,-0.19006 0.4629,-0.20312 0.12475,-0.0131 0.31801,0.0915 0.38671,0.16992 0.0687,0.0784 0.18042,0.31277 0.19922,0.42383 0.0189,0.11106 0.0254,0.47158 0.0254,0.5957 0,0.12412 0.0234,0.3915 0.0234,0.51562 0,0.12413 0.0139,0.22843 0.0762,0.28711 0.0623,0.0587 0.12505,-4.8e-4 0.15625,-0.0527 0.0313,-0.0522 0.0305,-0.3064 0.0117,-0.42383 -0.0188,-0.11744 -0.10669,-0.3987 -0.15039,-0.5293 -0.0439,-0.1306 -0.0548,-0.44361 -0.0488,-0.59375 0.006,-0.15013 0.0369,-0.35378 0.10547,-0.48437 0.0686,-0.1306 0.28106,-0.35131 0.38086,-0.42969 0.0998,-0.0784 0.46162,-0.229 0.61133,-0.28125 0.1497,-0.0522 0.69916,-0.21014 0.89258,-0.25586 0.19342,-0.0458 0.7842,-0.19508 0.89648,-0.23437 0.11228,-0.0393 0.41235,-0.15629 0.53711,-0.17578 l -7e-5,5e-5 c 0.12475,-0.0195 0.36275,0.072 0.46875,0.15039 0.10599,0.0784 0.29825,0.24769 0.37305,0.36523 0.0748,0.11754 0.20088,0.36549 0.23828,0.49609 0.0374,0.1306 0.0992,0.48391 0.13672,0.64063 0.0376,0.15672 0.007,0.69083 0.0195,0.86719 0.0123,0.17636 0.0168,0.75808 0.0293,0.88867 0.0125,0.13063 0.15039,0.18945 0.15039,0.18945 0.006,3.25941 0.005,3.2594 0.012,0 0,0 0.13791,-0.0588 0.15039,-0.18945 0.0125,-0.13059 0.0189,-0.71231 0.0312,-0.88867 0.0125,-0.17636 -0.02,-0.71047 0.0176,-0.86719 0.0375,-0.15672 0.10125,-0.51003 0.13868,-0.64063 0.0374,-0.1306 0.16147,-0.37855 0.23632,-0.49609 0.0749,-0.11754 0.26901,-0.28687 0.375,-0.36523 0.10599,-0.0784 0.34204,-0.16994 0.4668,-0.15039 0.12475,0.0195 0.42483,0.1365 0.53711,0.17578 0.11228,0.0393 0.70502,0.18861 0.89844,0.23437 0.19342,0.0457 0.74091,0.20362 0.89062,0.25586 0.1497,0.0522 0.51152,0.20289 0.61133,0.28125 0.0998,0.0784 0.3123,0.29909 0.38086,0.42969 0.0686,0.13059 0.0993,0.33424 0.10547,0.48437 0.006,0.15014 -0.005,0.46315 -0.0488,0.59375 -0.0437,0.1306 -0.13162,0.41186 -0.15039,0.5293 -0.0188,0.11743 -0.0176,0.37159 0.0137,0.42383 0.0312,0.0523 0.094,0.11144 0.15625,0.0527 0.0624,-0.0587 0.0742,-0.16298 0.0742,-0.28711 0,-0.12412 0.0254,-0.3915 0.0254,-0.51562 0,-0.12412 0.004,-0.48464 0.0234,-0.5957 0.0188,-0.11106 0.1325,-0.34547 0.20117,-0.42383 0.0687,-0.0784 0.26196,-0.18299 0.38672,-0.16992 0.12475,0.0131 0.36114,0.0855 0.46094,0.20312 0.0998,0.11764 0.18625,0.29396 0.33593,0.39844 0.14973,0.10448 0.56871,0.43592 0.72461,0.54687 0.15589,0.11096 0.4169,0.36683 0.4668,0.50391 0.0499,0.13707 0.0704,0.37209 0.0391,0.47656 -0.0312,0.10448 -0.16852,0.38575 -0.22461,0.49024 -0.0561,0.10447 -0.15581,0.46912 -0.1621,0.58007 -0.006,0.11096 -0.007,0.34667 -0.0449,0.43165 -0.0374,0.0849 -0.17968,0.24218 -0.17968,0.24218 0,0 0.0678,-0.006 0.14257,0.006 0.0749,0.013 0.25586,0.11719 0.25586,0.11719 0,0 -0.049,-0.11768 -0.0801,-0.18945 -0.0311,-0.0718 -0.0879,-0.27443 -0.0879,-0.39844 0,-0.12402 0.0309,-0.4175 0.0996,-0.57422 0.0687,-0.15672 0.24904,-0.41773 0.33008,-0.49609 0.081,-0.0784 0.27564,-0.17651 0.40039,-0.16993 0.12476,0.007 0.28628,0.0777 0.46094,0.23438 0.17465,0.15672 0.49243,0.43045 0.58594,0.59375 0.0935,0.1633 0.19922,0.37867 0.19922,0.45703 0,0.0784 -0.0801,0.30836 -0.0801,0.40625 0,0.0979 0.0131,0.26037 0.11914,0.29297 0.10609,0.0326 0.29212,0.0391 0.4043,0.0391 0.11208,0 0.288,0.0594 0.36914,0.1836 0.0811,0.12412 0.2308,0.4175 0.22461,0.57421 -0.006,0.15672 -0.0571,0.39102 -0.11329,0.46289 -0.0562,0.0719 -0.26823,0.20899 -0.35546,0.20899 -0.0871,0 -0.34975,-0.0385 -0.44336,-0.0254 -0.0936,0.0131 -0.16841,0.0135 -0.19336,0.0527 -0.025,0.0392 -0.0309,0.13076 0.0312,0.15039 0.0623,0.0196 0.16267,-0.0325 0.25,-0.0586 0.0873,-0.0261 0.31751,-0.0977 0.46093,-0.0781 0.14342,0.0196 0.32479,0.0974 0.44336,0.19532 0.11857,0.098 0.23614,0.30068 0.36719,0.54883 0.13104,0.24813 0.28799,0.69166 0.33789,0.84179 0.0499,0.15013 0.16298,0.46962 0.18164,0.61328 0.0187,0.14366 0.074,0.59546 0.0801,0.71289 0.006,0.11733 0.0251,0.52259 -0.006,0.60743 -0.0311,0.0848 -0.0697,0.24658 -0.14453,0.29882 -0.0748,0.0523 -0.19783,0.15161 -0.28516,0.17774 -0.0873,0.0261 -0.71899,-0.0461 -0.84375,-0.0723 -0.12475,-0.0261 -0.7421,-0.1438 -0.87304,-0.16992 -0.13095,-0.0261 -1.07227,-0.22851 -1.07227,-0.22851 0,0 -0.23104,-0.0984 -0.34961,-0.28125 -0.11857,-0.18285 -0.1863,-0.43654 -0.17383,-0.54102 0.0125,-0.10449 0.0865,-0.19117 0.17383,-0.25 0.0873,-0.0588 0.12544,-0.0911 0.15039,-0.13672 0.0249,-0.0456 -1.5e-4,-0.1106 -0.0937,-0.11719 -0.0936,-0.007 -0.34973,-0.0389 -0.41211,-0.0781 -0.0624,-0.0392 -0.15625,-0.10352 -0.15625,-0.10352 0,0 0.15551,0.18249 0.19922,0.32618 0.0437,0.14365 0.0946,0.48196 0.11328,0.61914 0.0188,0.13718 0.0807,0.55495 0.0684,0.66601 -0.0124,0.11106 -0.0249,0.37685 -0.10547,0.47266 -0.0805,0.0958 -0.30015,0.2798 -0.375,0.33203 -0.0748,0.0523 -0.26757,0.21484 -0.26757,0.21484 l -0.14454,0.15039 c 0,0 0.12514,-0.0456 0.21875,-0.0195 0.0936,0.0261 0.13803,0.0317 0.2129,0.084 0.0749,0.0522 0.2246,0.20312 0.2246,0.20312 0,0 -0.18164,-0.24123 -0.18164,-0.32617 0,-0.0848 0.0312,-0.24185 0.0937,-0.33984 0.0625,-0.098 0.27509,-0.34022 0.34375,-0.45118 0.0687,-0.11095 0.14238,-0.2805 0.21094,-0.3457 0.0686,-0.0653 0.16215,-0.0986 0.35547,-0.0332 0.19332,0.0654 1.2168,0.23633 1.2168,0.23633 l 0.86133,0.16992 c -3e-5,0 0.41743,0.0389 0.52343,0.0781 0.10599,0.0392 0.40476,0.17605 0.49219,0.30664 0.0874,0.13061 0.22624,0.48257 0.23242,0.65235 0.006,0.16978 -0.0644,0.65865 -0.082,0.79687 -0.0177,0.13823 -0.12393,0.46327 -0.17383,0.55469 -0.0499,0.0914 -0.15584,0.33375 -0.19336,0.43164 -0.0374,0.098 -0.0872,0.30054 -0.13086,0.39844 -0.0436,0.0979 -0.25013,0.49 -0.3125,0.56836 -0.0624,0.0784 -0.28138,0.3982 -0.375,0.47656 -0.0936,0.0784 -0.3556,0.2285 -0.44922,0.24805 -0.0936,0.0195 -0.50436,0.0645 -0.59179,0.0449 -0.0873,-0.0197 -0.20021,-0.0714 -0.28125,-0.15625 -0.081,-0.0848 -0.15625,-0.22266 -0.15625,-0.22266 0,0 0.0196,0.12549 -0.0117,0.19727 -0.0312,0.0717 -0.14453,0.2207 -0.14453,0.2207 0,0 0.0564,-0.0184 0.15625,-0.0312 0.0998,-0.0131 0.28106,-0.0132 0.38086,0.006 0.0998,0.0196 0.25056,0.0576 0.33789,0.14258 0.0873,0.0849 0.24926,0.31482 0.29297,0.42578 0.0437,0.11096 0.0987,0.36488 0.0488,0.50195 -0.0499,0.13708 -0.25566,0.53565 -0.35547,0.60742 -0.0998,0.0717 -0.44796,0.3462 -0.59766,0.39844 -0.14971,0.0523 -0.46227,0.15051 -0.56836,0.13086 -0.10599,-0.0196 -0.34354,-0.0722 -0.41211,-0.11133 -0.0686,-0.0392 -0.19847,-0.13771 -0.21094,-0.20312 -0.0125,-0.0654 0.0293,-0.24219 0.0293,-0.24219 0,0 -0.092,0.033 -0.18555,0.0723 -0.0935,0.0393 -0.375,0.0859 -0.375,0.0859 0,0 0.14943,0.0449 0.23047,0.0645 0.081,0.0195 0.25555,0.0728 0.32422,0.10547 0.0687,0.0326 0.20673,0.13 0.27539,0.21484 0.0687,0.0848 0.12999,0.22119 0.11133,0.29297 -0.0163,0.0622 -0.10628,0.16396 -0.17773,0.22656 0.0626,-0.0584 0.15429,-0.13476 0.15429,-0.13477 0,2e-5 0.0765,0.0335 0.13477,0.0684 0.0582,0.0348 0.12349,0.0952 0.14844,0.13868 0.025,0.0436 0.0137,0.11914 0.0137,0.11914 0,0 0.12739,0.0653 0.15234,0.15234 0.025,0.087 0.0503,0.2687 0.0254,0.39063 -0.025,0.12193 -0.10682,0.3755 -0.14844,0.42773 -0.0416,0.0522 -0.084,0.11719 -0.084,0.11719 0,0 -0.0243,0.28297 -0.0742,0.36133 -0.0499,0.0784 -0.15039,0.26953 -0.15039,0.26953 0,0 -0.0268,0.20632 -0.0801,0.29492 -0.0536,0.0888 -0.19531,0.26172 -0.19531,0.26172 0,0 -0.0156,0.1659 -0.082,0.26172 -0.0666,0.0958 -0.27539,0.29687 -0.27539,0.29687 l -0.14063,0.1211 c 0,0 -0.0423,0.11281 -0.11718,0.17382 -0.0748,0.061 -0.28125,0.13086 -0.28125,0.13086 0,0 -0.035,0.0957 -0.10157,0.19141 -0.0666,0.0958 -0.27327,0.31287 -0.33984,0.34765 -0.0666,0.0348 -0.26563,0.0527 -0.26563,0.0527 0,0 -0.10816,0.10487 -0.1914,0.14844 -0.0831,0.0435 -0.29102,0.11328 -0.29102,0.11328 0,0 -0.13413,0.0953 -0.20898,0.15625 -0.0748,0.0609 -0.29143,0.13099 -0.34961,0.14844 -0.0578,0.0176 -0.28125,0.0176 -0.28125,0.0176 0,0 -0.13979,0.0801 -0.20117,0.10352 -0.0612,0.0234 -0.18986,0.0877 -0.24805,0.0703 -0.0582,-0.0175 -0.15625,-0.10742 -0.15625,-0.10742 0,0 -0.11066,0.10768 -0.21875,0.14258 -0.10809,0.0348 -0.29907,0.10413 -0.42383,0.0606 -0.12475,-0.0436 -0.24108,-0.11265 -0.32422,-0.15626 -0.0831,-0.0435 -0.1914,-0.0781 -0.1914,-0.0781 0,0 -0.10048,0.0341 -0.15039,0.043 -0.0499,0.009 -0.19141,0.0606 -0.19141,0.0606 0,0 -0.054,0.0861 -0.13867,0.15625 -0.0848,0.0702 -0.19411,0.14002 -0.27735,0.18359 -0.0831,0.0436 -0.16538,0.0616 -0.24023,0.0703 -0.0749,0.009 -0.15895,0.0255 -0.24219,0.043 -0.0831,0.0175 -0.22293,0.0356 -0.31445,0.0879 -0.0915,0.0522 -0.21614,0.13571 -0.2832,0.1543 -0.0671,0.0185 -0.2168,0.0371 -0.2168,0.0371 l -0.10156,0.043 c 0,0 0.0408,-0.40055 0.0781,-0.7168 -0.009,0.056 -0.0335,0.1406 -0.0371,0.18164 -0.0249,0.28074 -0.11133,1.27344 -0.11133,1.27344 l -0.14453,1.75586 -0.0566,0.97265 -0.0234,1.92007"
                   id="path4276"
                   inkscape:connector-curvature="0"
                   sodipodi:nodetypes="ccscsccscccccccccccccccccccccccccccccccccccccccccccccccccccccccccccccccccsccccccccccccccccccsccccccscccccccccccccccccccccccccccccccccscccscssccccsscccccccccscccccsscccccccccccccccccccccccccccccccccccccsscccccccccccccccssccccsscscccsccccccsscccccccccccccccccccccccccscccccccccccccccccccccccccccccccccccccccccccccccccccccccccccccccccccccccccccccccccccccccc"
                   transform="matrix(1,0,0,0.99515509,-121.38444,-75.946518)" />
              </g>
            </g>
          </g>
        </g>
        <text
           sodipodi:linespacing="125%"
           id="text4278"
           y="630.38129"
           x="290.77808"
           style="font-style:normal;font-variant:normal;font-weight:normal;font-stretch:normal;font-size:42.53955841px;line-height:125%;font-family:'DejaVu Sans';-inkscape-font-specification:'DejaVu Sans';text-align:start;letter-spacing:0px;word-spacing:0px;writing-mode:lr-tb;text-anchor:start;fill:#ffffff;fill-opacity:1;stroke:none;stroke-width:1px;stroke-linecap:butt;stroke-linejoin:miter;stroke-opacity:1"
           xml:space="preserve"><tspan
             y="630.38129"
             x="290.77808"
             id="tspan4280"
             sodipodi:role="line">C</tspan></text>
        <g
           id="g4282"
           style="font-style:normal;font-variant:normal;font-weight:normal;font-stretch:normal;font-size:42.36507797px;line-height:125%;font-family:'DejaVu Sans';-inkscape-font-specification:'DejaVu Sans';text-align:start;letter-spacing:0px;word-spacing:0px;writing-mode:lr-tb;text-anchor:start;opacity:0.98999999;fill:#ffffff;fill-opacity:1;stroke:none;stroke-width:1px;stroke-linecap:butt;stroke-linejoin:miter;stroke-opacity:1"
           transform="matrix(1.0696946,0,0,1.0417738,-28.030333,-25.596386)">
          <path
             inkscape:connector-curvature="0"
             id="path4284"
             d="m 350.12751,599.36746 5.62661,0 13.69418,25.83691 0,-25.83691 4.05447,0 0,30.88431 -5.62661,0 -13.69418,-25.83691 0,25.83691 -4.05447,0 0,-30.88431 z"
             style="fill:#ffffff;fill-opacity:1" />
        </g>
      </g>
      <text
         sodipodi:linespacing="125%"
         id="text4286"
         y="712.0788"
         x="292.25482"
         style="font-style:normal;font-variant:normal;font-weight:normal;font-stretch:normal;font-size:16.24045563px;line-height:125%;font-family:'DejaVu Sans';-inkscape-font-specification:'DejaVu Sans';text-align:start;letter-spacing:0px;word-spacing:0px;writing-mode:lr-tb;text-anchor:start;fill:#ffffff;fill-opacity:1;stroke:none;stroke-width:1px;stroke-linecap:butt;stroke-linejoin:miter;stroke-opacity:1"
         xml:space="preserve"><tspan
           id="tspan4288"
           y="712.0788"
           x="292.25482"
           sodipodi:role="line">Center for Open Neuroscience</tspan></text>
    </g>
  </g>
</svg>
