<?xml version="1.0" encoding="UTF-8" standalone="no"?>
<svg
   viewBox="-124.608 159.875 1137.9384 113.6017"
   version="1.1"
   id="svg852"
   sodipodi:docname="registry_logo.svg"
   inkscape:version="1.1.1 (c3084ef, 2021-09-22)"
   width="1137.9385"
   height="113.6017"
   xmlns:inkscape="http://www.inkscape.org/namespaces/inkscape"
   xmlns:sodipodi="http://sodipodi.sourceforge.net/DTD/sodipodi-0.dtd"
   xmlns="http://www.w3.org/2000/svg"
   xmlns:svg="http://www.w3.org/2000/svg">
  <defs
     id="defs856">
    <rect
       x="233.7878"
       y="-47.291931"
       width="46.757557"
       height="24.313931"
       id="rect1369" />
  </defs>
  <sodipodi:namedview
     id="namedview854"
     pagecolor="#ffffff"
     bordercolor="#666666"
     borderopacity="1.0"
     inkscape:pageshadow="2"
     inkscape:pageopacity="0.0"
     inkscape:pagecheckerboard="0"
     showgrid="false"
     inkscape:zoom="0.53528089"
     inkscape:cx="287.69942"
     inkscape:cy="111.15659"
     inkscape:window-width="1920"
     inkscape:window-height="1027"
     inkscape:window-x="0"
     inkscape:window-y="25"
     inkscape:window-maximized="1"
     inkscape:current-layer="svg852"
     height="31.6744px" />
  <g
     id="g1100">
    <text
       xml:space="preserve"
       transform="matrix(0.98336089,0,0,0.98336089,-126.4419,240.76621)"
       id="text1367"
       style="font-size:17.8689px;line-height:0.8;font-family:'Nanum Pen';-inkscape-font-specification:'Nanum Pen, Normal';white-space:pre;shape-inside:url(#rect1369)" />
    <path
       d="m 9.5184406,218.59999 -9.074e-4,34.83943 c 0,1.79429 0.4639485,3.21235 1.3900348,4.25421 0.926086,0.98394 2.025812,1.47594 3.299176,1.47594 2.430976,0 3.301895,0.0296 6.164255,0.0185 l 0.0089,11.35269 c -4.691019,0.007 -3.481862,0.003 -7.996528,0.003 -4.4567855,0 -8.247946,-1.47594 -11.3734855,-4.42783 -3.0676581,-2.95188 -4.6014834,-6.97459 -4.6014834,-12.06805 v -35.44717 z"
       aria-label="lad"
       style="fill:#ffa200;stroke-width:0.90438"
       id="path824" />
    <path
       d="m 99.976577,270.54859 c -5.499842,0 -10.41859,-2.34488 -14.759671,-7.03459 -4.341078,-4.68633 -6.511618,-10.50407 -6.511618,-17.44978 0,-6.94575 2.112429,-12.61991 6.337292,-17.01567 4.224862,-4.45731 9.174376,-6.68595 14.845125,-6.68595 5.674165,0 10.302375,1.99621 13.891455,5.98862 v -19.27848 l 6.51161,-5.8143 6.51162,5.81089 v 60.78538 h -13.02323 v -6.16639 c -3.6472,4.57349 -8.24805,6.86368 -13.802583,6.86368 z m -8.162599,-23.96141 c 0,3.75999 1.127999,6.85687 3.383993,9.28719 2.259413,2.37222 4.894819,3.56174 7.902819,3.56174 3.00799,0 5.55795,-1.18952 7.63961,-3.56174 2.14319,-2.43032 3.21308,-5.5272 3.21308,-9.29059 0,-3.8181 -1.06989,-6.97308 -3.21308,-9.46152 -2.08508,-2.54654 -4.65897,-3.8215 -7.72507,-3.8215 -3.069518,0 -5.701511,1.27496 -7.902813,3.8215 -2.197887,2.54655 -3.298539,5.70153 -3.298539,9.46152 z"
       style="fill:#ffa200;stroke-width:3.41817"
       id="path826" />
    <path
       d="m -37.802447,222.39808 q -8.942509,0 -15.627679,-6.68517 -6.685171,-6.68517 -6.685171,-17.53774 0,-10.93939 6.858826,-17.4509 6.858789,-6.51155 15.888144,-6.51155 7.032449,0 12.241679,4.6883 v -3.90691 h 13.109894 v 46.70942 h -13.109894 v -3.82009 q -5.556512,4.51464 -12.675799,4.51464 z m -9.202974,-23.96245 q 0,5.73016 3.386008,9.37663 3.386008,3.55963 7.900664,3.55963 4.514666,0 7.640202,-3.55963 3.12554,-3.64647 3.12554,-9.28982 0,-5.73015 -3.12554,-9.55025 -3.125536,-3.82009 -7.727023,-3.82009 -4.60149,0 -7.900652,3.82009 -3.299199,3.73329 -3.299199,9.46344 z m 93.653997,23.96245 c -5.961675,0 -11.170905,-2.22838 -15.62769,-6.68517 -4.456785,-4.45679 -6.685178,-10.30268 -6.685178,-17.53774 0,-7.29291 2.286274,-13.10988 6.858819,-17.4509 4.572548,-4.34106 9.868598,-6.51155 15.888151,-6.51155 4.688308,0 8.768868,1.56275 12.24169,4.6883 v -3.90691 h 13.109894 v 47.42567 H 59.325271 v -4.53634 c -3.70434,3.00977 -7.929606,4.51464 -12.675791,4.51464 z m -9.202974,-23.96245 c 0,3.82009 1.128669,6.94564 3.386001,9.37663 2.257331,2.37307 4.890887,3.55963 7.900664,3.55963 3.009776,0 5.556511,-1.18656 7.640202,-3.55963 2.083694,-2.43099 3.12554,-5.52757 3.12554,-9.28982 0,-3.82009 -1.041846,-7.00352 -3.12554,-9.55025 -2.083691,-2.54672 -4.659365,-3.82009 -7.727023,-3.82009 -3.067658,0 -5.70121,1.27337 -7.900664,3.82009 -2.199453,2.48885 -3.29918,5.64335 -3.29918,9.46344 z M -3.5951679,221.99111 V 161.016 H 9.514726 v 13.97811 H 20.801391 V 185.1521 H 9.514726 l -9.037e-4,20.14236 v 13.79179 l -6.5540414,5.81064 -6.5549488,-5.81064"
       aria-label="data"
       style="fill:#333333;stroke-width:0.90438"
       id="path828" />
    <path
       d="m -99.019172,159.875 -6.518478,6.51844 6.631286,6.63124 h 0.967309 c 3.237018,0 6.118539,0.7657 8.648009,2.2936 a 15.200614,15.200614 0 0 1 5.913404,6.26553 c 1.469833,2.70375 2.20475,5.82115 2.20475,9.35211 0,3.46945 -0.676809,6.55948 -2.03039,9.26327 -1.353618,2.70716 -3.233611,4.7957 -5.646829,6.2689 a 14.640033,14.640033 0 0 1 -2.727716,1.29206 c 0.66655,0.70759 5.968141,5.25034 5.968141,5.25034 l -4.238547,7.95065 c 3.271201,-0.64259 6.309972,-1.6749 9.116276,-3.11051 5.11701,-2.59099 9.058168,-6.23476 11.826882,-10.94157 2.81997,-4.70685 4.231696,-10.09047 4.231696,-16.14746 0,-6.06043 -1.38095,-11.41328 -4.146257,-16.06199 -2.765306,-4.7034 -6.64832,-8.35402 -11.649115,-10.93816 -4.939281,-2.59098 -10.647624,-3.88645 -17.118215,-3.88645 z"
       style="fill:#333333;stroke-width:3.41817"
       id="path830" />
    <path
       d="m 46.653083,270.54859 c -5.961294,0 -11.17059,-2.22867 -15.627887,-6.68594 -4.457296,-4.45731 -6.685944,-10.30239 -6.685944,-17.53523 0,-7.29439 2.286756,-13.11213 6.86027,-17.45319 4.570097,-4.3411 9.868266,-6.51163 15.887667,-6.51163 4.686315,0 8.767613,1.56213 12.240478,4.68634 v -4.62482 l 6.556053,-5.81089 6.552638,5.81089 v 47.43059 H 59.327667 v -3.82153 a 19.548529,19.548529 0 0 1 -12.674584,4.51197 z m -9.205141,-23.96141 c 0,3.8181 1.128,6.94231 3.387409,9.37608 2.255994,2.37218 4.887987,3.55488 7.899397,3.55488 3.007995,0 5.557949,-1.1827 7.643035,-3.55488 2.085087,-2.43377 3.12421,-5.53062 3.12421,-9.2906 0,-3.82154 -1.042541,-7.00726 -3.12421,-9.5504 -2.085086,-2.54654 -4.662386,-3.8215 -7.728489,-3.8215 -3.066099,0 -5.70151,1.27496 -7.899397,3.8215 -2.201302,2.48844 -3.301955,5.64002 -3.301955,9.46152 z m 76.331218,-46.38799 6.51161,-5.81089 6.51162,5.81089 v 5.81089 l -6.51162,-5.81089 -6.51161,5.81089 z"
       style="fill:#ffa200;stroke-width:3.41817"
       id="path832" />
    <path
       d="m 113.77916,191.34612 6.51161,-5.81089 6.51162,5.81089 v 5.81089 l -6.51162,-5.81089 -6.51161,5.81089 z M -124.23502,159.875 v 61.85864 h 24.870611 c 1.886806,-0.007 2.686682,-0.34516 2.686682,-0.34516 l 4.327393,-6.76802 -6.925229,-5.94759 h -8.812037 v -35.65156 l -3.07636,-3.07636 -3.55489,-3.55488 6.51844,-6.51504 z"
       style="fill:#ffa200;stroke-width:3.41817"
       id="path834" />
    <path
       d="m 250.70432,229.98512 h 294.89601 l 28.1965,19.97922 -28.1965,19.97922 H 250.70432 Z"
       style="fill:#ffa200;stroke-width:3.41817"
       id="path836" />
    <path
       d="m 588.62145,229.99538 28.1589,19.97922 -28.1589,19.97922 h -28.15891 l 28.15891,-19.97922 -28.15891,-19.97922 z"
       style="fill:#ffa200;stroke-width:3.41817"
       id="path838" />
    <path
       d="m 631.52293,229.99538 28.15891,19.97922 -28.15891,19.97922 h -28.1589 l 28.1589,-19.97922 -28.1589,-19.97922 z"
       style="fill:#ffa200;stroke-width:3.41817"
       id="path840" />
    <path
       d="M 345.84374,229.96546 H 136.13378 v 40.00473 h 199.71705 l 19.98581,-20.00759 -19.98581,-19.99714"
       style="fill:#333333;stroke-width:11.0741"
       id="path842" />
    <path
       d="m 942.27007,230.10134 28.15889,19.97921 -28.15889,19.97922 h -28.15892 l 28.15892,-19.97922 -28.15892,-19.97921 z"
       style="fill:#ffa200;stroke-width:3.41817"
       id="path846" />
    <path
       d="m 985.17155,230.10134 28.15895,19.97921 -28.15895,19.97922 h -28.15889 l 28.15889,-19.97922 -28.15889,-19.97921 z"
       style="fill:#ffa200;stroke-width:3.41817"
       id="path848" />
    <path
       d="M -37.10838,229.97231 H -124.608 l 0.17332,13.84257 c 1.09282,22.12515 19.89082,25.54668 26.554399,26.02654 l 20.323938,0.13554 h 66.14948 v -40.00469"
       style="fill:#333333;stroke-width:8.33733"
       id="path850" />
    <g
       aria-label="registry"
       id="text1573"
       style="font-size:50.8612px;line-height:0.8;font-family:'Nanum Pen';-inkscape-font-specification:'Nanum Pen, Normal';stroke-width:2.84634">
      <path
         d="m 668.72909,262.69412 v -3.4077 h 6.86626 v -18.6152 h -6.86626 v -3.4077 h 9.51105 l 0.81378,3.30598 h 0.2543 q 1.72928,-1.5767 3.86545,-2.69564 2.13617,-1.11895 5.08612,-1.11895 1.72928,0 2.74651,0.6612 1.06808,0.66119 1.62756,1.93272 0.61033,1.27153 0.81377,3.10254 0.20345,1.78014 0.20345,4.06889 l -3.56028,0.0509 q 0,-3.25511 -0.6612,-4.78095 -0.61033,-1.52584 -2.28875,-1.52584 -1.5767,0 -2.84823,0.45775 -1.27153,0.45776 -2.23789,1.11895 -0.91551,0.6612 -1.5767,1.32239 -0.6612,0.6612 -0.96636,1.11895 v 15.00405 h 9.76535 v 3.4077 z"
         style="font-family:'PT Mono';-inkscape-font-specification:'PT Mono, Normal';fill:#333333"
         id="path1042" />
      <path
         d="m 722.77468,259.48987 q -0.9155,0.81378 -2.18703,1.52583 -1.22067,0.71206 -2.69565,1.22067 -1.47497,0.50861 -3.10253,0.76292 -1.5767,0.30517 -3.20426,0.30517 -3.05167,0 -5.39128,-0.9155 -2.33962,-0.96637 -3.91631,-2.69565 -1.5767,-1.78014 -2.39048,-4.22148 -0.81378,-2.44134 -0.81378,-5.49301 0,-3.20425 0.86464,-5.69645 0.9155,-2.4922 2.59392,-4.17062 1.67842,-1.67842 4.0689,-2.54306 2.39047,-0.9155 5.34042,-0.9155 2.13617,0 4.22148,0.55947 2.08531,0.55948 3.66201,2.13617 1.62756,1.52584 2.4922,4.27234 0.86464,2.69565 0.61033,7.01885 h -19.68328 q 0,4.57751 2.44134,6.86626 2.49219,2.23789 6.61195,2.23789 1.37325,0 2.69564,-0.30516 1.37326,-0.35603 2.59393,-0.81378 1.22066,-0.45775 2.13617,-1.01723 0.96636,-0.55947 1.47497,-1.01722 z m -10.73171,-19.47984 q -1.67842,0 -3.20426,0.35603 -1.47497,0.35602 -2.64478,1.22066 -1.11895,0.81378 -1.88187,2.18704 -0.71205,1.32239 -0.9155,3.30597 h 15.81783 q -0.2543,-3.35683 -2.18703,-5.18784 -1.88186,-1.88186 -4.98439,-1.88186 z"
         style="font-family:'PT Mono';-inkscape-font-specification:'PT Mono, Normal';fill:#333333"
         id="path1044" />
      <path
         d="m 753.01722,263.96565 q 0,2.39048 -0.9155,4.17062 -0.9155,1.831 -2.54306,3.00081 -1.5767,1.16981 -3.71287,1.72928 -2.13617,0.61034 -4.62836,0.61034 -3.00082,0 -5.23871,-0.61034 -2.23789,-0.61033 -3.86545,-1.5767 l 1.93273,-3.61114 q 0.45775,0.40689 1.1698,0.76292 0.76292,0.40689 1.72928,0.71205 0.96637,0.35603 2.03445,0.55948 1.11895,0.20344 2.18703,0.20344 2.2379,0 3.71287,-0.40689 1.52584,-0.40689 2.44134,-1.27153 0.9155,-0.86464 1.32239,-2.23789 0.40689,-1.37325 0.40689,-3.35684 v -2.84823 h -0.20344 q -1.16981,1.67842 -3.00082,2.59393 -1.831,0.9155 -4.73009,0.9155 -5.79817,0 -8.54468,-3.20426 -2.69564,-3.25512 -2.69564,-10.07052 0,-6.51023 3.45856,-9.81621 3.45856,-3.35684 10.27396,-3.35684 3.1534,0 5.34043,0.45775 2.23789,0.40689 4.06889,1.06809 z m -11.34204,-4.06889 q 3.10253,0 4.88267,-1.5767 1.78014,-1.62756 2.4922,-4.93354 v -12.0541 q -2.23789,-1.06809 -6.25593,-1.06809 -4.06889,0 -6.40851,2.39048 -2.33961,2.39048 -2.33961,7.32401 0,2.18703 0.40689,4.01804 0.40689,1.78014 1.27153,3.10253 0.9155,1.32239 2.33961,2.08531 1.47498,0.71206 3.61115,0.71206 z"
         style="font-family:'PT Mono';-inkscape-font-specification:'PT Mono, Normal';fill:#333333"
         id="path1046" />
      <path
         d="m 762.20323,262.69412 v -3.4077 h 8.84985 v -18.6152 h -8.84985 v -3.4077 h 12.91875 v 22.0229 h 8.6464 v 3.4077 z m 7.4766,-32.65289 q 0,-1.37325 0.9155,-2.33961 0.9155,-1.01723 2.33962,-1.01723 1.47497,0 2.44133,1.01723 1.01723,0.96636 1.01723,2.33961 0,1.32239 -1.01723,2.2379 -0.96636,0.9155 -2.44133,0.9155 -1.42412,0 -2.33962,-0.9155 -0.9155,-0.91551 -0.9155,-2.2379 z"
         style="font-family:'PT Mono';-inkscape-font-specification:'PT Mono, Normal';fill:#333333"
         id="path1048" />
      <path
         d="m 809.63686,255.82786 q 0,-1.62756 -1.27153,-2.4922 -1.27153,-0.9155 -3.15339,-1.42411 -1.88187,-0.55947 -4.11976,-1.01723 -2.18703,-0.45775 -4.0689,-1.22066 -1.88186,-0.76292 -3.15339,-2.03445 -1.27153,-1.32239 -1.27153,-3.66201 0,-1.93272 0.81378,-3.30598 0.86464,-1.37325 2.23789,-2.23789 1.37325,-0.9155 3.20426,-1.32239 1.831,-0.45775 3.81459,-0.45775 3.56028,0 6.10334,0.9155 2.59392,0.86464 4.11976,1.831 l -1.62756,3.20426 q -1.67842,-0.9155 -3.66201,-1.72928 -1.93272,-0.86464 -4.88267,-0.86464 -1.11895,0 -2.23789,0.2543 -1.06809,0.20345 -1.98359,0.6612 -0.86464,0.45775 -1.42411,1.22067 -0.50862,0.71205 -0.50862,1.78014 0,1.32239 1.27153,2.03445 1.27153,0.71205 3.1534,1.22067 1.88186,0.45775 4.06889,0.9155 2.2379,0.40689 4.11976,1.22067 1.88187,0.81378 3.1534,2.18703 1.27153,1.37325 1.27153,3.71287 0,3.50942 -2.79737,5.79817 -2.7465,2.28876 -8.29038,2.28876 -1.67842,0 -3.30597,-0.30517 -1.62756,-0.30517 -3.05168,-0.81378 -1.42411,-0.50861 -2.59392,-1.11895 -1.1698,-0.66119 -1.93272,-1.32239 l 2.03445,-3.30598 q 0.61033,0.61034 1.62755,1.27153 1.01723,0.61034 2.2379,1.11895 1.22067,0.50861 2.59392,0.81378 1.42411,0.30517 2.84823,0.30517 1.37325,0 2.54306,-0.20345 1.22066,-0.2543 2.13617,-0.71205 0.9155,-0.50862 1.42411,-1.27153 0.55947,-0.81378 0.55947,-1.93273 z"
         style="font-family:'PT Mono';-inkscape-font-specification:'PT Mono, Normal';fill:#333333"
         id="path1050" />
      <path
         d="m 819.4332,237.26352 h 6.05249 v -5.03526 l 3.96717,-1.11894 v 6.1542 h 13.57994 v 3.4077 h -13.57994 v 12.00325 q 0,3.71286 1.78014,5.49301 1.831,1.78014 5.18784,1.78014 2.28876,0 3.96718,-0.86464 1.72928,-0.86464 3.10253,-1.88187 l 1.32239,3.00081 q -1.78014,1.42412 -4.27234,2.28876 -2.44134,0.86464 -5.03526,0.86464 -2.03445,0 -3.86545,-0.61034 -1.78014,-0.55947 -3.15339,-1.78014 -1.37326,-1.22067 -2.18703,-3.10253 -0.81378,-1.93273 -0.81378,-4.57751 v -12.61358 h -6.05249 z"
         style="font-family:'PT Mono';-inkscape-font-specification:'PT Mono, Normal';fill:#333333"
         id="path1052" />
      <path
         d="m 851.7102,262.69412 v -3.4077 h 6.86626 v -18.6152 h -6.86626 v -3.4077 h 9.51105 l 0.81378,3.30598 h 0.2543 q 1.72928,-1.5767 3.86545,-2.69564 2.13617,-1.11895 5.08612,-1.11895 1.72928,0 2.74651,0.6612 1.06808,0.66119 1.62756,1.93272 0.61033,1.27153 0.81377,3.10254 0.20345,1.78014 0.20345,4.06889 l -3.56028,0.0509 q 0,-3.25511 -0.6612,-4.78095 -0.61033,-1.52584 -2.28875,-1.52584 -1.5767,0 -2.84823,0.45775 -1.27153,0.45776 -2.23789,1.11895 -0.91551,0.6612 -1.5767,1.32239 -0.6612,0.6612 -0.96636,1.11895 v 15.00405 h 9.76535 v 3.4077 z"
         style="font-family:'PT Mono';-inkscape-font-specification:'PT Mono, Normal';fill:#333333"
         id="path1054" />
      <path
         d="m 894.66804,258.77781 h 1.93272 l 6.30679,-21.51429 h 4.11976 l -7.06971,22.83668 q -0.55947,1.78014 -1.16981,4.01804 -0.55947,2.28875 -1.62755,4.27234 -1.06809,1.98358 -2.89909,3.35684 -1.83101,1.37325 -4.78096,1.37325 -0.66119,0 -1.42411,-0.15259 -0.71206,-0.15258 -1.42411,-0.40689 -0.71206,-0.20344 -1.32239,-0.50861 -0.61034,-0.30516 -0.9155,-0.61033 l 1.42411,-3.66201 q 0.30517,0.25431 0.81378,0.50861 0.55947,0.25431 1.16981,0.40689 0.66119,0.20345 1.27153,0.30517 0.61033,0.15258 1.01722,0.15258 3.81459,0 5.18784,-6.45937 h -3.4077 l -10.68085,-25.4306 h 4.57751 z"
         style="font-family:'PT Mono';-inkscape-font-specification:'PT Mono, Normal';fill:#333333"
         id="path1056" />
    </g>
  </g>
</svg>
