<?xml version="1.0" encoding="UTF-8" standalone="no"?>
<!-- Generator: Adobe Illustrator 14.0.0, SVG Export Plug-In . SVG Version: 6.00 Build 43363)  -->

<svg
   xmlns:dc="http://purl.org/dc/elements/1.1/"
   xmlns:cc="http://creativecommons.org/ns#"
   xmlns:rdf="http://www.w3.org/1999/02/22-rdf-syntax-ns#"
   xmlns:svg="http://www.w3.org/2000/svg"
   xmlns="http://www.w3.org/2000/svg"
   xmlns:sodipodi="http://sodipodi.sourceforge.net/DTD/sodipodi-0.dtd"
   xmlns:inkscape="http://www.inkscape.org/namespaces/inkscape"
   version="1.1"
   x="0px"
   y="0px"
   width="32px"
   height="32px"
   viewBox="0 0 32 32"
   enable-background="new 0 0 32 32"
   xml:space="preserve"
   id="svg2"
   inkscape:version="0.91 r13725"
   sodipodi:docname="phone.svg"><metadata
     id="metadata23"><rdf:RDF><cc:Work
         rdf:about=""><dc:format>image/svg+xml</dc:format><dc:type
           rdf:resource="http://purl.org/dc/dcmitype/StillImage" /><dc:title></dc:title></cc:Work></rdf:RDF></metadata><defs
     id="defs21" /><sodipodi:namedview
     pagecolor="#0061ff"
     bordercolor="#666666"
     borderopacity="1"
     objecttolerance="10"
     gridtolerance="10"
     guidetolerance="10"
     inkscape:pageopacity="0"
     inkscape:pageshadow="2"
     inkscape:window-width="640"
     inkscape:window-height="480"
     id="namedview19"
     showgrid="false"
     inkscape:zoom="3.6875"
     inkscape:cx="13.089031"
     inkscape:cy="35.529492"
     inkscape:current-layer="svg2" /><g
     id="Layer_2"
     display="none"><rect
       display="inline"
       width="32"
       height="32"
       id="rect5" /><rect
       display="inline"
       fill="none"
       width="32"
       height="32"
       id="rect7" /></g><g
     id="Layer_1"
     display="none"><rect
       display="inline"
       fill="none"
       width="32"
       height="32"
       id="rect13" /><path
       display="inline"
       fill="#FFFFFF"
       d="M8.228,13.313h3.326V24H8.228V13.313z M9.892,8c1.063,0,1.926,0.863,1.926,1.926   c0,1.063-0.862,1.927-1.926,1.927c-1.068,0-1.928-0.864-1.928-1.927C7.964,8.863,8.824,8,9.892,8"
       id="path15" /><path
       display="inline"
       fill="#FFFFFF"
       d="M13.64,13.313h3.186v1.461h0.045c0.443-0.841,1.528-1.726,3.145-1.726   c3.363,0,3.984,2.212,3.984,5.091V24h-3.32v-5.195c0-1.241-0.024-2.835-1.728-2.835c-1.729,0-1.993,1.35-1.993,2.742V24h-3.32   V13.313z"
       id="path17" /></g><path
     inkscape:connector-curvature="0"
     id="path2198"
     style="fill:#ffffff;fill-opacity:1"
     d="m 16.0005,7.0571492 c -4.208364,0 -8.0382392,1.410743 -10.8943382,3.7151658 -1.374382,0.448339 -2.359403,1.653031 -2.359403,3.067898 0,0.522812 0.135201,1.015136 0.374116,1.452978 l 6.340723,0 c 0.238914,-0.437842 0.377614,-0.930166 0.377614,-1.452978 0,-0.813708 -0.324758,-1.558315 -0.86319,-2.12911 2.0862512,-1.080112 4.4803912,-1.694017 7.0244782,-1.694017 2.544086,0 4.936977,0.613905 7.023727,1.694017 -0.538556,0.570795 -0.86344,1.315402 -0.86344,2.12911 0,0.522812 0.134952,1.015136 0.374866,1.452978 l 6.340223,0 c 0.238665,-0.437842 0.377365,-0.930166 0.377365,-1.452978 0,-1.414867 -0.984647,-2.619559 -2.359153,-3.067898 C 24.037613,8.4678922 20.207739,7.0571492 16.0005,7.0571492 Z m 0,3.2944418 c -3.353796,0 -6.0749442,2.877841 -6.0749442,6.422943 0,0.297394 0.02074,0.588539 0.0576,0.874686 -0.590787,0.341128 -0.989144,0.978399 -0.989144,1.711886 l 0,3.603705 c 0,1.094607 0.883182,1.97804 1.9781642,1.97804 l 10.056514,0 c 1.094607,0 1.97804,-0.883433 1.97804,-1.97804 l 0,-3.603705 c 0,-0.733487 -0.399857,-1.36701 -0.989645,-1.708137 0.03749,-0.287397 0.05748,-0.579792 0.05748,-0.878435 0,-3.545102 -2.721522,-6.422943 -6.074068,-6.422943 z m 0,1.916937 c 1.748122,0 3.168862,1.314403 3.168862,2.934821 0,1.619918 -1.42074,2.938195 -3.168862,2.938195 -1.749372,0 -3.168863,-1.318277 -3.168863,-2.938195 0,-1.620418 1.419491,-2.934821 3.168863,-2.934821 z" /></svg>