<?xml version="1.0" encoding="UTF-8" standalone="no"?>
<!-- Generator: Adobe Illustrator 14.0.0, SVG Export Plug-In . SVG Version: 6.00 Build 43363)  -->

<svg
   xmlns:dc="http://purl.org/dc/elements/1.1/"
   xmlns:cc="http://creativecommons.org/ns#"
   xmlns:rdf="http://www.w3.org/1999/02/22-rdf-syntax-ns#"
   xmlns:svg="http://www.w3.org/2000/svg"
   xmlns="http://www.w3.org/2000/svg"
   xmlns:sodipodi="http://sodipodi.sourceforge.net/DTD/sodipodi-0.dtd"
   xmlns:inkscape="http://www.inkscape.org/namespaces/inkscape"
   version="1.1"
   x="0px"
   y="0px"
   width="32px"
   height="32px"
   viewBox="0 0 32 32"
   enable-background="new 0 0 32 32"
   xml:space="preserve"
   id="svg2"
   inkscape:version="0.91 r13725"
   sodipodi:docname="research.svg"><metadata
     id="metadata23"><rdf:RDF><cc:Work
         rdf:about=""><dc:format>image/svg+xml</dc:format><dc:type
           rdf:resource="http://purl.org/dc/dcmitype/StillImage" /><dc:title></dc:title></cc:Work></rdf:RDF></metadata><defs
     id="defs21" /><sodipodi:namedview
     pagecolor="#00caff"
     bordercolor="#666666"
     borderopacity="1"
     objecttolerance="10"
     gridtolerance="10"
     guidetolerance="10"
     inkscape:pageopacity="0"
     inkscape:pageshadow="2"
     inkscape:window-width="640"
     inkscape:window-height="480"
     id="namedview19"
     showgrid="false"
     inkscape:zoom="10.429825"
     inkscape:cx="12.633375"
     inkscape:cy="12.191616"
     inkscape:current-layer="svg2" /><g
     id="Layer_2"
     display="none"><rect
       display="inline"
       width="32"
       height="32"
       id="rect5" /><rect
       display="inline"
       fill="none"
       width="32"
       height="32"
       id="rect7" /></g><g
     id="Layer_1"
     display="none"><rect
       display="inline"
       fill="none"
       width="32"
       height="32"
       id="rect13" /><path
       display="inline"
       fill="#FFFFFF"
       d="M8.228,13.313h3.326V24H8.228V13.313z M9.892,8c1.063,0,1.926,0.863,1.926,1.926   c0,1.063-0.862,1.927-1.926,1.927c-1.068,0-1.928-0.864-1.928-1.927C7.964,8.863,8.824,8,9.892,8"
       id="path15" /><path
       display="inline"
       fill="#FFFFFF"
       d="M13.64,13.313h3.186v1.461h0.045c0.443-0.841,1.528-1.726,3.145-1.726   c3.363,0,3.984,2.212,3.984,5.091V24h-3.32v-5.195c0-1.241-0.024-2.835-1.728-2.835c-1.729,0-1.993,1.35-1.993,2.742V24h-3.32   V13.313z"
       id="path17" /></g><g
     transform="matrix(0.03921857,0,0,0.03990948,0.51604628,-4.220307)"
     id="g4726"><path
       style="fill:#ffffff;fill-opacity:1;stroke-width:25.79999924"
       d="m -16.292969,5.3359375 c -0.406632,0 -0.736328,0.4741997 -0.736328,0.8808594 l 0,0.3476562 c 0,0.2876743 0.16642,0.5357966 0.40625,0.65625 -0.0036,0.047668 -0.0078,0.095904 -0.0078,0.1445313 l 0,6.9257816 c -0.108872,0.205099 -0.214901,0.417205 -0.330079,0.628906 l -5.951171,10.765625 c -0.958404,1.761862 0.865414,3.261719 1.939453,3.261719 l 14.8925779,0 c 1.073994,0 2.9173997,-1.464014 1.9394531,-3.261719 l -5.951172,-10.765625 c -0.115176,-0.211723 -0.221206,-0.423825 -0.330078,-0.628906 l 0,-6.9257816 c 0,-0.048623 -0.0042,-0.096859 -0.0078,-0.1445313 0.239838,-0.1204894 0.40625,-0.3685982 0.40625,-0.65625 l 0,-0.3476562 c 0,-0.4066417 -0.327751,-0.8808594 -0.734374,-0.8808594 l -5.535157,0 z m 3.96875,1.6679687 c 0.188092,0 0.339844,0.1517517 0.339844,0.3398438 l 0,6.710938 c 0,0.188092 -0.151752,0.339843 -0.339844,0.339843 -0.188092,0 -0.339843,-0.151751 -0.339843,-0.339843 l 0,-6.710938 c 0,-0.1880921 0.151751,-0.3398437 0.339843,-0.3398438 z m 0.972657,9.4804688 c 0.322712,-0.04954 0.596961,0.09822 0.853515,0.623047 l 4.1406251,7.86914 c 0.9062149,1.722643 -0.6512036,2.464844 -1.4589843,2.464844 l -11.2011718,0 c -0.807781,0 -2.285571,-0.941096 -1.457031,-2.464844 l 4.058593,-7.46289 c 2.690952,1.055577 4.096315,-0.880677 5.064454,-1.029297 z m -0.945313,2.740234 a 0.46601027,0.46601027 0 0 0 -0.433594,0.464844 0.46601027,0.46601027 0 0 0 0.466797,0.466797 0.46601027,0.46601027 0 0 0 0.464844,-0.466797 0.46601027,0.46601027 0 0 0 -0.464844,-0.464844 0.46601027,0.46601027 0 0 0 -0.0332,0 z m -3.410156,1.214844 a 0.79018642,0.79018642 0 0 0 -0.791016,0.789063 0.79018642,0.79018642 0 0 0 0.791016,0.791015 0.79018642,0.79018642 0 0 0 0.365234,-0.08984 1.3372124,1.3372124 0 0 1 0.265625,-0.226563 0.79018642,0.79018642 0 0 0 0.158203,-0.474609 0.79018642,0.79018642 0 0 0 -0.789062,-0.789063 z m 0.630859,1.263672 a 0.79018642,0.79018642 0 0 1 -0.265625,0.226563 1.3372124,1.3372124 0 0 0 -0.349609,0.898437 1.3372124,1.3372124 0 0 0 1.33789,1.337891 1.3372124,1.3372124 0 0 0 1.337891,-1.337891 1.3372124,1.3372124 0 0 0 -1.337891,-1.337891 1.3372124,1.3372124 0 0 0 -0.722656,0.212891 z"
       transform="matrix(22.207758,0,0,22.207758,695.11929,125.97774)"
       id="rect2985"
       inkscape:connector-curvature="0" /><g
       transform="matrix(1.6291,0,0,1.6291,-1390.6,-814.74)"
       style="fill:#ffffff"
       id="g3213" /></g></svg>