<?xml version="1.0" encoding="UTF-8" standalone="no"?>
<!-- Generator: Adobe Illustrator 12.0.1, SVG Export Plug-In . SVG Version: 6.00 Build 51448)  -->

<svg
   xmlns:dc="http://purl.org/dc/elements/1.1/"
   xmlns:cc="http://creativecommons.org/ns#"
   xmlns:rdf="http://www.w3.org/1999/02/22-rdf-syntax-ns#"
   xmlns:svg="http://www.w3.org/2000/svg"
   xmlns="http://www.w3.org/2000/svg"
   xmlns:xlink="http://www.w3.org/1999/xlink"
   xmlns:sodipodi="http://sodipodi.sourceforge.net/DTD/sodipodi-0.dtd"
   xmlns:inkscape="http://www.inkscape.org/namespaces/inkscape"
   version="1.1"
   id="Layer_1"
   width="280.31631"
   height="340.79553"
   viewBox="0 0 280.31632 340.79554"
   overflow="visible"
   enable-background="new 0 0 820.8 640.8"
   xml:space="preserve"
   inkscape:version="0.91 r13725"
   sodipodi:docname="repronim-logo-vertical.svg"
   inkscape:export-xdpi="40"
   inkscape:export-ydpi="40"
   style="overflow:visible"><metadata
     id="metadata183"><rdf:RDF><cc:Work
         rdf:about=""><dc:format>image/svg+xml</dc:format><dc:type
           rdf:resource="http://purl.org/dc/dcmitype/StillImage" /><dc:title /></cc:Work></rdf:RDF></metadata><defs
     id="defs181"><defs
       id="defs161"><rect
         height="640.79999"
         width="820.79999"
         id="XMLID_7_"
         x="0"
         y="0" /></defs><clipPath
       id="XMLID_12_"><use
         id="use165"
         xlink:href="#XMLID_7_"
         x="0"
         y="0"
         width="100%"
         height="100%" /></clipPath><defs
       id="defs101"><rect
         height="640.79999"
         width="820.79999"
         id="XMLID_5_"
         x="0"
         y="0" /></defs><clipPath
       id="XMLID_11_"><use
         id="use105"
         xlink:href="#XMLID_5_"
         x="0"
         y="0"
         width="100%"
         height="100%" /></clipPath></defs><sodipodi:namedview
     pagecolor="#ffffff"
     bordercolor="#666666"
     borderopacity="1"
     objecttolerance="10"
     gridtolerance="10"
     guidetolerance="10"
     inkscape:pageopacity="0"
     inkscape:pageshadow="2"
     inkscape:window-width="1890"
     inkscape:window-height="1071"
     id="namedview179"
     showgrid="false"
     inkscape:zoom="1.0416804"
     inkscape:cx="176.36672"
     inkscape:cy="142.41113"
     inkscape:current-layer="layer5"
     inkscape:window-x="0"
     inkscape:window-y="0"
     inkscape:window-maximized="0"
     fit-margin-top="0"
     fit-margin-left="0"
     fit-margin-right="0"
     fit-margin-bottom="0" /><rect
     style="opacity:1;fill:#ffffff;fill-opacity:1;fill-rule:nonzero;stroke:none;stroke-width:1;stroke-linecap:square;stroke-miterlimit:4;stroke-dasharray:none;stroke-opacity:1"
     id="rect3501"
     width="280.31631"
     height="340.79553"
     x="0"
     y="0" /><g
     id="g3433"
     transform="translate(-35.51952,-37.927938)"><polygon
       id="polygon3"
       points="99.199,225.715 104.987,225.715 104.987,212.772 108.156,212.772 108.156,228.492 97.886,228.492 92.1,223.42 92.1,203.403 95.269,203.403 95.269,222.269 "
       style="fill:#43b5e8" /><polygon
       id="polygon5"
       points="107.228,246.083 118.769,246.083 118.769,248.859 105.916,248.859 99.902,243.588 100.34,227.071 103.507,227.135 103.102,242.465 "
       style="fill:#43b5e8" /><polygon
       id="polygon7"
       points="159.948,250.711 164.46,250.711 164.46,253.488 161.366,253.488 156.085,258.673 120.062,258.673 108.61,248.444 110.872,246.498 121.393,255.896 154.666,255.896 "
       style="fill:#43b5e8" /><polygon
       id="polygon9"
       points="132.02,266.079 152.995,266.079 152.995,268.856 130.984,268.856 124.424,264.654 124.424,257.284 127.593,257.284 127.593,263.244 "
       style="fill:#43b5e8" /><polygon
       id="polygon11"
       points="147.423,277.929 159.664,277.929 165.622,272.465 165.622,263.765 168.791,263.765 168.791,273.58 161.018,280.707 146.215,280.707 138.369,274.57 138.369,267.467 141.538,267.467 141.538,273.326 "
       style="fill:#43b5e8" /><rect
       id="rect13"
       height="28.885"
       width="3.1689999"
       y="211.92"
       x="171.369"
       style="fill:#43b5e8" /><polyline
       id="polyline15"
       points="183.157,212.846 186.326,212.846 186.326,203.696 183.157,203.697 "
       style="fill:#43b5e8" /><rect
       id="rect17"
       height="8.7799997"
       width="3.1700001"
       y="203.603"
       x="159.283"
       style="fill:#43b5e8" /><polygon
       id="polygon19"
       points="138.667,237.75 132.03,243.083 132.03,246.083 147.536,246.083 159.284,235.786 159.284,230.556 155.675,226.64 133.39,226.64 119.416,237.959 113.898,237.749 114.035,234.973 118.235,235.133 132.15,223.863 157.189,223.863 162.453,229.575 162.453,236.937 148.848,248.859 128.861,248.859 128.861,241.86 137.435,234.972 143.544,234.972 143.544,237.75 "
       style="fill:#43b5e8" /><rect
       id="rect21"
       height="23.700001"
       width="3.1689999"
       y="212.84599"
       x="117.452"
       style="fill:#43b5e8" /><polygon
       id="polygon23"
       points="146.397,203.404 146.397,213.405 140.628,218.679 119.036,218.679 119.036,215.901 139.276,215.901 143.228,212.289 143.228,203.404 "
       style="fill:#43b5e8" /><polygon
       id="polygon25"
       points="185.429,277.929 198.846,277.929 204.496,272.657 204.496,267.467 207.665,267.467 207.665,273.757 200.216,280.707 184.056,280.707 176.82,273.941 176.82,263.765 179.988,263.765 179.988,272.843 "
       style="fill:#43b5e8" /><polygon
       id="polygon27"
       points="221.187,257.284 221.187,264.378 215.567,268.856 193.616,268.856 193.616,266.079 214.342,266.079 218.018,263.15 218.018,257.284 "
       style="fill:#43b5e8" /><g
       id="g29"><defs
         id="defs31"><rect
           height="640.79999"
           width="820.79999"
           id="XMLID_1_"
           x="0"
           y="0" /></defs><clipPath
         id="XMLID_9_"><use
           id="use35"
           xlink:href="#XMLID_1_"
           x="0"
           y="0"
           width="100%"
           height="100%" /></clipPath><path
         id="path37"
         d="m 225.577,258.672 -35.042,0 -7.259,-4.958 c -0.849,-0.073 -1.728,-0.095 -1.988,-0.044 0,0 0.061,-0.013 0.148,-0.051 l -0.417,-2.484 c 0.263,-0.116 0.062,-0.466 3.075,-0.136 l 0.432,0.047 7.099,4.849 32.565,0 9.882,-9.368 2.328,1.886 -10.823,10.259 z"
         clip-path="url(#XMLID_9_)"
         inkscape:connector-curvature="0"
         style="fill:#43b5e8" /><polygon
         id="polygon39"
         points="245.483,227.104 245.483,244.176 239.886,248.859 226.574,248.859 226.574,246.083 238.615,246.083 242.314,242.988 242.314,227.104 "
         clip-path="url(#XMLID_9_)"
         style="fill:#43b5e8" /><polygon
         id="polygon41"
         points="240.412,225.715 246.366,225.715 249.708,222.493 249.708,203.696 252.877,203.696 252.877,223.566 247.768,228.492 237.243,228.492 237.243,212.846 240.412,212.846 "
         clip-path="url(#XMLID_9_)"
         style="fill:#43b5e8" /><polygon
         id="polygon43"
         points="227.228,234.993 232.128,235.158 232.007,237.935 225.922,237.729 212.427,226.64 190.796,226.64 186.326,229.803 186.326,235.786 198.074,246.083 213.37,246.083 213.37,243.232 207.301,237.913 202.429,237.75 202.55,234.973 208.664,235.179 216.539,242.081 216.539,248.859 196.763,248.859 183.157,236.937 183.157,228.477 189.675,223.863 213.679,223.863 "
         clip-path="url(#XMLID_9_)"
         style="fill:#43b5e8" /><rect
         id="rect45"
         height="24.441"
         width="3.1689999"
         clip-path="url(#XMLID_9_)"
         y="211.92"
         x="224.989"
         style="fill:#43b5e8" /><polygon
         id="polygon47"
         points="205.933,215.901 226.574,215.901 226.574,218.679 204.539,218.679 199.003,213.387 199.003,203.404 202.172,203.404 202.172,212.306 "
         clip-path="url(#XMLID_9_)"
         style="fill:#43b5e8" /><path
         id="path49"
         d="m 110.722,210.124 c 0,2.104 -1.948,3.81 -4.349,3.81 -2.401,0 -4.349,-1.706 -4.349,-3.81 0,-2.105 1.948,-3.811 4.349,-3.811 2.401,-10e-4 4.349,1.706 4.349,3.811 m -4.349,-1.853 c -1.167,0 -2.113,0.829 -2.113,1.852 0,1.022 0.946,1.851 2.113,1.851 1.167,0 2.112,-0.829 2.112,-1.851 0,-1.022 -0.945,-1.852 -2.112,-1.852"
         clip-path="url(#XMLID_9_)"
         inkscape:connector-curvature="0"
         style="fill:#43b5e8" /><path
         id="path51"
         d="m 123.385,210.124 c 0,2.104 -1.947,3.81 -4.349,3.81 -2.401,0 -4.348,-1.706 -4.348,-3.81 0,-2.105 1.947,-3.811 4.348,-3.811 2.402,-10e-4 4.349,1.706 4.349,3.811 m -4.349,-1.853 c -1.166,0 -2.112,0.829 -2.112,1.852 0,1.022 0.946,1.851 2.112,1.851 1.167,0 2.113,-0.829 2.113,-1.851 0,-1.022 -0.946,-1.852 -2.113,-1.852"
         clip-path="url(#XMLID_9_)"
         inkscape:connector-curvature="0"
         style="fill:#43b5e8" /><path
         id="path53"
         d="m 116.065,236.362 c 0,2.104 -1.947,3.811 -4.348,3.811 -2.402,0 -4.349,-1.707 -4.349,-3.811 0,-2.105 1.947,-3.811 4.349,-3.811 2.401,0 4.348,1.706 4.348,3.811 m -4.348,-1.852 c -1.167,0 -2.113,0.829 -2.113,1.852 0,1.022 0.946,1.851 2.113,1.851 1.166,0 2.112,-0.829 2.112,-1.851 0,-1.023 -0.946,-1.852 -2.112,-1.852"
         clip-path="url(#XMLID_9_)"
         inkscape:connector-curvature="0"
         style="fill:#43b5e8" /><path
         id="path55"
         d="m 150.762,236.547 c 0,2.105 -1.947,3.811 -4.348,3.811 -2.402,0 -4.349,-1.706 -4.349,-3.811 0,-2.105 1.947,-3.811 4.349,-3.811 2.401,0 4.348,1.706 4.348,3.811 m -4.348,-1.852 c -1.167,0 -2.113,0.829 -2.113,1.852 0,1.022 0.946,1.851 2.113,1.851 1.166,0 2.112,-0.829 2.112,-1.851 0,-1.023 -0.946,-1.852 -2.112,-1.852"
         clip-path="url(#XMLID_9_)"
         inkscape:connector-curvature="0"
         style="fill:#43b5e8" /><path
         id="path57"
         d="m 126.466,247.471 c 0,2.105 -1.948,3.811 -4.349,3.811 -2.401,0 -4.349,-1.706 -4.349,-3.811 0,-2.105 1.948,-3.811 4.349,-3.811 2.402,0 4.349,1.706 4.349,3.811 m -4.349,-1.852 c -1.167,0 -2.112,0.829 -2.112,1.852 0,1.022 0.945,1.851 2.112,1.851 1.167,0 2.113,-0.829 2.113,-1.851 0,-1.023 -0.946,-1.852 -2.113,-1.852"
         clip-path="url(#XMLID_9_)"
         inkscape:connector-curvature="0"
         style="fill:#43b5e8" /><path
         id="path59"
         d="m 160.692,267.576 c 0,2.104 -1.947,3.811 -4.348,3.811 -2.402,0 -4.349,-1.707 -4.349,-3.811 0,-2.105 1.947,-3.811 4.349,-3.811 2.401,0 4.348,1.706 4.348,3.811 m -4.348,-1.852 c -1.167,0 -2.113,0.829 -2.113,1.852 0,1.022 0.946,1.851 2.113,1.851 1.167,0 2.112,-0.829 2.112,-1.851 0,-1.023 -0.945,-1.852 -2.112,-1.852"
         clip-path="url(#XMLID_9_)"
         inkscape:connector-curvature="0"
         style="fill:#43b5e8" /><path
         id="path61"
         d="m 171.555,261.096 c 0,2.104 -1.947,3.81 -4.348,3.81 -2.402,0 -4.349,-1.706 -4.349,-3.81 0,-2.105 1.947,-3.811 4.349,-3.811 2.401,0 4.348,1.706 4.348,3.811 m -4.348,-1.852 c -1.167,0 -2.113,0.829 -2.113,1.852 0,1.022 0.946,1.851 2.113,1.851 1.166,0 2.112,-0.829 2.112,-1.851 0,-1.023 -0.946,-1.852 -2.112,-1.852"
         clip-path="url(#XMLID_9_)"
         inkscape:connector-curvature="0"
         style="fill:#43b5e8" /><path
         id="path63"
         d="m 182.752,261.096 c 0,2.104 -1.947,3.81 -4.348,3.81 -2.402,0 -4.349,-1.706 -4.349,-3.81 0,-2.105 1.947,-3.811 4.349,-3.811 2.402,0 4.348,1.706 4.348,3.811 m -4.348,-1.852 c -1.167,0 -2.113,0.829 -2.113,1.852 0,1.022 0.946,1.851 2.113,1.851 1.166,0 2.112,-0.829 2.112,-1.851 0.001,-1.023 -0.946,-1.852 -2.112,-1.852"
         clip-path="url(#XMLID_9_)"
         inkscape:connector-curvature="0"
         style="fill:#43b5e8" /><path
         id="path65"
         d="m 171.555,252.023 c 0,2.105 -1.947,3.811 -4.348,3.811 -2.402,0 -4.349,-1.706 -4.349,-3.811 0,-2.105 1.947,-3.811 4.349,-3.811 2.401,0 4.348,1.706 4.348,3.811 m -4.348,-1.852 c -1.167,0 -2.113,0.829 -2.113,1.852 0,1.022 0.946,1.851 2.113,1.851 1.166,0 2.112,-0.829 2.112,-1.851 0,-1.023 -0.946,-1.852 -2.112,-1.852"
         clip-path="url(#XMLID_9_)"
         inkscape:connector-curvature="0"
         style="fill:#43b5e8" /><path
         id="path67"
         d="m 182.752,252.023 c 0,2.105 -1.947,3.811 -4.348,3.811 -2.402,0 -4.349,-1.706 -4.349,-3.811 0,-2.105 1.947,-3.811 4.349,-3.811 2.402,0 4.348,1.706 4.348,3.811 m -4.348,-1.852 c -1.167,0 -2.113,0.829 -2.113,1.852 0,1.022 0.946,1.851 2.113,1.851 1.166,0 2.112,-0.829 2.112,-1.851 0.001,-1.023 -0.946,-1.852 -2.112,-1.852"
         clip-path="url(#XMLID_9_)"
         inkscape:connector-curvature="0"
         style="fill:#43b5e8" /><path
         id="path69"
         d="m 195.024,267.468 c 0,2.104 -1.948,3.811 -4.349,3.811 -2.401,0 -4.349,-1.707 -4.349,-3.811 0,-2.105 1.948,-3.811 4.349,-3.811 2.401,0 4.349,1.706 4.349,3.811 m -4.349,-1.852 c -1.167,0 -2.112,0.829 -2.112,1.852 0,1.022 0.945,1.851 2.112,1.851 1.167,0 2.113,-0.829 2.113,-1.851 0,-1.023 -0.946,-1.852 -2.113,-1.852"
         clip-path="url(#XMLID_9_)"
         inkscape:connector-curvature="0"
         style="fill:#43b5e8" /><path
         id="path71"
         d="m 177.302,242.951 c 0,2.104 -1.948,3.811 -4.349,3.811 -2.401,0 -4.349,-1.707 -4.349,-3.811 0,-2.105 1.948,-3.811 4.349,-3.811 2.401,0 4.349,1.706 4.349,3.811 m -4.349,-1.852 c -1.167,0 -2.112,0.829 -2.112,1.852 0,1.022 0.945,1.851 2.112,1.851 1.167,0 2.112,-0.829 2.112,-1.851 0,-1.023 -0.945,-1.852 -2.112,-1.852"
         clip-path="url(#XMLID_9_)"
         inkscape:connector-curvature="0"
         style="fill:#43b5e8" /><path
         id="path73"
         d="m 203.841,236.362 c 0,2.104 -1.947,3.811 -4.349,3.811 -2.401,0 -4.348,-1.707 -4.348,-3.811 0,-2.105 1.947,-3.811 4.348,-3.811 2.403,0 4.349,1.706 4.349,3.811 m -4.349,-1.852 c -1.166,0 -2.112,0.829 -2.112,1.852 0,1.022 0.946,1.851 2.112,1.851 1.167,0 2.113,-0.829 2.113,-1.851 0,-1.023 -0.946,-1.852 -2.113,-1.852"
         clip-path="url(#XMLID_9_)"
         inkscape:connector-curvature="0"
         style="fill:#43b5e8" /><path
         id="path75"
         d="m 239.585,236.362 c 0,2.104 -1.948,3.811 -4.349,3.811 -2.401,0 -4.349,-1.707 -4.349,-3.811 0,-2.105 1.948,-3.811 4.349,-3.811 2.402,0 4.349,1.706 4.349,3.811 m -4.349,-1.852 c -1.167,0 -2.113,0.829 -2.113,1.852 0,1.022 0.946,1.851 2.113,1.851 1.167,0 2.112,-0.829 2.112,-1.851 10e-4,-1.023 -0.945,-1.852 -2.112,-1.852"
         clip-path="url(#XMLID_9_)"
         inkscape:connector-curvature="0"
         style="fill:#43b5e8" /><path
         id="path77"
         d="m 228.138,247.471 c 0,2.105 -1.948,3.811 -4.349,3.811 -2.401,0 -4.349,-1.706 -4.349,-3.811 0,-2.105 1.948,-3.811 4.349,-3.811 2.401,0 4.349,1.706 4.349,3.811 m -4.349,-1.852 c -1.167,0 -2.113,0.829 -2.113,1.852 0,1.022 0.946,1.851 2.113,1.851 1.167,0 2.112,-0.829 2.112,-1.851 0,-1.023 -0.944,-1.852 -2.112,-1.852"
         clip-path="url(#XMLID_9_)"
         inkscape:connector-curvature="0"
         style="fill:#43b5e8" /><path
         id="path79"
         d="m 231.25,210.124 c 0,2.104 -1.948,3.81 -4.349,3.81 -2.401,0 -4.349,-1.706 -4.349,-3.81 0,-2.105 1.948,-3.811 4.349,-3.811 2.402,-10e-4 4.349,1.706 4.349,3.811 m -4.349,-1.853 c -1.167,0 -2.112,0.829 -2.112,1.852 0,1.022 0.945,1.851 2.112,1.851 1.167,0 2.113,-0.829 2.113,-1.851 10e-4,-1.022 -0.946,-1.852 -2.113,-1.852"
         clip-path="url(#XMLID_9_)"
         inkscape:connector-curvature="0"
         style="fill:#43b5e8" /><path
         id="path81"
         d="m 243.308,210.124 c 0,2.104 -1.947,3.81 -4.348,3.81 -2.402,0 -4.349,-1.706 -4.349,-3.81 0,-2.105 1.947,-3.811 4.349,-3.811 2.401,-10e-4 4.348,1.706 4.348,3.811 m -4.348,-1.853 c -1.167,0 -2.113,0.829 -2.113,1.852 0,1.022 0.946,1.851 2.113,1.851 1.166,0 2.112,-0.829 2.112,-1.851 0,-1.022 -0.946,-1.852 -2.112,-1.852"
         clip-path="url(#XMLID_9_)"
         inkscape:connector-curvature="0"
         style="fill:#43b5e8" /><path
         id="path83"
         d="m 177.302,209.514 c 0,2.104 -1.948,3.81 -4.349,3.81 -2.401,0 -4.349,-1.706 -4.349,-3.81 0,-2.105 1.948,-3.811 4.349,-3.811 2.401,0 4.349,1.706 4.349,3.811 m -4.349,-1.852 c -1.167,0 -2.112,0.829 -2.112,1.852 0,1.022 0.945,1.851 2.112,1.851 1.167,0 2.112,-0.829 2.112,-1.851 0,-1.023 -0.945,-1.852 -2.112,-1.852"
         clip-path="url(#XMLID_9_)"
         inkscape:connector-curvature="0"
         style="fill:#43b5e8" /><path
         id="path85"
         d="m 165.041,215.786 c 0,2.105 -1.947,3.811 -4.349,3.811 -2.401,0 -4.348,-1.706 -4.348,-3.811 0,-2.105 1.947,-3.811 4.348,-3.811 2.402,0 4.349,1.706 4.349,3.811 m -4.35,-1.852 c -1.166,0 -2.112,0.829 -2.112,1.852 0,1.023 0.946,1.851 2.112,1.851 1.167,0 2.113,-0.828 2.113,-1.851 0,-1.023 -0.946,-1.852 -2.113,-1.852"
         clip-path="url(#XMLID_9_)"
         inkscape:connector-curvature="0"
         style="fill:#43b5e8" /><path
         id="path87"
         d="m 189.091,215.786 c 0,2.105 -1.948,3.811 -4.349,3.811 -2.401,0 -4.349,-1.706 -4.349,-3.811 0,-2.105 1.948,-3.811 4.349,-3.811 2.402,0 4.349,1.706 4.349,3.811 m -4.349,-1.852 c -1.167,0 -2.113,0.829 -2.113,1.852 0,1.023 0.946,1.851 2.113,1.851 1.167,0 2.112,-0.828 2.112,-1.851 0,-1.023 -0.945,-1.852 -2.112,-1.852"
         clip-path="url(#XMLID_9_)"
         inkscape:connector-curvature="0"
         style="fill:#43b5e8" /></g><g
       id="g89"><defs
         id="defs91"><rect
           height="99.205002"
           width="182.188"
           y="68.278"
           x="78.482002"
           id="XMLID_3_" /></defs><clipPath
         id="XMLID_10_"><use
           id="use95"
           xlink:href="#XMLID_3_"
           x="0"
           y="0"
           width="100%"
           height="100%" /></clipPath><path
         id="path97"
         d="m 254.634,205.125 c -0.076,-0.315 -0.154,-0.631 -0.24,-0.948 -0.134,-0.494 -0.034,-1.016 0.283,-1.442 11.781,-15.814 3.603,-28.107 -2.551,-34.173 -2.198,-2.166 -2.722,-5.21 -1.335,-7.756 2.967,-5.449 3.174,-11.411 0.598,-17.244 -4.129,-9.344 -10.676,-12.85 -15.442,-14.145 -3.395,-0.922 -5.787,-3.595 -5.951,-6.649 -0.338,-6.266 -3.065,-15.152 -14.137,-21.905 -6.869,-4.189 -13.952,-6.313 -21.054,-6.313 -9.474,0 -16.952,3.783 -21.556,6.956 -0.269,0.185 -0.528,0.378 -0.778,0.576 -0.814,0.645 -2.02,0.645 -2.835,0 -0.25,-0.198 -0.508,-0.391 -0.777,-0.576 -4.604,-3.173 -12.082,-6.956 -21.557,-6.956 -7.1,0 -14.183,2.124 -21.053,6.313 -11.073,6.753 -13.799,15.639 -14.137,21.905 -0.164,3.054 -2.557,5.727 -5.951,6.649 -4.767,1.295 -11.315,4.802 -15.442,14.145 -2.575,5.832 -2.369,11.794 0.599,17.245 1.386,2.545 0.861,5.589 -1.336,7.755 -6.153,6.067 -14.331,18.358 -2.552,34.173 0.318,0.426 0.417,0.947 0.284,1.442 -0.086,0.317 -0.164,0.633 -0.241,0.948 -0.553,1.907 -0.648,3.458 -0.647,4.294 -0.503,8.655 3.746,16.115 7.933,21.272 4.172,5.138 11,8.411 19.536,9.298 0.879,0.092 1.605,0.641 1.776,1.402 1.056,4.697 4.407,13.818 14.855,19.541 5.213,2.856 12.19,4.303 20.737,4.303 2.588,0 5.33,-0.134 8.149,-0.4 3.784,-0.356 7.177,-1.732 9.84,-3.796 0.809,-0.626 1.995,-0.626 2.804,0 2.663,2.064 6.055,3.44 9.84,3.796 2.819,0.266 5.56,0.4 8.149,0.4 l 0.001,0 c 8.547,0 15.523,-1.448 20.735,-4.303 10.45,-5.723 13.801,-14.845 14.857,-19.542 0.171,-0.761 0.898,-1.31 1.776,-1.402 8.534,-0.886 15.362,-4.158 19.535,-9.297 4.188,-5.157 8.436,-12.618 7.933,-21.274 0.002,-0.835 -0.094,-2.386 -0.648,-4.292 m -95.781,51.88 c -2.501,0.236 -4.92,0.356 -7.189,0.356 -6.838,0 -12.212,-1.046 -15.974,-3.106 -4.89,-2.679 -8.3,-6.725 -10.131,-12.029 -0.111,-0.322 -0.234,-0.638 -0.369,-0.948 -0.399,-0.921 0.054,-1.94 1.077,-2.346 5.015,-1.987 11.242,-5.616 16.389,-12.203 0.077,-0.059 0.163,-0.103 0.236,-0.167 0.048,-0.041 4.919,-4.042 10.909,-2.714 3.549,0.791 7.194,-2.369 4.871,-6.334 -0.25,-0.427 -0.678,-0.771 -1.199,-0.922 -2.068,-0.602 -4.021,-0.869 -5.841,-0.904 -1.377,-0.025 -2.376,-1.148 -1.992,-2.308 0.247,-0.741 0.48,-1.505 0.692,-2.298 0.131,-0.486 0.016,-1.006 -0.293,-1.425 -2.792,-3.789 -7.783,-2.542 -8.728,0.586 -6.249,20.704 -19.9,22.623 -26.25,22.102 -0.158,-0.013 -0.305,-0.045 -0.455,-0.091 -0.625,-0.19 -1.264,-0.351 -1.918,-0.478 -4.741,-0.921 -8.309,-2.821 -10.607,-5.651 -4.379,-5.393 -6.477,-10.711 -6.296,-15.876 0.021,-0.15 0.012,-0.306 0.013,-0.459 0.06,-0.985 0.213,-1.963 0.442,-2.936 0.017,-0.072 0.036,-0.142 0.061,-0.213 0.711,-2.055 2.429,-4.85 6.591,-7.019 0.549,-0.286 0.945,-0.763 1.04,-1.316 0.786,-4.547 -3.948,-6.51 -7.026,-4.676 -0.532,0.317 -1.036,0.642 -1.514,0.973 -1.059,0.735 -2.65,0.395 -3.167,-0.699 -3.355,-7.11 -1.875,-13.852 4.473,-20.111 0.538,-0.53 1.022,-1.088 1.466,-1.668 0.053,-0.052 2.966,-2.974 7.639,-6.07 0.265,-0.176 0.572,-0.293 0.899,-0.342 3.149,-0.468 13.667,-1.532 18.815,4.084 0.887,0.969 2.191,1.472 3.505,1.472 2.166,0 4.655,-1.688 4.522,-3.724 -0.15,-2.281 -2.112,-3.96 -4.006,-5.325 -0.994,-0.716 -2.065,-1.348 -3.189,-1.895 -0.546,-0.265 -1.104,-0.51 -1.673,-0.735 -0.331,-0.131 -1.147,-0.59 -1.503,-0.542 1.323,-0.177 2.724,-0.049 3.999,-0.464 1.447,-0.471 2.224,-1.821 2.423,-3.106 0.381,-2.453 -1.905,-4.647 -4.734,-4.512 -9.078,0.509 -16.808,3.835 -22.399,7.162 -1.053,0.627 -2.487,0.293 -3.035,-0.713 -1.901,-3.493 -2.012,-7.197 -0.328,-11.01 2.274,-5.145 5.545,-8.331 9.724,-9.467 1.091,-0.296 2.129,-0.686 3.107,-1.152 0.759,-0.361 1.696,-0.287 2.338,0.217 5.64,4.43 14.114,7.81 22.116,8.718 2.939,0.57 7.146,3.635 7.542,6.063 0.321,1.964 2.243,3.381 4.442,3.381 0.212,0 0.427,-0.014 0.641,-0.04 2.458,-0.309 4.163,-2.303 3.812,-4.456 -0.276,-1.69 -0.916,-3.278 -1.847,-4.71 -0.534,-0.822 -0.203,-1.933 0.731,-2.408 2.714,-1.382 4.885,-3.331 6.359,-5.799 0.246,-0.413 0.279,-0.902 0.135,-1.351 -1.371,-4.268 -6.468,-4.424 -8.469,-1.741 -1.684,2.26 -4.754,3.416 -9.12,3.434 l -0.097,0 c -6.868,0 -15.296,-2.994 -20.211,-6.878 -0.647,-0.511 -0.856,-1.324 -0.52,-2.03 0.753,-1.579 1.21,-3.28 1.306,-5.047 0.352,-6.541 3.816,-11.862 10.294,-15.812 5.335,-3.253 10.691,-4.903 15.921,-4.903 6.905,0 12.514,2.867 16.003,5.273 1.751,1.206 2.878,2.913 3.214,4.801 0.027,0.144 0.031,0.292 0.019,0.438 -0.022,0.25 -0.046,0.499 -0.046,0.753 l 0.001,74.597 c 0,1.276 -1.466,2.164 -2.816,1.686 -0.954,-0.338 -1.985,-0.627 -3.101,-0.855 -0.532,-0.109 -1.102,-0.012 -1.569,0.238 -4.344,2.321 -3.114,6.69 0.393,7.635 5.635,1.519 6.826,6.442 7.08,8.394 0.009,0.072 0.012,0.137 0.012,0.209 l 0,43.842 c 0,0.339 0.029,0.672 0.054,1.006 -0.52,3.439 -3.649,6.184 -7.694,6.564 m 81.176,-30.88 c -2.298,2.83 -5.867,4.731 -10.608,5.651 -0.38,0.074 -0.753,0.162 -1.123,0.259 -0.16,0.041 -0.315,0.066 -0.48,0.072 -4.53,0.176 -15.648,0.431 -24.03,-12.286 -0.304,-0.46 -0.822,-0.794 -1.418,-0.895 -5.125,-0.873 -7.554,3.179 -5.607,5.945 0.347,0.491 0.699,0.962 1.055,1.422 -4.311,-0.215 -9.156,0.034 -13.882,1.313 -0.538,0.145 -0.984,0.491 -1.244,0.929 -2.366,3.994 1.34,7.162 4.886,6.347 10.071,-2.301 21.208,1.177 21.368,1.228 0.2,0.064 0.403,0.111 0.605,0.147 0.218,0.037 0.432,0.099 0.625,0.194 1.948,0.956 3.852,1.666 5.636,2.191 1.112,0.327 1.659,1.421 1.224,2.374 -0.181,0.395 -0.343,0.798 -0.485,1.21 -1.832,5.303 -5.241,9.349 -10.132,12.029 -3.762,2.061 -9.136,3.106 -15.974,3.106 -2.27,0 -4.688,-0.12 -7.188,-0.356 -4.046,-0.38 -7.176,-3.125 -7.695,-6.564 0.025,-0.334 0.054,-0.667 0.054,-1.006 l 0,-68.466 c 0,-1.499 1.981,-2.378 3.318,-1.443 1.206,0.843 2.529,1.599 3.981,2.235 0.644,0.282 1.33,0.416 2.006,0.416 2.71,0 4.615,-2.058 4.533,-4.349 -0.093,-2.597 -3.38,-3.304 -5.307,-4.729 -1.586,-1.173 -2.887,-2.619 -3.957,-4.171 -2.483,-3.602 -3.928,-7.843 -4.558,-12.003 -0.012,-0.079 -0.016,-0.151 -0.016,-0.231 l 0,-43.005 c 0,-0.254 -0.025,-0.503 -0.046,-0.753 -0.012,-0.146 -0.008,-0.294 0.019,-0.438 0.336,-1.888 1.462,-3.595 3.213,-4.801 3.49,-2.406 9.099,-5.273 16.003,-5.273 5.232,0 10.588,1.65 15.922,4.903 6.478,3.95 9.942,9.271 10.294,15.812 0.097,1.784 0.562,3.502 1.328,5.095 0.296,0.616 0.166,1.329 -0.332,1.836 -3.008,3.062 -9.506,8.039 -19.536,7.393 -3.688,-0.222 -6.584,3.412 -3.57,6.988 0.342,0.405 0.864,0.683 1.436,0.742 1.38,0.141 2.699,0.205 3.977,0.205 11.442,0 19.215,-5.225 23.476,-9.205 0.647,-0.604 1.662,-0.741 2.497,-0.351 0.944,0.441 1.942,0.811 2.989,1.096 4.179,1.136 7.45,4.321 9.724,9.467 1.684,3.813 1.573,7.517 -0.328,11.009 -0.495,0.91 -0.679,2.065 -1.396,2.848 -0.57,0.622 -1.357,1.01 -2.205,1.269 -1.689,0.515 -3.513,0.491 -5.23,0.9 -3.115,0.741 -6.12,1.916 -8.737,3.583 -0.427,0.272 -0.946,0.405 -1.471,0.346 -1.848,-0.212 -4.8,-1.248 -6.781,-5.394 -0.248,-0.52 -0.735,-0.932 -1.352,-1.091 -5.046,-1.301 -7.897,2.558 -6.235,5.473 2.019,3.539 4.733,5.76 7.495,7.103 0.899,0.438 1.317,1.352 0.977,2.202 -0.432,1.083 -0.77,2.248 -0.989,3.509 -0.076,0.432 0.043,0.881 0.306,1.253 1.145,1.621 2.809,2.318 4.339,2.318 2.073,0 3.937,-1.265 4.389,-3.113 2.218,-9.078 14.853,-9.215 15.451,-9.216 0.348,0 0.682,-0.042 1.008,-0.108 0.732,1.615 1.785,3.141 3.16,4.497 6.348,6.259 7.829,13.002 4.473,20.111 -0.517,1.097 -2.11,1.432 -3.172,0.696 -0.832,-0.577 -1.746,-1.135 -2.748,-1.667 -0.478,-0.253 -1.066,-0.316 -1.607,-0.197 -4.952,1.094 -5.246,5.595 -2.209,7.405 3.483,2.076 4.998,4.587 5.656,6.486 0.025,0.071 0.045,0.141 0.062,0.214 0.227,0.966 0.381,1.937 0.442,2.915 0,0.141 -0.002,0.282 0.015,0.419 0.204,5.189 -1.893,10.533 -6.294,15.95"
         clip-path="url(#XMLID_10_)"
         inkscape:connector-curvature="0"
         style="fill:#43b5e8" /></g><circle
       clip-path="url(#XMLID_11_)"
       stroke-miterlimit="10"
       cx="173.82001"
       cy="187.511"
       r="123.337"
       id="circle107"
       style="fill:none;stroke:#43b5e8;stroke-width:10;stroke-miterlimit:10" /><rect
       x="89.843002"
       y="165.28799"
       clip-path="url(#XMLID_11_)"
       width="163.05299"
       height="48.035999"
       id="rect109"
       style="fill:#ffffff" /><rect
       x="174.215"
       y="48.118999"
       transform="matrix(0.295,-0.9555,0.9555,0.295,75.8585,232.0421)"
       clip-path="url(#XMLID_12_)"
       width="41.936001"
       height="32.986"
       id="rect167"
       style="fill:#ffffff" /><polygon
       clip-path="url(#XMLID_12_)"
       points="158.859,82.021 195.743,64.174 158.859,46.327 "
       id="polygon169"
       style="fill:#43b5e8" /><rect
       x="34.210999"
       y="196.20799"
       clip-path="url(#XMLID_12_)"
       width="41.937"
       height="29.667"
       id="rect171"
       style="fill:#ffffff" /><rect
       x="258.405"
       y="235.84399"
       transform="matrix(0.8877,0.4603,-0.4603,0.8877,148.205,-100.1136)"
       clip-path="url(#XMLID_12_)"
       width="41.937"
       height="35.951"
       id="rect173"
       style="fill:#ffffff" /><polygon
       clip-path="url(#XMLID_12_)"
       points="276.137,213.274 276.137,254.249 308.267,228.821 "
       id="polygon175"
       style="fill:#43b5e8" /><polygon
       clip-path="url(#XMLID_12_)"
       points="81.72,241.174 52.746,212.201 48.007,252.899 "
       id="polygon177"
       style="fill:#43b5e8" /></g><g
     inkscape:groupmode="layer"
     id="layer5"
     inkscape:label="text - font"
     style="display:none"><text
       y="189.03377"
       x="82.500893"
       style="font-style:normal;font-variant:normal;font-weight:900;font-stretch:normal;font-size:43.75px;line-height:125%;font-family:Roboto;-inkscape-font-specification:'Roboto, Heavy';text-align:start;writing-mode:lr-tb;text-anchor:start;overflow:visible"
       sodipodi:linespacing="125%"
       id="text111"
       transform="matrix(0.93576532,0,0,1.068644,-35.51952,-37.927938)"><tspan
         style="font-style:normal;font-variant:normal;font-weight:900;font-stretch:normal;font-size:43.75px;line-height:125%;font-family:Roboto;-inkscape-font-specification:'Roboto, Heavy';text-align:start;writing-mode:lr-tb;text-anchor:start;fill:#f79127"
         id="tspan113"
         font-size="40.2794"
         y="189.03377"
         x="82.500893">ReproNim</tspan></text>
<g
       style="overflow:visible"
       id="g3411"
       transform="translate(-3.3599446,-0.95998883)"><text
         y="307.97977"
         x="37.790623"
         style="font-style:normal;font-variant:normal;font-weight:900;font-stretch:normal;font-size:17.5px;line-height:125%;font-family:Roboto;-inkscape-font-specification:'Roboto, Heavy';text-align:start;writing-mode:lr-tb;text-anchor:start"
         sodipodi:linespacing="125%"
         id="text121"><tspan
           style="font-style:normal;font-variant:normal;font-weight:900;font-stretch:normal;font-size:17.5px;line-height:125%;font-family:Roboto;-inkscape-font-specification:'Roboto, Heavy';text-align:start;writing-mode:lr-tb;text-anchor:start;fill:#444041"
           id="tspan123"
           font-size="16"
           y="307.97977"
           x="37.790623">A Center for Reproducible </tspan></text>
<text
         y="326.69995"
         x="31.070711"
         style="font-style:normal;font-variant:normal;font-weight:900;font-stretch:normal;font-size:17.5px;line-height:125%;font-family:Roboto;-inkscape-font-specification:'Roboto, Heavy';text-align:start;writing-mode:lr-tb;text-anchor:start"
         sodipodi:linespacing="125%"
         id="text145"><tspan
           style="font-style:normal;font-variant:normal;font-weight:900;font-stretch:normal;font-size:17.5px;line-height:125%;font-family:Roboto;-inkscape-font-specification:'Roboto, Heavy';text-align:start;writing-mode:lr-tb;text-anchor:start;fill:#444041"
           id="tspan147"
           font-size="16"
           y="326.69995"
           x="31.070711">Neuroimaging Computation</tspan></text>
</g></g><g
     inkscape:groupmode="layer"
     id="layer6"
     inkscape:label="text - path"
     style="display:inline"><g
       transform="matrix(0.93576532,0,0,1.068644,-35.51952,-37.927938)"
       style="font-style:normal;font-variant:normal;font-weight:900;font-stretch:normal;font-size:43.75px;line-height:125%;font-family:Roboto;-inkscape-font-specification:'Roboto, Heavy';text-align:start;writing-mode:lr-tb;text-anchor:start;overflow:visible"
       id="text5629"><path
         d="m 96.407753,178.05354 -4.058838,0 0,10.98023 -7.498169,0 0,-31.10352 12.240601,0 q 5.532833,0 8.651733,2.45667 3.1189,2.45666 3.1189,6.94275 0,3.24707 -1.32447,5.3833 -1.3031,2.13623 -4.10156,3.46069 l 6.49414,12.53967 0,0.32044 -8.03222,0 -5.490117,-10.98023 z m -4.058838,-5.78918 4.742432,0 q 2.13623,0 3.204343,-1.11084 1.08948,-1.1322 1.08948,-3.14026 0,-2.00806 -1.08948,-3.14026 -1.089475,-1.15356 -3.204343,-1.15356 l -4.742432,0 0,8.54492 z"
         style="font-style:normal;font-variant:normal;font-weight:900;font-stretch:normal;font-size:43.75px;line-height:125%;font-family:Roboto;-inkscape-font-specification:'Roboto, Heavy';text-align:start;writing-mode:lr-tb;text-anchor:start;fill:#f79127"
         id="path5656"
         inkscape:connector-curvature="0" /><path
         d="m 124.24284,189.46101 q -5.31922,0 -8.60901,-3.16162 -3.2898,-3.18298 -3.2898,-8.26721 l 0,-0.59814 q 0,-3.54615 1.3031,-6.25916 1.32447,-2.71301 3.84522,-4.18701 2.52075,-1.49536 5.98144,-1.49536 4.87061,0 7.69043,3.03345 2.81983,3.01208 2.81983,8.41674 l 0,2.79847 -14.31275,0 q 0.38452,1.94396 1.68762,3.0548 1.30311,1.11084 3.37525,1.11084 3.41797,0 5.34058,-2.39257 l 3.28979,3.88794 q -1.34583,1.85852 -3.82385,2.96936 -2.45667,1.08947 -5.29785,1.08947 z m -0.81177,-18.4143 q -3.16162,0 -3.75977,4.18701 l 7.26319,0 0,-0.55542 q 0.0427,-1.73035 -0.87586,-2.67029 -0.91858,-0.9613 -2.62756,-0.9613 z"
         style="font-style:normal;font-variant:normal;font-weight:900;font-stretch:normal;font-size:43.75px;line-height:125%;font-family:Roboto;-inkscape-font-specification:'Roboto, Heavy';text-align:start;writing-mode:lr-tb;text-anchor:start;fill:#f79127"
         id="path5658"
         inkscape:connector-curvature="0" /><path
         d="m 158.35844,177.64766 q 0,5.3833 -2.43531,8.60901 -2.41394,3.20434 -6.53686,3.20434 -3.18298,0 -5.23377,-2.32849 l 0,10.78797 -7.19909,0 0,-32.00074 6.72912,0 0.21363,2.13623 q 2.07214,-2.56347 5.44738,-2.56347 4.27246,0 6.64368,3.16162 2.37122,3.14026 2.37122,8.65173 l 0,0.3418 z m -7.1991,-0.44861 q 0,-6.15234 -3.58887,-6.15234 -2.56347,0 -3.41797,1.83716 l 0,9.10034 q 0.93995,1.9226 3.4607,1.9226 3.43933,0 3.54614,-5.93872 l 0,-0.76904 z"
         style="font-style:normal;font-variant:normal;font-weight:900;font-stretch:normal;font-size:43.75px;line-height:125%;font-family:Roboto;-inkscape-font-specification:'Roboto, Heavy';text-align:start;writing-mode:lr-tb;text-anchor:start;fill:#f79127"
         id="path5660"
         inkscape:connector-curvature="0" /><path
         d="m 175.491,172.43526 -2.37121,-0.1709 q -3.39661,0 -4.35791,2.13623 l 0,14.63318 -7.1991,0 0,-23.11402 6.75049,0 0.23499,2.96936 q 1.81579,-3.3966 5.06286,-3.3966 1.15357,0 2.00806,0.25635 l -0.12818,6.6864 z"
         style="font-style:normal;font-variant:normal;font-weight:900;font-stretch:normal;font-size:43.75px;line-height:125%;font-family:Roboto;-inkscape-font-specification:'Roboto, Heavy';text-align:start;writing-mode:lr-tb;text-anchor:start;fill:#f79127"
         id="path5662"
         inkscape:connector-curvature="0" /><path
         d="m 176.40958,177.26314 q 0,-3.4607 1.34583,-6.15235 1.34582,-2.71301 3.86658,-4.16565 2.52075,-1.45263 5.91735,-1.45263 5.19104,0 8.18177,3.22571 2.99072,3.20434 2.99072,8.73718 l 0,0.25635 q 0,5.40466 -3.01208,8.58764 -2.99073,3.16162 -8.11768,3.16162 -4.93469,0 -7.92542,-2.94799 -2.99072,-2.96936 -3.2257,-8.03223 l -0.0214,-1.21765 z m 7.1991,0.44861 q 0,3.20434 1.00403,4.6997 1.00403,1.49536 2.96936,1.49536 3.84521,0 3.93066,-5.91735 l 0,-0.72632 q 0,-6.21643 -3.97339,-6.21643 -3.61022,0 -3.9093,5.36194 l -0.0214,1.3031 z"
         style="font-style:normal;font-variant:normal;font-weight:900;font-stretch:normal;font-size:43.75px;line-height:125%;font-family:Roboto;-inkscape-font-specification:'Roboto, Heavy';text-align:start;writing-mode:lr-tb;text-anchor:start;fill:#f79127"
         id="path5664"
         inkscape:connector-curvature="0" /><path
         d="m 228.23454,189.03377 -7.45545,0 -11.02295,-19.35425 0,19.35425 -7.49817,0 0,-31.10352 7.49817,0 11.00159,19.35425 0,-19.35425 7.47681,0 0,31.10352 z"
         style="font-style:normal;font-variant:normal;font-weight:900;font-stretch:normal;font-size:43.75px;line-height:125%;font-family:Roboto;-inkscape-font-specification:'Roboto, Heavy';text-align:start;writing-mode:lr-tb;text-anchor:start;fill:#f79127"
         id="path5666"
         inkscape:connector-curvature="0" /><path
         d="m 240.28288,189.03377 -7.22046,0 0,-23.11402 7.22046,0 0,23.11402 z m -7.64771,-29.0741 q 0,-1.53808 1.11084,-2.52075 1.11084,-0.98267 2.88391,-0.98267 1.77307,0 2.88391,0.98267 1.11084,0.98267 1.11084,2.52075 0,1.53809 -1.11084,2.52075 -1.11084,0.98267 -2.88391,0.98267 -1.77307,0 -2.88391,-0.98267 -1.11084,-0.98266 -1.11084,-2.52075 z"
         style="font-style:normal;font-variant:normal;font-weight:900;font-stretch:normal;font-size:43.75px;line-height:125%;font-family:Roboto;-inkscape-font-specification:'Roboto, Heavy';text-align:start;writing-mode:lr-tb;text-anchor:start;fill:#f79127"
         id="path5668"
         inkscape:connector-curvature="0" /><path
         d="m 251.54081,165.91975 0.23498,2.71302 q 2.45667,-3.14026 6.60096,-3.14026 4.37927,0 5.91736,3.48205 2.34985,-3.48205 6.79321,-3.48205 7.0282,0 7.22046,8.5022 l 0,15.03906 -7.22046,0 0,-14.59046 q 0,-1.77307 -0.59815,-2.58484 -0.59814,-0.81176 -2.17895,-0.81176 -2.13623,0 -3.18298,1.90124 l 0.0214,0.29907 0,15.78675 -7.22046,0 0,-14.54773 q 0,-1.8158 -0.57678,-2.62757 -0.57679,-0.81176 -2.20032,-0.81176 -2.07214,0 -3.16162,1.90124 l 0,16.08582 -7.1991,0 0,-23.11402 6.75049,0 z"
         style="font-style:normal;font-variant:normal;font-weight:900;font-stretch:normal;font-size:43.75px;line-height:125%;font-family:Roboto;-inkscape-font-specification:'Roboto, Heavy';text-align:start;writing-mode:lr-tb;text-anchor:start;fill:#f79127"
         id="path5670"
         inkscape:connector-curvature="0" /></g><g
       transform="translate(-3.3599446,-0.95998883)"
       id="g5640"
       style="overflow:visible"><g
         style="font-style:normal;font-variant:normal;font-weight:900;font-stretch:normal;font-size:17.5px;line-height:125%;font-family:Roboto;-inkscape-font-specification:'Roboto, Heavy';text-align:start;writing-mode:lr-tb;text-anchor:start"
         id="text5642"><path
           d="m 45.797215,305.65555 -4.110108,0 -0.717773,2.32422 -3.204346,0 4.562988,-12.44141 2.819824,0 4.597168,12.44141 -3.221435,0 -0.726318,-2.32422 z m -3.392334,-2.31568 2.67456,0 -1.341553,-4.31518 -1.333007,4.31518 z"
           style="font-style:normal;font-variant:normal;font-weight:900;font-stretch:normal;font-size:17.5px;line-height:125%;font-family:Roboto;-inkscape-font-specification:'Roboto, Heavy';text-align:start;writing-mode:lr-tb;text-anchor:start;fill:#444041"
           id="path5673"
           inkscape:connector-curvature="0" /><path
           d="m 65.100193,303.76712 q -0.05981,1.29883 -0.700684,2.29858 -0.640869,0.99122 -1.802978,1.53809 -1.153565,0.54688 -2.640381,0.54688 -2.452393,0 -3.862305,-1.59791 -1.409912,-1.5979 -1.409912,-4.51171 l 0,-0.61524 q 0,-1.82861 0.632324,-3.1958 0.64087,-1.37573 1.837159,-2.11914 1.196289,-0.75195 2.768554,-0.75195 2.264405,0 3.640137,1.19629 1.375733,1.18774 1.563721,3.28125 l -2.990723,0 q -0.03418,-1.13648 -0.57251,-1.63208 -0.53833,-0.49561 -1.640625,-0.49561 -1.119384,0 -1.640625,0.8374 -0.52124,0.83741 -0.546875,2.67456 l 0,0.88013 q 0,1.99097 0.495606,2.84546 0.50415,0.85449 1.726074,0.85449 1.033936,0 1.580811,-0.48706 0.546875,-0.48706 0.581054,-1.54663 l 2.982178,0 z"
           style="font-style:normal;font-variant:normal;font-weight:900;font-stretch:normal;font-size:17.5px;line-height:125%;font-family:Roboto;-inkscape-font-specification:'Roboto, Heavy';text-align:start;writing-mode:lr-tb;text-anchor:start;fill:#444041"
           id="path5675"
           inkscape:connector-curvature="0" /><path
           d="m 70.85947,308.15067 q -2.127685,0 -3.443603,-1.26465 -1.315918,-1.2732 -1.315918,-3.30689 l 0,-0.23926 q 0,-1.41845 0.52124,-2.50366 0.529785,-1.0852 1.538086,-1.6748 1.008301,-0.59815 2.392578,-0.59815 1.948242,0 3.076172,1.21338 1.12793,1.20484 1.12793,3.3667 l 0,1.11939 -5.725098,0 q 0.153809,0.77758 0.675049,1.22192 0.52124,0.44434 1.350098,0.44434 1.367187,0 2.13623,-0.95704 l 1.315918,1.55518 q -0.53833,0.74341 -1.529541,1.18774 -0.982666,0.4358 -2.119141,0.4358 z m -0.324707,-7.36573 q -1.264648,0 -1.503906,1.67481 l 2.905274,0 0,-0.22217 q 0.01709,-0.69214 -0.350342,-1.06812 -0.367432,-0.38452 -1.051026,-0.38452 z"
           style="font-style:normal;font-variant:normal;font-weight:900;font-stretch:normal;font-size:17.5px;line-height:125%;font-family:Roboto;-inkscape-font-specification:'Roboto, Heavy';text-align:start;writing-mode:lr-tb;text-anchor:start;fill:#444041"
           id="path5677"
           inkscape:connector-curvature="0" /><path
           d="m 78.56699,298.73416 0.09399,1.08521 q 0.957031,-1.25611 2.640381,-1.25611 1.444092,0 2.15332,0.86304 0.717774,0.86304 0.743408,2.59766 l 0,5.95581 -2.888183,0 0,-5.83618 q 0,-0.70069 -0.281983,-1.0254 -0.281982,-0.33325 -1.02539,-0.33325 -0.845947,0 -1.256104,0.66651 l 0,6.52832 -2.879638,0 0,-9.24561 2.700195,0 z"
           style="font-style:normal;font-variant:normal;font-weight:900;font-stretch:normal;font-size:17.5px;line-height:125%;font-family:Roboto;-inkscape-font-specification:'Roboto, Heavy';text-align:start;writing-mode:lr-tb;text-anchor:start;fill:#444041"
           id="path5679"
           inkscape:connector-curvature="0" /><path
           d="m 89.154148,296.43558 0,2.29858 1.520996,0 0,1.99951 -1.520996,0 0,4.22974 q 0,0.52124 0.187988,0.72632 0.187989,0.20508 0.743409,0.20508 0.427246,0 0.717773,-0.0513 l 0,2.05932 q -0.777588,0.24781 -1.623535,0.24781 -1.486817,0 -2.196045,-0.70069 -0.709229,-0.70068 -0.709229,-2.12768 l 0,-4.58863 -1.179199,0 0,-1.99951 1.179199,0 0,-2.29858 2.879639,0 z"
           style="font-style:normal;font-variant:normal;font-weight:900;font-stretch:normal;font-size:17.5px;line-height:125%;font-family:Roboto;-inkscape-font-specification:'Roboto, Heavy';text-align:start;writing-mode:lr-tb;text-anchor:start;fill:#444041"
           id="path5681"
           inkscape:connector-curvature="0" /><path
           d="m 96.289158,308.15067 q -2.127686,0 -3.443604,-1.26465 -1.315918,-1.2732 -1.315918,-3.30689 l 0,-0.23926 q 0,-1.41845 0.521241,-2.50366 0.529785,-1.0852 1.538086,-1.6748 1.0083,-0.59815 2.392578,-0.59815 1.948242,0 3.076172,1.21338 1.127927,1.20484 1.127927,3.3667 l 0,1.11939 -5.725095,0 q 0.153808,0.77758 0.675048,1.22192 0.521241,0.44434 1.350098,0.44434 1.367188,0 2.136231,-0.95704 l 1.315918,1.55518 q -0.538331,0.74341 -1.529542,1.18774 -0.982666,0.4358 -2.11914,0.4358 z m -0.324707,-7.36573 q -1.264649,0 -1.503906,1.67481 l 2.905273,0 0,-0.22217 q 0.01709,-0.69214 -0.350342,-1.06812 -0.367431,-0.38452 -1.051025,-0.38452 z"
           style="font-style:normal;font-variant:normal;font-weight:900;font-stretch:normal;font-size:17.5px;line-height:125%;font-family:Roboto;-inkscape-font-specification:'Roboto, Heavy';text-align:start;writing-mode:lr-tb;text-anchor:start;fill:#444041"
           id="path5683"
           inkscape:connector-curvature="0" /><path
           d="m 106.94468,301.34036 -0.94849,-0.0684 q -1.35864,0 -1.74316,0.8545 l 0,5.85327 -2.87964,0 0,-9.24561 2.70019,0 0.094,1.18775 q 0.72631,-1.35865 2.02514,-1.35865 0.46143,0 0.80322,0.10254 l -0.0513,2.67456 z"
           style="font-style:normal;font-variant:normal;font-weight:900;font-stretch:normal;font-size:17.5px;line-height:125%;font-family:Roboto;-inkscape-font-specification:'Roboto, Heavy';text-align:start;writing-mode:lr-tb;text-anchor:start;fill:#444041"
           id="path5685"
           inkscape:connector-curvature="0" /><path
           d="m 112.99448,307.97977 0,-7.2461 -1.34155,0 0,-1.99951 1.34155,0 0,-0.73486 q 0,-1.58081 0.9314,-2.45239 0.93139,-0.87159 2.61474,-0.87159 0.61524,0 1.3501,0.17945 l 0.009,2.11914 q -0.2649,-0.0769 -0.70923,-0.0769 -1.30738,0 -1.30738,1.12793 l 0,0.70923 1.80298,0 0,1.99951 -1.80298,0 0,7.2461 -2.88818,0 z"
           style="font-style:normal;font-variant:normal;font-weight:900;font-stretch:normal;font-size:17.5px;line-height:125%;font-family:Roboto;-inkscape-font-specification:'Roboto, Heavy';text-align:start;writing-mode:lr-tb;text-anchor:start;fill:#444041"
           id="path5687"
           inkscape:connector-curvature="0" /><path
           d="m 118.35215,303.27151 q 0,-1.38427 0.53833,-2.46093 0.53833,-1.08521 1.54663,-1.66626 1.0083,-0.58106 2.36694,-0.58106 2.07642,0 3.27271,1.29029 1.19628,1.28173 1.19628,3.49487 l 0,0.10254 q 0,2.16186 -1.20483,3.43506 -1.19629,1.26465 -3.24707,1.26465 -1.97388,0 -3.17017,-1.1792 -1.19628,-1.18775 -1.29028,-3.21289 l -0.009,-0.48707 z m 2.87963,0.17945 q 0,1.28174 0.40162,1.87988 0.40161,0.59815 1.18774,0.59815 1.53809,0 1.57227,-2.36695 l 0,-0.29053 q 0,-2.48657 -1.58936,-2.48657 -1.44409,0 -1.56372,2.14478 l -0.009,0.52124 z"
           style="font-style:normal;font-variant:normal;font-weight:900;font-stretch:normal;font-size:17.5px;line-height:125%;font-family:Roboto;-inkscape-font-specification:'Roboto, Heavy';text-align:start;writing-mode:lr-tb;text-anchor:start;fill:#444041"
           id="path5689"
           inkscape:connector-curvature="0" /><path
           d="m 134.15171,301.34036 -0.94849,-0.0684 q -1.35864,0 -1.74316,0.8545 l 0,5.85327 -2.87964,0 0,-9.24561 2.70019,0 0.094,1.18775 q 0.72632,-1.35865 2.02514,-1.35865 0.46143,0 0.80323,0.10254 l -0.0513,2.67456 z"
           style="font-style:normal;font-variant:normal;font-weight:900;font-stretch:normal;font-size:17.5px;line-height:125%;font-family:Roboto;-inkscape-font-specification:'Roboto, Heavy';text-align:start;writing-mode:lr-tb;text-anchor:start;fill:#444041"
           id="path5691"
           inkscape:connector-curvature="0" /><path
           d="m 144.32016,303.58768 -1.62353,0 0,4.39209 -2.99927,0 0,-12.44141 4.89624,0 q 2.21314,0 3.46069,0.98267 1.24756,0.98266 1.24756,2.7771 0,1.29882 -0.52978,2.15332 -0.52124,0.85449 -1.64063,1.38427 l 2.59766,5.01587 0,0.12818 -3.21289,0 -2.19605,-4.39209 z m -1.62353,-2.31568 1.89697,0 q 0.85449,0 1.28174,-0.44433 0.43579,-0.45288 0.43579,-1.25611 0,-0.80322 -0.43579,-1.2561 -0.43579,-0.46143 -1.28174,-0.46143 l -1.89697,0 0,3.41797 z"
           style="font-style:normal;font-variant:normal;font-weight:900;font-stretch:normal;font-size:17.5px;line-height:125%;font-family:Roboto;-inkscape-font-specification:'Roboto, Heavy';text-align:start;writing-mode:lr-tb;text-anchor:start;fill:#444041"
           id="path5693"
           inkscape:connector-curvature="0" /><path
           d="m 155.4542,308.15067 q -2.12769,0 -3.44361,-1.26465 -1.31591,-1.2732 -1.31591,-3.30689 l 0,-0.23926 q 0,-1.41845 0.52124,-2.50366 0.52978,-1.0852 1.53808,-1.6748 1.0083,-0.59815 2.39258,-0.59815 1.94824,0 3.07617,1.21338 1.12793,1.20484 1.12793,3.3667 l 0,1.11939 -5.7251,0 q 0.15381,0.77758 0.67505,1.22192 0.52124,0.44434 1.3501,0.44434 1.36719,0 2.13623,-0.95704 l 1.31592,1.55518 q -0.53833,0.74341 -1.52954,1.18774 -0.98267,0.4358 -2.11914,0.4358 z m -0.32471,-7.36573 q -1.26465,0 -1.50391,1.67481 l 2.90528,0 0,-0.22217 q 0.0171,-0.69214 -0.35034,-1.06812 -0.36744,-0.38452 -1.05103,-0.38452 z"
           style="font-style:normal;font-variant:normal;font-weight:900;font-stretch:normal;font-size:17.5px;line-height:125%;font-family:Roboto;-inkscape-font-specification:'Roboto, Heavy';text-align:start;writing-mode:lr-tb;text-anchor:start;fill:#444041"
           id="path5695"
           inkscape:connector-curvature="0" /><path
           d="m 169.10044,303.42532 q 0,2.15332 -0.97412,3.44361 -0.96558,1.28174 -2.61475,1.28174 -1.27319,0 -2.09351,-0.9314 l 0,4.31518 -2.87963,0 0,-12.80029 2.69165,0 0.0855,0.85449 q 0.82885,-1.02539 2.17895,-1.02539 1.70898,0 2.65747,1.26465 0.94849,1.2561 0.94849,3.46069 l 0,0.13672 z m -2.87964,-0.17944 q 0,-2.46094 -1.43555,-2.46094 -1.02539,0 -1.36719,0.73487 l 0,3.64013 q 0.37598,0.76905 1.38428,0.76905 1.37573,0 1.41846,-2.37549 l 0,-0.30762 z"
           style="font-style:normal;font-variant:normal;font-weight:900;font-stretch:normal;font-size:17.5px;line-height:125%;font-family:Roboto;-inkscape-font-specification:'Roboto, Heavy';text-align:start;writing-mode:lr-tb;text-anchor:start;fill:#444041"
           id="path5697"
           inkscape:connector-curvature="0" /><path
           d="m 175.95346,301.34036 -0.94848,-0.0684 q -1.35864,0 -1.74317,0.8545 l 0,5.85327 -2.87963,0 0,-9.24561 2.70019,0 0.094,1.18775 q 0.72632,-1.35865 2.02515,-1.35865 0.46143,0 0.80322,0.10254 l -0.0513,2.67456 z"
           style="font-style:normal;font-variant:normal;font-weight:900;font-stretch:normal;font-size:17.5px;line-height:125%;font-family:Roboto;-inkscape-font-specification:'Roboto, Heavy';text-align:start;writing-mode:lr-tb;text-anchor:start;fill:#444041"
           id="path5699"
           inkscape:connector-curvature="0" /><path
           d="m 176.3209,303.27151 q 0,-1.38427 0.53833,-2.46093 0.53833,-1.08521 1.54663,-1.66626 1.0083,-0.58106 2.36694,-0.58106 2.07642,0 3.27271,1.29029 1.19628,1.28173 1.19628,3.49487 l 0,0.10254 q 0,2.16186 -1.20483,3.43506 -1.19629,1.26465 -3.24707,1.26465 -1.97388,0 -3.17017,-1.1792 -1.19628,-1.18775 -1.29028,-3.21289 l -0.009,-0.48707 z m 2.87963,0.17945 q 0,1.28174 0.40162,1.87988 0.40161,0.59815 1.18774,0.59815 1.53809,0 1.57227,-2.36695 l 0,-0.29053 q 0,-2.48657 -1.58936,-2.48657 -1.44409,0 -1.56372,2.14478 l -0.009,0.52124 z"
           style="font-style:normal;font-variant:normal;font-weight:900;font-stretch:normal;font-size:17.5px;line-height:125%;font-family:Roboto;-inkscape-font-specification:'Roboto, Heavy';text-align:start;writing-mode:lr-tb;text-anchor:start;fill:#444041"
           id="path5701"
           inkscape:connector-curvature="0" /><path
           d="m 186.16465,303.2886 q 0,-2.19604 0.94848,-3.46069 0.94849,-1.26465 2.64893,-1.26465 1.23901,0 2.08496,0.97412 l 0,-4.68261 2.88818,0 0,13.125 -2.58911,0 -0.14526,-0.99121 q -0.88867,1.16211 -2.25586,1.16211 -1.64917,0 -2.61475,-1.26465 -0.96557,-1.26465 -0.96557,-3.59742 z m 2.87963,0.17945 q 0,2.46094 1.43555,2.46094 0.95703,0 1.36719,-0.80323 l 0,-3.5205 q -0.39307,-0.82032 -1.3501,-0.82032 -1.33301,0 -1.44409,2.15332 l -0.009,0.52979 z"
           style="font-style:normal;font-variant:normal;font-weight:900;font-stretch:normal;font-size:17.5px;line-height:125%;font-family:Roboto;-inkscape-font-specification:'Roboto, Heavy';text-align:start;writing-mode:lr-tb;text-anchor:start;fill:#444041"
           id="path5703"
           inkscape:connector-curvature="0" /><path
           d="m 201.87876,306.98001 q -0.91431,1.17066 -2.46948,1.17066 -1.521,0 -2.30713,-0.88013 -0.77759,-0.88867 -0.77759,-2.54639 l 0,-5.98999 2.87964,0 0,6.00708 q 0,1.18775 1.15356,1.18775 0.99121,0 1.40991,-0.70923 l 0,-6.4856 2.89673,0 0,9.24561 -2.70019,0 -0.0855,-0.99976 z"
           style="font-style:normal;font-variant:normal;font-weight:900;font-stretch:normal;font-size:17.5px;line-height:125%;font-family:Roboto;-inkscape-font-specification:'Roboto, Heavy';text-align:start;writing-mode:lr-tb;text-anchor:start;fill:#444041"
           id="path5705"
           inkscape:connector-curvature="0" /><path
           d="m 210.15879,305.92899 q 0.60669,0 0.93994,-0.32471 0.33325,-0.33325 0.32471,-0.92285 l 2.70019,0 q 0,1.52099 -1.09375,2.49511 -1.0852,0.97413 -2.80273,0.97413 -2.01661,0 -3.17871,-1.26465 -1.16211,-1.26465 -1.16211,-3.50342 l 0,-0.11963 q 0,-1.40137 0.51269,-2.46948 0.52124,-1.07666 1.49536,-1.64917 0.97412,-0.58106 2.30713,-0.58106 1.80298,0 2.86255,0.99976 1.05957,0.99975 1.05957,2.70874 l -2.70019,0 q 0,-0.71777 -0.35035,-1.1023 -0.35034,-0.38452 -0.93994,-0.38452 -1.11938,0 -1.30737,1.427 -0.0598,0.45289 -0.0598,1.24756 0,1.39283 0.33326,1.93116 0.33325,0.53833 1.05957,0.53833 z"
           style="font-style:normal;font-variant:normal;font-weight:900;font-stretch:normal;font-size:17.5px;line-height:125%;font-family:Roboto;-inkscape-font-specification:'Roboto, Heavy';text-align:start;writing-mode:lr-tb;text-anchor:start;fill:#444041"
           id="path5707"
           inkscape:connector-curvature="0" /><path
           d="m 218.379,307.97977 -2.88818,0 0,-9.24561 2.88818,0 0,9.24561 z m -3.05908,-11.62964 q 0,-0.61524 0.44434,-1.0083 0.44433,-0.39307 1.15356,-0.39307 0.70923,0 1.15356,0.39307 0.44434,0.39306 0.44434,1.0083 0,0.61523 -0.44434,1.0083 -0.44433,0.39307 -1.15356,0.39307 -0.70923,0 -1.15356,-0.39307 -0.44434,-0.39307 -0.44434,-1.0083 z"
           style="font-style:normal;font-variant:normal;font-weight:900;font-stretch:normal;font-size:17.5px;line-height:125%;font-family:Roboto;-inkscape-font-specification:'Roboto, Heavy';text-align:start;writing-mode:lr-tb;text-anchor:start;fill:#444041"
           id="path5709"
           inkscape:connector-curvature="0" /><path
           d="m 228.74399,303.43387 q 0,2.27295 -0.93994,3.49487 -0.93994,1.22193 -2.64893,1.22193 -1.40991,0 -2.27294,-1.11939 l -0.11963,0.94849 -2.58057,0 0,-13.125 2.87964,0 0,4.6228 q 0.80322,-0.91431 2.07641,-0.91431 1.72608,0 2.66602,1.23902 0.93994,1.23901 0.93994,3.48632 l 0,0.14527 z m -2.88818,-0.17944 q 0,-1.33301 -0.35889,-1.89698 -0.35034,-0.57251 -1.0852,-0.57251 -0.97412,0 -1.3501,0.74341 l 0,3.67432 q 0.36743,0.73486 1.36719,0.73486 1.01684,0 1.29028,-0.99121 0.13672,-0.48706 0.13672,-1.69189 z"
           style="font-style:normal;font-variant:normal;font-weight:900;font-stretch:normal;font-size:17.5px;line-height:125%;font-family:Roboto;-inkscape-font-specification:'Roboto, Heavy';text-align:start;writing-mode:lr-tb;text-anchor:start;fill:#444041"
           id="path5711"
           inkscape:connector-curvature="0" /><path
           d="m 233.04209,307.97977 -2.88819,0 0,-13.125 2.88819,0 0,13.125 z"
           style="font-style:normal;font-variant:normal;font-weight:900;font-stretch:normal;font-size:17.5px;line-height:125%;font-family:Roboto;-inkscape-font-specification:'Roboto, Heavy';text-align:start;writing-mode:lr-tb;text-anchor:start;fill:#444041"
           id="path5713"
           inkscape:connector-curvature="0" /><path
           d="m 239.29697,308.15067 q -2.12769,0 -3.4436,-1.26465 -1.31592,-1.2732 -1.31592,-3.30689 l 0,-0.23926 q 0,-1.41845 0.52124,-2.50366 0.52978,-1.0852 1.53809,-1.6748 1.0083,-0.59815 2.39257,-0.59815 1.94825,0 3.07618,1.21338 1.12792,1.20484 1.12792,3.3667 l 0,1.11939 -5.72509,0 q 0.15381,0.77758 0.67505,1.22192 0.52124,0.44434 1.35009,0.44434 1.36719,0 2.13623,-0.95704 l 1.31592,1.55518 q -0.53833,0.74341 -1.52954,1.18774 -0.98267,0.4358 -2.11914,0.4358 z m -0.32471,-7.36573 q -1.26465,0 -1.5039,1.67481 l 2.90527,0 0,-0.22217 q 0.0171,-0.69214 -0.35034,-1.06812 -0.36743,-0.38452 -1.05103,-0.38452 z"
           style="font-style:normal;font-variant:normal;font-weight:900;font-stretch:normal;font-size:17.5px;line-height:125%;font-family:Roboto;-inkscape-font-specification:'Roboto, Heavy';text-align:start;writing-mode:lr-tb;text-anchor:start;fill:#444041"
           id="path5715"
           inkscape:connector-curvature="0" /></g><g
         style="font-style:normal;font-variant:normal;font-weight:900;font-stretch:normal;font-size:17.5px;line-height:125%;font-family:Roboto;-inkscape-font-specification:'Roboto, Heavy';text-align:start;writing-mode:lr-tb;text-anchor:start"
         id="text5646"><path
           d="m 42.401278,326.69995 -2.982178,0 -4.40918,-7.7417 0,7.7417 -2.999267,0 0,-12.44141 2.999267,0 4.400635,7.7417 0,-7.7417 2.990723,0 0,12.44141 z"
           style="font-style:normal;font-variant:normal;font-weight:900;font-stretch:normal;font-size:17.5px;line-height:125%;font-family:Roboto;-inkscape-font-specification:'Roboto, Heavy';text-align:start;writing-mode:lr-tb;text-anchor:start;fill:#444041"
           id="path5718"
           inkscape:connector-curvature="0" /><path
           d="m 48.65616,326.87085 q -2.127685,0 -3.443603,-1.26465 -1.315918,-1.27319 -1.315918,-3.30688 l 0,-0.23926 q 0,-1.41846 0.52124,-2.50366 0.529785,-1.08521 1.538086,-1.67481 1.008301,-0.59814 2.392578,-0.59814 1.948242,0 3.076172,1.21338 1.12793,1.20483 1.12793,3.3667 l 0,1.11938 -5.725098,0 q 0.153809,0.77759 0.675049,1.22192 0.52124,0.44434 1.350098,0.44434 1.367187,0 2.13623,-0.95703 l 1.315918,1.55517 q -0.53833,0.74341 -1.529541,1.18775 -0.982666,0.43579 -2.119141,0.43579 z m -0.324707,-7.36572 q -1.264648,0 -1.503906,1.6748 l 2.905274,0 0,-0.22217 q 0.01709,-0.69214 -0.350342,-1.06811 -0.367432,-0.38452 -1.051026,-0.38452 z"
           style="font-style:normal;font-variant:normal;font-weight:900;font-stretch:normal;font-size:17.5px;line-height:125%;font-family:Roboto;-inkscape-font-specification:'Roboto, Heavy';text-align:start;writing-mode:lr-tb;text-anchor:start;fill:#444041"
           id="path5720"
           inkscape:connector-curvature="0" /><path
           d="m 59.226229,325.7002 q -0.914307,1.17065 -2.469483,1.17065 -1.520996,0 -2.307129,-0.88013 -0.777588,-0.88867 -0.777588,-2.54638 l 0,-5.98999 2.879639,0 0,6.00708 q 0,1.18774 1.153565,1.18774 0.991211,0 1.409912,-0.70923 l 0,-6.48559 2.896728,0 0,9.2456 -2.700195,0 -0.08545,-0.99975 z"
           style="font-style:normal;font-variant:normal;font-weight:900;font-stretch:normal;font-size:17.5px;line-height:125%;font-family:Roboto;-inkscape-font-specification:'Roboto, Heavy';text-align:start;writing-mode:lr-tb;text-anchor:start;fill:#444041"
           id="path5722"
           inkscape:connector-curvature="0" /><path
           d="m 69.189608,320.06055 -0.948487,-0.0684 q -1.358642,0 -1.743164,0.85449 l 0,5.85327 -2.879638,0 0,-9.2456 2.700195,0 0.09399,1.18774 q 0.726318,-1.35864 2.025146,-1.35864 0.461426,0 0.803223,0.10254 l -0.05127,2.67456 z"
           style="font-style:normal;font-variant:normal;font-weight:900;font-stretch:normal;font-size:17.5px;line-height:125%;font-family:Roboto;-inkscape-font-specification:'Roboto, Heavy';text-align:start;writing-mode:lr-tb;text-anchor:start;fill:#444041"
           id="path5724"
           inkscape:connector-curvature="0" /><path
           d="m 69.557039,321.9917 q 0,-1.38428 0.53833,-2.46094 0.53833,-1.0852 1.546631,-1.66626 1.008301,-0.58105 2.366944,-0.58105 2.076416,0 3.272705,1.29028 1.196289,1.28174 1.196289,3.49487 l 0,0.10254 q 0,2.16187 -1.204834,3.43506 -1.196289,1.26465 -3.247071,1.26465 -1.973877,0 -3.170166,-1.1792 -1.196289,-1.18774 -1.290283,-3.21289 l -0.0085,-0.48706 z m 2.879639,0.17944 q 0,1.28174 0.401611,1.87989 0.401612,0.59814 1.187744,0.59814 1.538086,0 1.572266,-2.36694 l 0,-0.29053 q 0,-2.48657 -1.589355,-2.48657 -1.444092,0 -1.563721,2.14477 l -0.0085,0.52124 z"
           style="font-style:normal;font-variant:normal;font-weight:900;font-stretch:normal;font-size:17.5px;line-height:125%;font-family:Roboto;-inkscape-font-specification:'Roboto, Heavy';text-align:start;writing-mode:lr-tb;text-anchor:start;fill:#444041"
           id="path5726"
           inkscape:connector-curvature="0" /><path
           d="m 82.801668,326.69995 -2.888183,0 0,-9.2456 2.888183,0 0,9.2456 z m -3.059082,-11.62964 q 0,-0.61523 0.444336,-1.0083 0.444336,-0.39306 1.153565,-0.39306 0.709228,0 1.153564,0.39306 0.444336,0.39307 0.444336,1.0083 0,0.61524 -0.444336,1.0083 -0.444336,0.39307 -1.153564,0.39307 -0.709229,0 -1.153565,-0.39307 -0.444336,-0.39306 -0.444336,-1.0083 z"
           style="font-style:normal;font-variant:normal;font-weight:900;font-stretch:normal;font-size:17.5px;line-height:125%;font-family:Roboto;-inkscape-font-specification:'Roboto, Heavy';text-align:start;writing-mode:lr-tb;text-anchor:start;fill:#444041"
           id="path5728"
           inkscape:connector-curvature="0" /><path
           d="m 87.304842,317.45435 0.09399,1.0852 q 0.982666,-1.2561 2.640381,-1.2561 1.751709,0 2.366943,1.39282 0.939942,-1.39282 2.717286,-1.39282 2.811279,0 2.888183,3.40088 l 0,6.01562 -2.888183,0 0,-5.83618 q 0,-0.70923 -0.239258,-1.03394 -0.239258,-0.3247 -0.871582,-0.3247 -0.854493,0 -1.273194,0.76049 l 0.0085,0.11963 0,6.3147 -2.888183,0 0,-5.81909 q 0,-0.72632 -0.230713,-1.05103 -0.230713,-0.3247 -0.880127,-0.3247 -0.828858,0 -1.264649,0.76049 l 0,6.43433 -2.879638,0 0,-9.2456 2.700195,0 z"
           style="font-style:normal;font-variant:normal;font-weight:900;font-stretch:normal;font-size:17.5px;line-height:125%;font-family:Roboto;-inkscape-font-specification:'Roboto, Heavy';text-align:start;writing-mode:lr-tb;text-anchor:start;fill:#444041"
           id="path5730"
           inkscape:connector-curvature="0" /><path
           d="m 104.86466,326.69995 q -0.15381,-0.28198 -0.27344,-0.82886 -0.79468,0.99976 -2.22168,0.99976 -1.30737,0 -2.22168,-0.78613 -0.914307,-0.79468 -0.914307,-1.99097 0,-1.50391 1.110837,-2.27295 1.11084,-0.76904 3.22998,-0.76904 l 0.88868,0 0,-0.48706 q 0,-1.2732 -1.1023,-1.2732 -1.02539,0 -1.02539,1.0083 l -2.879639,0 q 0,-1.34155 1.136479,-2.17895 1.14502,-0.8374 2.91381,-0.8374 1.7688,0 2.79419,0.86303 1.02539,0.86304 1.05103,2.36695 l 0,4.09302 q 0.0171,1.27319 0.39307,1.94824 l 0,0.14526 -2.87964,0 z m -1.80298,-1.87988 q 0.53833,0 0.88867,-0.23071 0.35889,-0.23072 0.5127,-0.52124 l 0,-1.47828 -0.83741,0 q -1.5039,0 -1.5039,1.3501 0,0.39307 0.26489,0.64087 0.26489,0.23926 0.67505,0.23926 z"
           style="font-style:normal;font-variant:normal;font-weight:900;font-stretch:normal;font-size:17.5px;line-height:125%;font-family:Roboto;-inkscape-font-specification:'Roboto, Heavy';text-align:start;writing-mode:lr-tb;text-anchor:start;fill:#444041"
           id="path5732"
           inkscape:connector-curvature="0" /><path
           d="m 108.61588,322.00879 q 0,-1.40137 0.46142,-2.47803 0.46143,-1.07666 1.32447,-1.65771 0.86303,-0.5896 2.00805,-0.5896 1.44409,0 2.25586,0.97412 l 0.10254,-0.80322 2.61475,0 0,8.89526 q 0,1.22192 -0.57251,2.11914 -0.56397,0.90576 -1.64063,1.38428 -1.07666,0.48706 -2.49511,0.48706 -1.01685,0 -1.97388,-0.38452 -0.94849,-0.38453 -1.45264,-0.99976 l 1.20484,-1.69189 q 0.80322,0.94848 2.11914,0.94848 1.91406,0 1.91406,-1.96533 l 0,-0.29053 q -0.82886,0.91431 -2.09351,0.91431 -1.69189,0 -2.73437,-1.29028 -1.04248,-1.29883 -1.04248,-3.46924 l 0,-0.10254 z m 2.88818,0.17944 q 0,1.13648 0.42725,1.80298 0.42724,0.65796 1.19629,0.65796 0.93139,0 1.35864,-0.62378 l 0,-3.88794 q -0.4187,-0.63232 -1.34155,-0.63232 -0.76905,0 -1.20484,0.69214 -0.43579,0.68359 -0.43579,1.99096 z"
           style="font-style:normal;font-variant:normal;font-weight:900;font-stretch:normal;font-size:17.5px;line-height:125%;font-family:Roboto;-inkscape-font-specification:'Roboto, Heavy';text-align:start;writing-mode:lr-tb;text-anchor:start;fill:#444041"
           id="path5734"
           inkscape:connector-curvature="0" /><path
           d="m 122.07413,326.69995 -2.88818,0 0,-9.2456 2.88818,0 0,9.2456 z m -3.05908,-11.62964 q 0,-0.61523 0.44433,-1.0083 0.44434,-0.39306 1.15357,-0.39306 0.70923,0 1.15356,0.39306 0.44434,0.39307 0.44434,1.0083 0,0.61524 -0.44434,1.0083 -0.44433,0.39307 -1.15356,0.39307 -0.70923,0 -1.15357,-0.39307 -0.44433,-0.39306 -0.44433,-1.0083 z"
           style="font-style:normal;font-variant:normal;font-weight:900;font-stretch:normal;font-size:17.5px;line-height:125%;font-family:Roboto;-inkscape-font-specification:'Roboto, Heavy';text-align:start;writing-mode:lr-tb;text-anchor:start;fill:#444041"
           id="path5736"
           inkscape:connector-curvature="0" /><path
           d="m 126.5004,317.45435 0.094,1.0852 q 0.95703,-1.2561 2.64038,-1.2561 1.4441,0 2.15332,0.86303 0.71778,0.86304 0.74341,2.59766 l 0,5.95581 -2.88818,0 0,-5.83618 q 0,-0.70068 -0.28198,-1.02539 -0.28199,-0.33325 -1.02539,-0.33325 -0.84595,0 -1.25611,0.6665 l 0,6.52832 -2.87964,0 0,-9.2456 2.7002,0 z"
           style="font-style:normal;font-variant:normal;font-weight:900;font-stretch:normal;font-size:17.5px;line-height:125%;font-family:Roboto;-inkscape-font-specification:'Roboto, Heavy';text-align:start;writing-mode:lr-tb;text-anchor:start;fill:#444041"
           id="path5738"
           inkscape:connector-curvature="0" /><path
           d="m 133.39615,322.00879 q 0,-1.40137 0.46143,-2.47803 0.46142,-1.07666 1.32446,-1.65771 0.86304,-0.5896 2.00806,-0.5896 1.44409,0 2.25586,0.97412 l 0.10253,-0.80322 2.61475,0 0,8.89526 q 0,1.22192 -0.57251,2.11914 -0.56396,0.90576 -1.64062,1.38428 -1.07666,0.48706 -2.49512,0.48706 -1.01685,0 -1.97388,-0.38452 -0.94848,-0.38453 -1.45264,-0.99976 l 1.20484,-1.69189 q 0.80322,0.94848 2.11914,0.94848 1.91406,0 1.91406,-1.96533 l 0,-0.29053 q -0.82886,0.91431 -2.0935,0.91431 -1.6919,0 -2.73438,-1.29028 -1.04248,-1.29883 -1.04248,-3.46924 l 0,-0.10254 z m 2.88818,0.17944 q 0,1.13648 0.42725,1.80298 0.42725,0.65796 1.19629,0.65796 0.9314,0 1.35864,-0.62378 l 0,-3.88794 q -0.4187,-0.63232 -1.34155,-0.63232 -0.76904,0 -1.20483,0.69214 -0.4358,0.68359 -0.4358,1.99096 z"
           style="font-style:normal;font-variant:normal;font-weight:900;font-stretch:normal;font-size:17.5px;line-height:125%;font-family:Roboto;-inkscape-font-specification:'Roboto, Heavy';text-align:start;writing-mode:lr-tb;text-anchor:start;fill:#444041"
           id="path5740"
           inkscape:connector-curvature="0" /><path
           d="m 158.39005,322.4873 q -0.0598,1.29883 -0.70069,2.29859 -0.64087,0.99121 -1.80298,1.53808 -1.15356,0.54688 -2.64038,0.54688 -2.45239,0 -3.8623,-1.5979 -1.40991,-1.5979 -1.40991,-4.51172 l 0,-0.61523 q 0,-1.82862 0.63232,-3.1958 0.64087,-1.37574 1.83716,-2.11915 1.19629,-0.75195 2.76855,-0.75195 2.26441,0 3.64014,1.19629 1.37573,1.18774 1.56372,3.28125 l -2.99072,0 q -0.0342,-1.13647 -0.57251,-1.63208 -0.53833,-0.4956 -1.64063,-0.4956 -1.11938,0 -1.64062,0.8374 -0.52124,0.8374 -0.54688,2.67456 l 0,0.88012 q 0,1.99097 0.49561,2.84546 0.50415,0.8545 1.72607,0.8545 1.03394,0 1.58081,-0.48706 0.54688,-0.48707 0.58106,-1.54664 l 2.98218,0 z"
           style="font-style:normal;font-variant:normal;font-weight:900;font-stretch:normal;font-size:17.5px;line-height:125%;font-family:Roboto;-inkscape-font-specification:'Roboto, Heavy';text-align:start;writing-mode:lr-tb;text-anchor:start;fill:#444041"
           id="path5742"
           inkscape:connector-curvature="0" /><path
           d="m 159.3129,321.9917 q 0,-1.38428 0.53833,-2.46094 0.53833,-1.0852 1.54663,-1.66626 1.0083,-0.58105 2.36694,-0.58105 2.07642,0 3.27271,1.29028 1.19629,1.28174 1.19629,3.49487 l 0,0.10254 q 0,2.16187 -1.20484,3.43506 -1.19629,1.26465 -3.24707,1.26465 -1.97387,0 -3.17016,-1.1792 -1.19629,-1.18774 -1.29029,-3.21289 l -0.009,-0.48706 z m 2.87964,0.17944 q 0,1.28174 0.40161,1.87989 0.40161,0.59814 1.18774,0.59814 1.53809,0 1.57227,-2.36694 l 0,-0.29053 q 0,-2.48657 -1.58936,-2.48657 -1.44409,0 -1.56372,2.14477 l -0.009,0.52124 z"
           style="font-style:normal;font-variant:normal;font-weight:900;font-stretch:normal;font-size:17.5px;line-height:125%;font-family:Roboto;-inkscape-font-specification:'Roboto, Heavy';text-align:start;writing-mode:lr-tb;text-anchor:start;fill:#444041"
           id="path5744"
           inkscape:connector-curvature="0" /><path
           d="m 172.24137,317.45435 0.094,1.0852 q 0.98267,-1.2561 2.64038,-1.2561 1.75171,0 2.36694,1.39282 0.93995,-1.39282 2.71729,-1.39282 2.81128,0 2.88818,3.40088 l 0,6.01562 -2.88818,0 0,-5.83618 q 0,-0.70923 -0.23926,-1.03394 -0.23926,-0.3247 -0.87158,-0.3247 -0.85449,0 -1.27319,0.76049 l 0.009,0.11963 0,6.3147 -2.88818,0 0,-5.81909 q 0,-0.72632 -0.23072,-1.05103 -0.23071,-0.3247 -0.88012,-0.3247 -0.82886,0 -1.26465,0.76049 l 0,6.43433 -2.87964,0 0,-9.2456 2.7002,0 z"
           style="font-style:normal;font-variant:normal;font-weight:900;font-stretch:normal;font-size:17.5px;line-height:125%;font-family:Roboto;-inkscape-font-specification:'Roboto, Heavy';text-align:start;writing-mode:lr-tb;text-anchor:start;fill:#444041"
           id="path5746"
           inkscape:connector-curvature="0" /><path
           d="m 193.17642,322.14551 q 0,2.15332 -0.97412,3.4436 -0.96557,1.28174 -2.61474,1.28174 -1.2732,0 -2.09351,-0.9314 l 0,4.31519 -2.87964,0 0,-12.80029 2.69165,0 0.0855,0.85449 q 0.82886,-1.02539 2.17896,-1.02539 1.70898,0 2.65747,1.26465 0.94848,1.2561 0.94848,3.46069 l 0,0.13672 z m -2.87963,-0.17945 q 0,-2.46093 -1.43555,-2.46093 -1.02539,0 -1.36719,0.73486 l 0,3.64014 q 0.37598,0.76904 1.38428,0.76904 1.37573,0 1.41846,-2.37549 l 0,-0.30762 z"
           style="font-style:normal;font-variant:normal;font-weight:900;font-stretch:normal;font-size:17.5px;line-height:125%;font-family:Roboto;-inkscape-font-specification:'Roboto, Heavy';text-align:start;writing-mode:lr-tb;text-anchor:start;fill:#444041"
           id="path5748"
           inkscape:connector-curvature="0" /><path
           d="m 199.944,325.7002 q -0.9143,1.17065 -2.46948,1.17065 -1.521,0 -2.30713,-0.88013 -0.77759,-0.88867 -0.77759,-2.54638 l 0,-5.98999 2.87964,0 0,6.00708 q 0,1.18774 1.15357,1.18774 0.99121,0 1.40991,-0.70923 l 0,-6.48559 2.89673,0 0,9.2456 -2.7002,0 -0.0855,-0.99975 z"
           style="font-style:normal;font-variant:normal;font-weight:900;font-stretch:normal;font-size:17.5px;line-height:125%;font-family:Roboto;-inkscape-font-specification:'Roboto, Heavy';text-align:start;writing-mode:lr-tb;text-anchor:start;fill:#444041"
           id="path5750"
           inkscape:connector-curvature="0" /><path
           d="m 207.66861,315.15576 0,2.29859 1.521,0 0,1.99951 -1.521,0 0,4.22973 q 0,0.52124 0.18799,0.72632 0.18799,0.20508 0.74341,0.20508 0.42724,0 0.71777,-0.0513 l 0,2.05933 q -0.77759,0.2478 -1.62353,0.2478 -1.48682,0 -2.19605,-0.70068 -0.70923,-0.70069 -0.70923,-2.12769 l 0,-4.58862 -1.1792,0 0,-1.99951 1.1792,0 0,-2.29859 2.87964,0 z"
           style="font-style:normal;font-variant:normal;font-weight:900;font-stretch:normal;font-size:17.5px;line-height:125%;font-family:Roboto;-inkscape-font-specification:'Roboto, Heavy';text-align:start;writing-mode:lr-tb;text-anchor:start;fill:#444041"
           id="path5752"
           inkscape:connector-curvature="0" /><path
           d="m 215.53848,326.69995 q -0.1538,-0.28198 -0.27343,-0.82886 -0.79468,0.99976 -2.22168,0.99976 -1.30738,0 -2.22168,-0.78613 -0.91431,-0.79468 -0.91431,-1.99097 0,-1.50391 1.11084,-2.27295 1.11084,-0.76904 3.22998,-0.76904 l 0.88867,0 0,-0.48706 q 0,-1.2732 -1.10229,-1.2732 -1.02539,0 -1.02539,1.0083 l -2.87964,0 q 0,-1.34155 1.13647,-2.17895 1.14502,-0.8374 2.91382,-0.8374 1.7688,0 2.79419,0.86303 1.02539,0.86304 1.05103,2.36695 l 0,4.09302 q 0.0171,1.27319 0.39306,1.94824 l 0,0.14526 -2.87964,0 z m -1.80297,-1.87988 q 0.53833,0 0.88867,-0.23071 0.35888,-0.23072 0.51269,-0.52124 l 0,-1.47828 -0.8374,0 q -1.50391,0 -1.50391,1.3501 0,0.39307 0.2649,0.64087 0.26489,0.23926 0.67505,0.23926 z"
           style="font-style:normal;font-variant:normal;font-weight:900;font-stretch:normal;font-size:17.5px;line-height:125%;font-family:Roboto;-inkscape-font-specification:'Roboto, Heavy';text-align:start;writing-mode:lr-tb;text-anchor:start;fill:#444041"
           id="path5754"
           inkscape:connector-curvature="0" /><path
           d="m 222.98111,315.15576 0,2.29859 1.521,0 0,1.99951 -1.521,0 0,4.22973 q 0,0.52124 0.18799,0.72632 0.18799,0.20508 0.74341,0.20508 0.42724,0 0.71777,-0.0513 l 0,2.05933 q -0.77759,0.2478 -1.62353,0.2478 -1.48682,0 -2.19605,-0.70068 -0.70923,-0.70069 -0.70923,-2.12769 l 0,-4.58862 -1.1792,0 0,-1.99951 1.1792,0 0,-2.29859 2.87964,0 z"
           style="font-style:normal;font-variant:normal;font-weight:900;font-stretch:normal;font-size:17.5px;line-height:125%;font-family:Roboto;-inkscape-font-specification:'Roboto, Heavy';text-align:start;writing-mode:lr-tb;text-anchor:start;fill:#444041"
           id="path5756"
           inkscape:connector-curvature="0" /><path
           d="m 228.68057,326.69995 -2.88818,0 0,-9.2456 2.88818,0 0,9.2456 z m -3.05908,-11.62964 q 0,-0.61523 0.44434,-1.0083 0.44433,-0.39306 1.15356,-0.39306 0.70923,0 1.15357,0.39306 0.44433,0.39307 0.44433,1.0083 0,0.61524 -0.44433,1.0083 -0.44434,0.39307 -1.15357,0.39307 -0.70923,0 -1.15356,-0.39307 -0.44434,-0.39306 -0.44434,-1.0083 z"
           style="font-style:normal;font-variant:normal;font-weight:900;font-stretch:normal;font-size:17.5px;line-height:125%;font-family:Roboto;-inkscape-font-specification:'Roboto, Heavy';text-align:start;writing-mode:lr-tb;text-anchor:start;fill:#444041"
           id="path5758"
           inkscape:connector-curvature="0" /><path
           d="m 230.09903,321.9917 q 0,-1.38428 0.53833,-2.46094 0.53833,-1.0852 1.54663,-1.66626 1.0083,-0.58105 2.36695,-0.58105 2.07641,0 3.2727,1.29028 1.19629,1.28174 1.19629,3.49487 l 0,0.10254 q 0,2.16187 -1.20483,3.43506 -1.19629,1.26465 -3.24707,1.26465 -1.97388,0 -3.17017,-1.1792 -1.19629,-1.18774 -1.29028,-3.21289 l -0.009,-0.48706 z m 2.87964,0.17944 q 0,1.28174 0.40161,1.87989 0.40161,0.59814 1.18775,0.59814 1.53808,0 1.57226,-2.36694 l 0,-0.29053 q 0,-2.48657 -1.58935,-2.48657 -1.4441,0 -1.56372,2.14477 l -0.009,0.52124 z"
           style="font-style:normal;font-variant:normal;font-weight:900;font-stretch:normal;font-size:17.5px;line-height:125%;font-family:Roboto;-inkscape-font-specification:'Roboto, Heavy';text-align:start;writing-mode:lr-tb;text-anchor:start;fill:#444041"
           id="path5760"
           inkscape:connector-curvature="0" /><path
           d="m 242.95059,317.45435 0.094,1.0852 q 0.95703,-1.2561 2.64038,-1.2561 1.44409,0 2.15332,0.86303 0.71777,0.86304 0.74341,2.59766 l 0,5.95581 -2.88819,0 0,-5.83618 q 0,-0.70068 -0.28198,-1.02539 -0.28198,-0.33325 -1.02539,-0.33325 -0.84595,0 -1.2561,0.6665 l 0,6.52832 -2.87964,0 0,-9.2456 2.70019,0 z"
           style="font-style:normal;font-variant:normal;font-weight:900;font-stretch:normal;font-size:17.5px;line-height:125%;font-family:Roboto;-inkscape-font-specification:'Roboto, Heavy';text-align:start;writing-mode:lr-tb;text-anchor:start;fill:#444041"
           id="path5762"
           inkscape:connector-curvature="0" /></g></g></g></svg>