<?xml version="1.0" encoding="UTF-8" standalone="no"?>
<!-- Generator: Adobe Illustrator 14.0.0, SVG Export Plug-In . SVG Version: 6.00 Build 43363)  -->

<svg
   version="1.1"
   x="0px"
   y="0px"
   width="32px"
   height="32px"
   viewBox="0 0 32 32"
   enable-background="new 0 0 32 32"
   xml:space="preserve"
   id="svg17"
   sodipodi:docname="mastodon.svg"
   inkscape:version="1.2.2 (b0a8486541, 2022-12-01)"
   xmlns:inkscape="http://www.inkscape.org/namespaces/inkscape"
   xmlns:sodipodi="http://sodipodi.sourceforge.net/DTD/sodipodi-0.dtd"
   xmlns="http://www.w3.org/2000/svg"
   xmlns:svg="http://www.w3.org/2000/svg"><defs
   id="defs21" /><sodipodi:namedview
   id="namedview19"
   pagecolor="#ff60ff"
   bordercolor="#666666"
   borderopacity="1.0"
   inkscape:showpageshadow="2"
   inkscape:pageopacity="0"
   inkscape:pagecheckerboard="0"
   inkscape:deskcolor="#d1d1d1"
   showgrid="false"
   inkscape:zoom="10.383962"
   inkscape:cx="10.256201"
   inkscape:cy="8.0412468"
   inkscape:current-layer="Twitter" />
<g
   id="Layer_2"
   display="none">
	<rect
   display="inline"
   width="32"
   height="32"
   id="rect2" />
	<rect
   display="inline"
   fill="none"
   width="32"
   height="32"
   id="rect4" />
</g>
<g
   id="Twitter"
   inkscape:label="Mastodon">
	<path
   id="path196"
   d="m 15.967654,5.8242399 c -2.806592,0.02127 -5.50632,0.3030191 -7.0796394,0.9728571 0,0 -3.1203628,1.2939524 -3.1203628,5.70881 0,1.010952 -0.021192,2.219719 0.013344,3.501612 0.113315,4.31749 0.8537887,8.572583 5.1597762,9.629149 1.985395,0.487165 3.690085,0.589231 5.062924,0.519275 2.489608,-0.12796 3.887199,-0.823644 3.887199,-0.823644 l -0.08213,-1.674594 c 0,0 -1.779129,0.520012 -3.777179,0.456634 -1.979601,-0.06294 -4.069472,-0.197862 -4.389647,-2.451014 -0.02957,-0.197914 -0.04436,-0.409612 -0.04436,-0.631867 0,0 1.943345,0.440369 4.406105,0.544973 1.5059,0.06403 2.918052,-0.08179 4.352396,-0.240443 2.750646,-0.304493 5.145674,-1.875663 5.446689,-3.311282 0.47429,-2.261483 0.435221,-5.518799 0.435221,-5.518799 0,-4.4148576 -3.120189,-5.70881 -3.120189,-5.70881 C 21.54461,6.127259 18.843204,5.845512 16.036613,5.8242399 Z M 12.791329,9.273811 c 1.169047,0 2.054222,0.4165485 2.639573,1.249761 l 0.569151,0.884358 0.56915,-0.884358 c 0.585234,-0.8332125 1.470408,-1.249761 2.639574,-1.249761 1.010321,0 1.824383,0.3292563 2.446046,0.971572 0.60262,0.642318 0.902671,1.51059 0.902671,2.60312 v 5.345655 h -2.28457 v -5.188572 c 0,-1.093735 -0.496387,-1.648893 -1.48932,-1.648893 -1.097846,0 -1.648023,0.658475 -1.648023,1.960651 v 2.84003 h -2.271056 v -2.84003 c 0,-1.302176 -0.550351,-1.960651 -1.648198,-1.960651 -0.992933,0 -1.489318,0.555158 -1.489318,1.648893 v 5.188572 H 9.4424383 v -5.345655 c 0,-1.09253 0.3001041,-1.960802 0.9028427,-2.60312 0.621545,-0.6423157 1.435607,-0.971572 2.446048,-0.971572 z"
   style="fill:#ffffff;fill-opacity:1;stroke-width:0.0911049" />
</g>
<g
   id="Layer_1"
   display="none">
	<rect
   display="inline"
   fill="none"
   width="32"
   height="32"
   id="rect10" />
	<path
   display="inline"
   fill="#FFFFFF"
   d="M8.228,13.313h3.326V24H8.228V13.313z M9.892,8c1.063,0,1.926,0.863,1.926,1.926   c0,1.063-0.862,1.927-1.926,1.927c-1.068,0-1.928-0.864-1.928-1.927C7.964,8.863,8.824,8,9.892,8"
   id="path12" />
	<path
   display="inline"
   fill="#FFFFFF"
   d="M13.64,13.313h3.186v1.461h0.045c0.443-0.841,1.528-1.726,3.145-1.726   c3.363,0,3.984,2.212,3.984,5.091V24h-3.32v-5.195c0-1.241-0.024-2.835-1.728-2.835c-1.729,0-1.993,1.35-1.993,2.742V24h-3.32   V13.313z"
   id="path14" />
</g>
</svg>
